<?xml version="1.0" encoding="UTF-8" standalone="no"?>
<!-- Created with Inkscape (http://www.inkscape.org/) -->

<svg
   xmlns:dc="http://purl.org/dc/elements/1.1/"
   xmlns:cc="http://creativecommons.org/ns#"
   xmlns:rdf="http://www.w3.org/1999/02/22-rdf-syntax-ns#"
   xmlns:svg="http://www.w3.org/2000/svg"
   xmlns="http://www.w3.org/2000/svg"
   xmlns:sodipodi="http://sodipodi.sourceforge.net/DTD/sodipodi-0.dtd"
   xmlns:inkscape="http://www.inkscape.org/namespaces/inkscape"
   width="5.9400315"
   height="20.628393"
   viewBox="0 0 1.5716333 5.4579292"
   version="1.1"
   id="svg8"
   inkscape:version="0.92.4 (33fec40, 2019-01-16)"
   sodipodi:docname="classroom-status.svg">
  <defs
     id="defs2" />
  <sodipodi:namedview
     id="base"
     pagecolor="#ffffff"
     bordercolor="#666666"
     borderopacity="1.0"
     inkscape:pageopacity="0.0"
     inkscape:pageshadow="2"
     inkscape:zoom="15.839192"
     inkscape:cx="27.609372"
     inkscape:cy="11.55751"
     inkscape:document-units="px"
     inkscape:current-layer="layer1"
     showgrid="false"
     units="px"
     inkscape:window-width="1920"
     inkscape:window-height="1014"
     inkscape:window-x="0"
     inkscape:window-y="0"
     inkscape:window-maximized="1"
     fit-margin-top="0"
     fit-margin-left="0"
     fit-margin-right="0"
     fit-margin-bottom="0" />
  <metadata
     id="metadata5">
    <rdf:RDF>
      <cc:Work
         rdf:about="">
        <dc:format>image/svg+xml</dc:format>
        <dc:type
           rdf:resource="http://purl.org/dc/dcmitype/StillImage" />
        <dc:title></dc:title>
      </cc:Work>
    </rdf:RDF>
  </metadata>
  <g
     inkscape:label="Layer 1"
     inkscape:groupmode="layer"
     id="layer1"
     transform="translate(-31.799667,-105.73115)">
    <path
       style="opacity:1;fill:#ffcc00;fill-opacity:1;stroke:none;stroke-width:1.05833328;stroke-linecap:round;stroke-linejoin:round;stroke-miterlimit:4;stroke-dasharray:none;stroke-opacity:1;paint-order:markers fill stroke"
       d="m 31.90704,105.87027 c 0.151422,-0.064 0.48822,-0.27592 0.535075,-0.004 -0.06366,0.15264 -0.25385,0.31986 -0.382292,0.37122 -0.158529,-0.17068 0.18663,-0.12311 0.283816,-0.21067 0.138668,-0.0833 0.426414,-0.30387 0.476792,-0.018 -0.08035,0.18846 -0.32512,0.23134 -0.464699,0.37166 -0.116836,0.11292 -0.127268,-0.0525 -0.17819,-0.11196 0.193202,-0.0563 0.38255,-0.13512 0.550916,-0.25343 0.142756,-0.12287 0.487228,-0.27822 0.466442,0.0373 -0.106272,0.1468 -0.296561,0.21742 -0.438134,0.33214 -0.147167,0.0916 -0.291307,0.2043 -0.441504,0.28147 -0.06915,-0.11329 -0.185144,-0.23056 0.0092,-0.2565 0.223294,-0.11769 0.42188,-0.27902 0.654221,-0.38008 0.216344,0.066 0.146643,0.32054 -0.04219,0.36831 -0.266715,0.20306 -0.546725,0.38842 -0.835911,0.55786 0.102573,-0.10146 -0.207548,-0.19746 0.0082,-0.21237 0.308171,-0.12489 0.564004,-0.34817 0.870668,-0.47607 0.04041,0.10771 0.224619,0.24095 0.01071,0.2862 -0.27357,0.19236 -0.543881,0.38937 -0.819704,0.57852 0.0782,-0.0996 -0.184589,-0.19746 0.01644,-0.21346 0.289739,-0.12327 0.546373,-0.3186 0.850564,-0.40871 0.207925,0.13701 0.06931,0.34302 -0.112761,0.41317 -0.217723,0.15745 -0.437171,0.31357 -0.670583,0.44722 0.06041,-0.12722 -0.165172,-0.2133 0.04805,-0.22985 0.210786,-0.0808 0.396529,-0.21474 0.608212,-0.29357 0.184583,0.0979 0.09722,0.28386 -0.06369,0.3419 -0.166003,0.12108 -0.346077,0.22256 -0.504321,0.35428 0.08069,-0.12442 -0.225635,-0.19378 0.02226,-0.22331 0.199218,-0.0566 0.442759,-0.28409 0.608559,-0.24293 0.102559,0.095 0.134833,0.23633 -0.0394,0.26362 -0.220251,0.14373 -0.445929,0.27893 -0.673124,0.41134 0.117378,-0.0935 -0.08787,-0.21771 -0.06912,-0.20893 0.284927,-0.10908 0.524143,-0.30913 0.809238,-0.41784 0.216177,0.0612 0.13625,0.31524 -0.04137,0.36648 -0.24613,0.19978 -0.511339,0.3771 -0.795115,0.51894 0.107262,-0.11976 -0.245583,-0.179 -0.0154,-0.23031 0.282786,-0.16266 0.551027,-0.35738 0.861097,-0.46671 0.110445,0.11985 0.154027,0.28994 -0.04706,0.33781 -0.25337,0.17715 -0.529056,0.31882 -0.805549,0.45578 0.100052,-0.13337 -0.169257,-0.19908 -0.118342,-0.1907 0.350337,-0.19753 0.69224,-0.41628 1.071251,-0.55635 0.23316,0.005 0.216112,0.31138 0.01804,0.37025 -0.32549,0.29259 -0.723449,0.48883 -1.053042,0.77621 0.03667,-0.12551 -0.188599,-0.18788 0.01345,-0.23052 0.332459,-0.19442 0.621687,-0.47179 0.996149,-0.5875 0.236496,0.0767 0.06855,0.34192 -0.09064,0.39903 -0.207263,0.1652 -0.420416,0.32349 -0.644207,0.46571 0.08683,-0.095 -0.172849,-0.1815 0.01511,-0.19816 0.295361,-0.15973 0.542333,-0.45566 0.896372,-0.47413 0.263243,0.094 -0.01031,0.38941 -0.161682,0.4616 -0.234752,0.18413 -0.482263,0.35252 -0.743324,0.4972 -0.176089,-0.13393 -0.10102,-0.26884 0.07525,-0.34688 0.174569,-0.13701 0.347481,-0.28103 0.549788,-0.37595 0.252007,0.0301 0.152296,0.33754 -0.03024,0.39563 -0.234479,0.19502 -0.486596,0.37163 -0.762533,0.50312 0.09364,-0.13631 -0.210954,-0.1947 -0.01102,-0.22715 0.285167,-0.14587 0.536466,-0.36388 0.851055,-0.44752 0.295674,0.0394 0.05059,0.3761 -0.114466,0.43146 -0.224399,0.17484 -0.465235,0.32682 -0.69643,0.49223 0.123374,-0.1237 -0.248162,-0.18769 -0.0097,-0.23733 0.193243,-0.0835 0.393668,-0.37116 0.588162,-0.31588 0.241582,0.1587 -0.04577,0.3029 -0.17796,0.40849 -0.173217,0.13184 -0.352368,0.2556 -0.531592,0.37906 0.05298,-0.12027 -0.19106,-0.18664 0.002,-0.21624 0.304607,-0.15209 0.544969,-0.42272 0.874121,-0.52483 0.283888,0.0123 0.0798,0.37854 -0.0874,0.43341 -0.184154,0.15268 -0.367794,0.3063 -0.560688,0.44795 0.09303,-0.13126 -0.247363,-0.16888 0.0032,-0.23056 0.205875,-0.0885 0.419571,-0.43189 0.64336,-0.30883 0.166695,0.16101 -0.06636,0.31114 -0.185004,0.40391 -0.187858,0.15391 -0.384932,0.29597 -0.579739,0.44082 0.09172,-0.12465 -0.204999,-0.19291 0.01346,-0.2207 0.333941,-0.14366 0.582787,-0.44264 0.925877,-0.56197 0.280118,0.0334 0.06163,0.38347 -0.116018,0.41734 -0.190079,0.13101 -0.370715,0.27786 -0.577083,0.38342 0.109163,-0.15048 -0.255263,-0.16923 -0.02359,-0.23937 0.225331,-0.14595 0.416968,-0.35351 0.679424,-0.43487 0.311455,0.042 0.04974,0.41707 -0.12134,0.48703 -0.232095,0.194 -0.454301,0.40203 -0.709285,0.56653 0.0679,-0.12733 -0.234262,-0.18819 -0.01418,-0.25229 0.218894,-0.14869 0.397648,-0.35551 0.640416,-0.46854 0.227856,0.0935 0.0983,0.33888 -0.07118,0.40838 -0.22357,0.18892 -0.459857,0.36357 -0.711752,0.51302 0.09076,-0.1413 -0.220177,-0.19397 -0.0073,-0.22929 0.307512,-0.158 0.549045,-0.41986 0.864656,-0.56412 0.145549,0.0921 0.181023,0.26465 6.34e-4,0.3407 -0.282258,0.26898 -0.610997,0.48856 -0.92987,0.70553 -0.0069,-0.0594 -0.09284,-0.17381 -0.07855,-0.1644 0.276101,-0.14811 0.494922,-0.37896 0.747964,-0.55945 0.100151,-0.18382 0.406806,-0.21661 0.36031,0.053 -0.167373,0.18545 -0.386843,0.32236 -0.574668,0.49046 -0.0875,0.0586 -0.262352,0.23573 -0.292018,0.22636 0.01699,-0.0984 -0.161756,-0.15746 0.0163,-0.17886 0.30503,-0.15553 0.536363,-0.43473 0.857447,-0.55821 0.287852,0.007 0.09795,0.38438 -0.07148,0.4452 -0.15453,0.13918 -0.309799,0.27822 -0.477446,0.40164 0.09409,-0.12732 -0.255506,-0.15713 -0.04459,-0.22284 0.226542,-0.0679 0.404377,-0.41413 0.648473,-0.31464 0.211498,0.20164 -0.170842,0.33307 -0.281357,0.46443 -0.08515,0.0272 -0.25824,0.30256 -0.239421,0.12734 -0.204199,-0.10835 0.144127,-0.11845 0.208727,-0.21115 0.146051,-0.0807 0.290753,-0.22062 0.398941,-0.0376 0.137918,0.11822 -0.160714,0.17684 -0.230484,0.2462 0.04243,-0.0977 -0.07398,-0.1785 -0.117138,-0.1916 0.128655,-0.10138 0.469405,-0.16153 0.454082,0.0647 -0.09643,0.17894 -0.09272,-0.12483 -0.235133,-0.007 -0.06638,0.078 0.298585,0.11282 0.0957,0.18446 -0.319237,0.0926 -0.15408,-0.47876 0.04054,-0.23864 0.159394,0.17524 -0.233471,0.22163 -0.35398,0.24347 -0.267954,-0.0921 0.02494,-0.36972 0.18073,-0.41003 0.174171,-0.055 0.339394,0.20752 0.105044,0.25622 -0.209117,0.076 -0.364234,0.2704 -0.594852,0.28488 -0.347659,-0.009 -0.114064,-0.40503 0.07078,-0.4932 0.14374,-0.1291 0.364342,-0.35873 0.516835,-0.12384 -0.110529,0.16204 -0.315329,0.24971 -0.475198,0.36347 -0.151398,0.14943 -0.506405,0.0508 -0.325999,-0.18403 0.161581,-0.1961 0.39122,-0.31939 0.570544,-0.49816 0.107399,-0.13311 0.135549,0.14839 0.267351,0.062 -0.328728,0.24713 -0.628511,0.58343 -1.05442,0.65087 -0.299091,-0.0419 -0.137137,-0.3832 0.04219,-0.47794 0.224025,-0.21199 0.480266,-0.38592 0.7321,-0.56237 0.205406,-0.045 0.262526,0.25391 0.06213,0.30978 -0.279431,0.27987 -0.591284,0.56114 -0.982963,0.66333 -0.277052,0.001 -0.213382,-0.33873 -0.01615,-0.423 0.278153,-0.26048 0.632186,-0.42757 0.909061,-0.68612 0.18244,-0.0657 0.336705,0.20709 0.106519,0.26418 -0.250376,0.18792 -0.499403,0.38731 -0.784512,0.51876 -0.179913,0.12191 -0.439297,-0.0843 -0.24179,-0.24482 0.218313,-0.22801 0.504803,-0.37395 0.742439,-0.57924 0.141602,-0.17071 0.450513,0.0973 0.199408,0.20045 -0.233112,0.15298 -0.421513,0.41034 -0.7149,0.44515 -0.290897,-0.0412 -0.04943,-0.37205 0.10842,-0.43578 0.228845,-0.19021 0.46197,-0.37518 0.695153,-0.56002 0.05529,0.0443 0.102881,0.1955 0.197494,0.11503 -0.269881,0.16371 -0.492671,0.41191 -0.802175,0.50471 -0.271085,9.8e-4 -0.127917,-0.34013 0.05001,-0.38203 0.200947,-0.14819 0.410075,-0.28516 0.624714,-0.41266 -0.05597,0.16837 0.287295,0.13363 0.0842,0.22557 -0.299268,0.23708 -0.613397,0.49373 -0.994828,0.57283 -0.28307,-0.0324 -0.157083,-0.34463 0.02394,-0.42828 0.197711,-0.17054 0.423736,-0.30357 0.628484,-0.46496 0.123093,0.0911 0.260733,0.17198 0.03719,0.24741 -0.187771,0.13395 -0.371127,0.31931 -0.612015,0.33728 -0.268994,-0.0479 -0.05191,-0.36453 0.08726,-0.44655 0.186396,-0.14705 0.379901,-0.28728 0.565081,-0.43676 -0.07993,0.16777 0.297281,0.13782 0.06805,0.22114 -0.296935,0.20741 -0.582055,0.4908 -0.960177,0.52471 -0.258248,-0.0698 -0.0496,-0.38037 0.113002,-0.44474 0.199096,-0.16438 0.420449,-0.30072 0.629148,-0.44984 0.178868,-0.0448 0.269545,0.243 0.06092,0.29015 -0.210847,0.14954 -0.421769,0.35161 -0.697436,0.35143 -0.246165,-0.14395 0.06979,-0.38399 0.209901,-0.47849 0.211321,-0.16025 0.433154,-0.30604 0.657839,-0.44673 -0.07989,0.16506 0.282924,0.15875 0.06509,0.22562 -0.283287,0.18017 -0.561909,0.39674 -0.901661,0.45375 -0.300339,-0.0354 -0.0676,-0.39029 0.11239,-0.43721 0.225867,-0.16329 0.460785,-0.31345 0.694706,-0.46479 0.124703,0.0722 0.265228,0.19619 0.05335,0.27093 -0.208536,0.1702 -0.425299,0.33954 -0.679459,0.43589 -0.191322,-0.0852 -0.153804,-0.30392 0.03487,-0.363 0.258192,-0.19527 0.538805,-0.35852 0.797233,-0.55345 -0.06817,0.16 0.264019,0.14445 0.06393,0.19936 -0.293712,0.16682 -0.553755,0.41385 -0.89282,0.48497 -0.298923,-0.0202 -0.178023,-0.36944 0.02592,-0.44527 0.211397,-0.17303 0.443821,-0.3175 0.673092,-0.46514 -0.02687,0.11271 0.175752,0.19423 0.141666,0.1893 -0.32644,0.23233 -0.661616,0.45826 -1.018817,0.63865 -0.230733,0.10872 -0.398226,-0.18541 -0.177461,-0.32013 0.298109,-0.32501 0.703797,-0.51693 1.046169,-0.78729 0.135022,-0.132 0.40003,0.13302 0.144169,0.17739 -0.362731,0.15966 -0.674958,0.44795 -1.077592,0.51384 -0.2882,-0.0547 -0.0057,-0.37113 0.156249,-0.41123 0.263196,-0.16709 0.534491,-0.32288 0.819957,-0.44894 0.164124,0.0706 0.17517,0.26956 -0.01576,0.31015 -0.297929,0.19059 -0.598217,0.41123 -0.951208,0.4793 -0.288664,-0.063 -0.01855,-0.39718 0.155997,-0.43787 0.237693,-0.16207 0.469019,-0.3354 0.723826,-0.47043 0.116397,0.0809 0.223084,0.21704 0.0219,0.26778 -0.245892,0.1604 -0.511745,0.34408 -0.814506,0.34857 -0.252553,-0.10309 0.04214,-0.36495 0.187203,-0.42656 0.19501,-0.13011 0.397045,-0.25351 0.617635,-0.33549 0.203556,0.0951 0.150477,0.27615 -0.04462,0.33481 -0.209043,0.12676 -0.440418,0.24548 -0.689604,0.25071 -0.242794,-0.0752 -0.0376,-0.36451 0.116449,-0.42667 0.173647,-0.13294 0.362039,-0.24497 0.552487,-0.35185 0.155851,0.0765 0.207883,0.29015 -0.0067,0.32456 -0.228467,0.14403 -0.483774,0.28885 -0.763663,0.26776 -0.248256,-0.16723 0.09322,-0.38962 0.241493,-0.48128 0.201809,-0.0962 0.401522,-0.35582 0.613251,-0.33396 0.273878,0.16917 -0.154357,0.26458 -0.279397,0.37311 -0.209237,0.11135 -0.434127,0.25735 -0.682186,0.21601 -0.209777,-0.15922 0.06957,-0.37052 0.202778,-0.4709 0.236885,-0.18889 0.489554,-0.36904 0.770956,-0.48261 0.238252,-0.009 0.170633,0.31667 -0.02572,0.34623 -0.301705,0.18482 -0.605572,0.42214 -0.975057,0.43831 -0.280433,-0.0974 0.0018,-0.39626 0.16203,-0.46751 0.254538,-0.18368 0.530061,-0.33545 0.789227,-0.51219 0.160357,0.0639 0.239955,0.25781 0.01761,0.30229 -0.241795,0.15932 -0.492065,0.33056 -0.785167,0.37322 -0.221219,-0.13076 0.01973,-0.34026 0.158266,-0.42 0.222783,-0.15596 0.453637,-0.30038 0.691264,-0.43264 0.120672,0.0615 0.246267,0.21743 0.03711,0.26359 -0.280198,0.19048 -0.588774,0.39304 -0.941733,0.38254 -0.271838,-0.10624 1.2e-5,-0.40312 0.179622,-0.44397 0.150111,-0.11981 0.366335,-0.28176 0.473717,-0.0361 -0.01386,0.13402 -0.268622,0.19002 -0.391623,0.26985 -0.153149,0.0583 -0.337514,0.11858 -0.494661,0.0511 -0.17978,-0.16763 0.06838,-0.37506 0.197915,-0.4856 0.0564,-0.0826 0.227997,-0.13107 0.17002,0.0293 0.01227,0.0856 0.178909,0.0413 0.03778,0.0886 -0.134636,0.12911 -0.371881,0.0683 -0.391172,-0.12289 z"
       id="path861"
       inkscape:connector-curvature="0" />
  </g>
</svg>
