<?xml version="1.0" encoding="UTF-8" standalone="no"?>
<!-- Created with Inkscape (http://www.inkscape.org/) -->

<svg
   xmlns:dc="http://purl.org/dc/elements/1.1/"
   xmlns:cc="http://creativecommons.org/ns#"
   xmlns:rdf="http://www.w3.org/1999/02/22-rdf-syntax-ns#"
   xmlns:svg="http://www.w3.org/2000/svg"
   xmlns="http://www.w3.org/2000/svg"
   xmlns:sodipodi="http://sodipodi.sourceforge.net/DTD/sodipodi-0.dtd"
   xmlns:inkscape="http://www.inkscape.org/namespaces/inkscape"
   width="49.922256"
   height="3.9332032"
   viewBox="0 0 13.208597 1.04066"
   version="1.1"
   id="svg8"
   inkscape:version="0.92.4 (33fec40, 2019-01-16)"
   sodipodi:docname="legend-underscore.svg"
   inkscape:export-filename="/home/emiliano/Documents/university/web/project/uniboard/misc/scrollbar-border.png"
   inkscape:export-xdpi="96"
   inkscape:export-ydpi="96">
  <defs
     id="defs2" />
  <sodipodi:namedview
     id="base"
     pagecolor="#ffffff"
     bordercolor="#666666"
     borderopacity="1.0"
     inkscape:pageopacity="0.0"
     inkscape:pageshadow="2"
     inkscape:zoom="2.5600001"
     inkscape:cx="-94.457305"
     inkscape:cy="29.568523"
     inkscape:document-units="px"
     inkscape:current-layer="layer1"
     showgrid="false"
     units="px"
     inkscape:window-width="1920"
     inkscape:window-height="1014"
     inkscape:window-x="0"
     inkscape:window-y="0"
     inkscape:window-maximized="1"
     fit-margin-top="0"
     fit-margin-left="0"
     fit-margin-right="0"
     fit-margin-bottom="0" />
  <metadata
     id="metadata5">
    <rdf:RDF>
      <cc:Work
         rdf:about="">
        <dc:format>image/svg+xml</dc:format>
        <dc:type
           rdf:resource="http://purl.org/dc/dcmitype/StillImage" />
        <dc:title></dc:title>
      </cc:Work>
    </rdf:RDF>
  </metadata>
  <g
     inkscape:label="Layer 1"
     inkscape:groupmode="layer"
     id="layer1"
     transform="translate(-38.939739,-108.69476)">
    <path
       style="color:#000000;font-style:normal;font-variant:normal;font-weight:normal;font-stretch:normal;font-size:medium;line-height:normal;font-family:sans-serif;font-variant-ligatures:normal;font-variant-position:normal;font-variant-caps:normal;font-variant-numeric:normal;font-variant-alternates:normal;font-feature-settings:normal;text-indent:0;text-align:start;text-decoration:none;text-decoration-line:none;text-decoration-style:solid;text-decoration-color:#000000;letter-spacing:normal;word-spacing:normal;text-transform:none;writing-mode:lr-tb;direction:ltr;text-orientation:mixed;dominant-baseline:auto;baseline-shift:baseline;text-anchor:start;white-space:normal;shape-padding:0;clip-rule:nonzero;display:inline;overflow:visible;visibility:visible;opacity:1;isolation:auto;mix-blend-mode:normal;color-interpolation:sRGB;color-interpolation-filters:linearRGB;solid-color:#000000;solid-opacity:1;vector-effect:none;fill:#000000;fill-opacity:1;fill-rule:nonzero;stroke:none;stroke-width:0.22172005px;stroke-linecap:butt;stroke-linejoin:miter;stroke-miterlimit:4;stroke-dasharray:none;stroke-dashoffset:0;stroke-opacity:1;color-rendering:auto;image-rendering:auto;shape-rendering:auto;text-rendering:auto;enable-background:accumulate"
       d="m 39.090289,109.73542 c 0,0 -0.124662,-0.9685 -0.124662,-0.9685 0,0 0.351912,0.0158 0.943248,0.0158 0.269323,0 0.588378,-0.0295 0.94548,-0.0295 0.291408,0 0.608359,4e-5 0.94502,4e-5 0.30081,0 0.590672,-0.0244 0.918644,-0.0244 0.306407,0 0.625484,-0.0341 0.948455,-0.0341 0.309715,0 0.622112,0.01 0.940843,0.01 0.3129,0 0.63104,0.0214 0.946818,0.0214 0.315708,0 0.843474,0.0361 1.156304,0.0361 0.319154,0 0.538565,-0.009 0.848674,-0.009 0.322528,0 0.552781,0.004 0.858785,0.004 0.327997,0 0.637336,0.12474 0.938168,0.12474 0.336992,0 0.627025,-0.15175 0.918669,-0.15175 0.356468,0 0.734241,0.0306 1.003212,0.0306 0.591735,0 0.870389,-0.0578 0.870389,-0.0578 0,0 -0.0024,0.82177 -0.0024,0.82177 0,0 -0.296796,0.0329 -0.888133,0.0329 -0.269322,0 -0.626683,-0.0374 -0.983785,-0.0374 -0.291408,0 -0.791578,-0.012 -1.128239,-0.012 -0.300811,0 -0.454291,-0.0624 -0.782263,-0.0624 -0.306408,0 -0.600661,0.0782 -0.923632,0.0782 -0.309715,0 -0.569123,0.0336 -0.887855,0.0336 -0.312899,0 -0.609722,0.007 -0.9255,0.007 -0.315708,0 -0.653804,0.0372 -0.966635,0.0372 -0.319153,0 -0.687532,-0.0871 -0.997641,-0.0871 -0.322528,0 -0.635553,0.007 -0.941558,0.007 -0.327997,0 -0.613254,0.0393 -0.914086,0.0393 -0.336991,0 -0.694944,-0.0921 -0.986587,-0.0921 -0.356469,0 -0.642289,0.1062 -0.91126,0.1062 -0.591735,0 -0.969023,-0.0498 -0.969023,-0.0498"
       id="path820"
       inkscape:connector-curvature="0" />
  </g>
</svg>
