<?xml version="1.0" encoding="UTF-8" standalone="no"?>
<!-- Created with Inkscape (http://www.inkscape.org/) -->

<svg
   xmlns:dc="http://purl.org/dc/elements/1.1/"
   xmlns:cc="http://creativecommons.org/ns#"
   xmlns:rdf="http://www.w3.org/1999/02/22-rdf-syntax-ns#"
   xmlns:svg="http://www.w3.org/2000/svg"
   xmlns="http://www.w3.org/2000/svg"
   xmlns:sodipodi="http://sodipodi.sourceforge.net/DTD/sodipodi-0.dtd"
   xmlns:inkscape="http://www.inkscape.org/namespaces/inkscape"
   inkscape:export-ydpi="96"
   inkscape:export-xdpi="96"
   inkscape:export-filename="/home/emiliano/Documents/university/web/project/uniboard/misc/scrollbar-border.png"
   sodipodi:docname="menu-icon.svg"
   inkscape:version="0.92.4 (33fec40, 2019-01-16)"
   id="svg8"
   version="1.1"
   viewBox="0 0 8.0837411 8.5380206"
   height="32.269684"
   width="30.552723">
  <defs
     id="defs2" />
  <sodipodi:namedview
     id="base"
     pagecolor="#ffffff"
     bordercolor="#666666"
     borderopacity="1.0"
     inkscape:pageopacity="0.0"
     inkscape:pageshadow="2"
     inkscape:zoom="3.6203868"
     inkscape:cx="42.047127"
     inkscape:cy="11.545602"
     inkscape:document-units="px"
     inkscape:current-layer="layer1"
     showgrid="false"
     units="px"
     inkscape:window-width="1920"
     inkscape:window-height="1014"
     inkscape:window-x="0"
     inkscape:window-y="0"
     inkscape:window-maximized="1"
     fit-margin-top="0"
     fit-margin-left="0"
     fit-margin-right="0"
     fit-margin-bottom="0" />
  <metadata
     id="metadata5">
    <rdf:RDF>
      <cc:Work
         rdf:about="">
        <dc:format>image/svg+xml</dc:format>
        <dc:type
           rdf:resource="http://purl.org/dc/dcmitype/StillImage" />
        <dc:title></dc:title>
      </cc:Work>
    </rdf:RDF>
  </metadata>
  <g
     inkscape:label="Layer 1"
     inkscape:groupmode="layer"
     id="layer1"
     transform="translate(-38.939739,-101.1974)">
    <path
       style="color:#000000;font-style:normal;font-variant:normal;font-weight:normal;font-stretch:normal;font-size:medium;line-height:normal;font-family:sans-serif;font-variant-ligatures:normal;font-variant-position:normal;font-variant-caps:normal;font-variant-numeric:normal;font-variant-alternates:normal;font-feature-settings:normal;text-indent:0;text-align:start;text-decoration:none;text-decoration-line:none;text-decoration-style:solid;text-decoration-color:#000000;letter-spacing:normal;word-spacing:normal;text-transform:none;writing-mode:lr-tb;direction:ltr;text-orientation:mixed;dominant-baseline:auto;baseline-shift:baseline;text-anchor:start;white-space:normal;shape-padding:0;clip-rule:nonzero;display:inline;overflow:visible;visibility:visible;opacity:1;isolation:auto;mix-blend-mode:normal;color-interpolation:sRGB;color-interpolation-filters:linearRGB;solid-color:#000000;solid-opacity:1;vector-effect:none;fill:#000000;fill-opacity:1;fill-rule:nonzero;stroke:none;stroke-width:0.45213392px;stroke-linecap:butt;stroke-linejoin:miter;stroke-miterlimit:4;stroke-dasharray:none;stroke-dashoffset:0;stroke-opacity:1;color-rendering:auto;image-rendering:auto;shape-rendering:auto;text-rendering:auto;enable-background:accumulate"
       d="m 40.942204,101.1974 c -0.176379,0 -0.410492,0.0651 -0.638204,0.1323 -0.246225,0.0726 -0.484631,0.14779 -0.63407,0.14779 -0.60492,0 -0.709517,-0.11369 -0.709517,-0.11369 l 0.03462,0.43408 c 0,0 -0.03411,-0.0553 -0.03411,0.27544 0,0.33073 0.170016,0.76533 0.170016,0.76533 0,0 0.188072,0.0159 0.500744,0.0258 0.14342,0.005 0.312961,0.008 0.502812,0.008 0.287929,0 0.488551,-0.032 0.856279,-0.032 0.31225,0 0.634759,-0.001 0.979785,-0.001 0.324502,0 0.624622,-0.0481 0.958598,-0.0481 0.333836,0 0.383049,0.004 0.70745,0.004 0.169672,0 0.400972,0.002 0.629419,0.003 0.236622,0.001 0.470371,0.003 0.629419,0.003 0.173511,0 0.358295,0.0124 0.535368,0.0253 0.19756,0.0144 0.385232,0.0294 0.536918,0.0294 0.604919,0 0.837158,-0.108 0.837158,-0.108 0,0 0.218591,-0.20567 0.218591,-0.5364 0,-0.33073 -0.151412,-0.73381 -0.151412,-0.73381 0,0 -0.384302,-0.0506 -0.988053,-0.0506 -0.287929,0 -0.605857,0.015 -0.973584,0.015 -0.312251,0 -0.465261,0.076 -0.810286,0.076 -0.163202,0 -0.363732,0.009 -0.564824,0.0186 -0.198749,0.009 -0.398297,0.0186 -0.564307,0.0186 -0.165614,0 -0.341238,-0.0217 -0.51573,-0.0434 -0.17724,-0.0221 -0.353297,-0.0439 -0.516765,-0.0439 -0.16866,0 -0.335581,-0.0645 -0.498677,-0.13023 -0.170925,-0.0689 -0.33768,-0.13953 -0.497644,-0.13953 z m 5.955708,3.4954 c 0,0 -0.247359,0.12971 -0.85111,0.12971 -0.151276,0 -0.344176,0.0229 -0.546737,0.0444 -0.182983,0.0194 -0.37376,0.0377 -0.548287,0.0377 -0.159785,0 -0.338403,-0.035 -0.520898,-0.0692 -0.174138,-0.0327 -0.351912,-0.0646 -0.520382,-0.0646 -0.324502,0 -0.589483,0.0574 -0.923458,0.0574 -0.166266,0 -0.400277,-0.0121 -0.633553,-0.0243 -0.235105,-0.0123 -0.469685,-0.0248 -0.632519,-0.0248 -0.345417,0 -0.493035,0.0109 -0.805636,0.0109 -0.367098,0 -0.357797,0.0682 -0.645439,0.0682 -0.604919,0 -0.993221,-0.0258 -0.993221,-0.0258 l -0.283703,-0.006 c 0,0 0.0093,0.34158 0.0093,0.67231 0,0.33073 -0.06253,0.61133 -0.06253,0.61133 0,0 0.211356,0.0232 0.533818,0.0382 0.15609,0.007 0.337924,0.0124 0.534851,0.0124 0.287929,0 0.60689,-0.0165 0.974617,-0.0165 0.159785,0 0.327448,0.0475 0.499194,0.0935 0.16388,0.044 0.331242,0.0868 0.499712,0.0868 0.163518,0 0.335197,-0.0435 0.507979,-0.0868 0.170103,-0.0426 0.341263,-0.0847 0.506946,-0.0847 0.333836,0 0.639881,-0.008 0.964282,-0.008 0.345417,0 0.633594,-0.0739 0.946195,-0.0739 0.174229,0 0.359416,0.0237 0.536918,0.0486 0.196495,0.0276 0.383727,0.0568 0.534852,0.0568 0.604919,0 0.917773,-0.10594 0.917773,-0.10594 0,0 -0.146761,-0.36277 -0.146761,-0.6935 0,-0.33073 0.147794,-0.68419 0.147794,-0.68419 z m -7.93905,3.23701 0.03359,0.21239 c 0,0 5.17e-4,0.33486 5.17e-4,0.66559 0,0.33073 5.16e-4,0.7059 5.16e-4,0.7059 0,0 0.187859,-0.0266 0.500228,-0.0434 0.143281,-0.008 0.312444,-0.0134 0.502295,-0.0134 0.151838,0 0.314264,0.0772 0.487826,0.15038 0.155563,0.0656 0.320218,0.12815 0.494026,0.12815 0.159785,0 0.326692,-0.0679 0.497645,-0.13384 0.163122,-0.0629 0.330208,-0.12454 0.498677,-0.12454 0.324502,0 0.621005,-0.0625 0.954981,-0.0625 0.165614,0 0.342255,0.0106 0.517797,0.0212 0.178307,0.0108 0.355364,0.0212 0.518832,0.0212 0.345417,0 0.68527,-0.006 0.997872,-0.006 0.367098,0 0.646667,-0.0884 0.934309,-0.0884 0.60492,0 0.988571,0.0522 0.988571,0.0522 0,0 -0.0098,-0.32814 -0.0098,-0.65887 0,-0.33073 0.07338,-0.60151 0.07338,-0.60151 0,0 -0.187887,-0.009 -0.500745,-0.0145 -0.143505,-0.003 -0.313477,-0.005 -0.503328,-0.005 -0.1524,0 -0.320852,-0.001 -0.500228,-0.003 -0.159519,-0.002 -0.327654,-0.003 -0.500745,-0.003 -0.159785,0 -0.338293,-0.009 -0.520898,-0.0171 -0.174242,-0.008 -0.351912,-0.0155 -0.520382,-0.0155 -0.324502,0 -0.60912,0.0341 -0.943095,0.0341 -0.165614,0 -0.339138,-0.0222 -0.511596,-0.0444 -0.175175,-0.0225 -0.349163,-0.045 -0.512631,-0.045 -0.345417,0 -0.600004,0.10904 -0.912605,0.10904 -0.172795,0 -0.346172,-0.005 -0.51108,-0.01 -0.185437,-0.006 -0.360383,-0.0124 -0.512631,-0.0124 -0.197898,0 -0.377755,-0.0211 -0.5302,-0.0496 -0.313535,-0.0587 -0.51108,-0.14831 -0.51108,-0.14831 z"
       id="path814"
       inkscape:connector-curvature="0" />
  </g>
</svg>
