<?xml version="1.0" encoding="UTF-8" standalone="no"?>
<!-- Created with Inkscape (http://www.inkscape.org/) -->

<svg
   xmlns:dc="http://purl.org/dc/elements/1.1/"
   xmlns:cc="http://creativecommons.org/ns#"
   xmlns:rdf="http://www.w3.org/1999/02/22-rdf-syntax-ns#"
   xmlns:svg="http://www.w3.org/2000/svg"
   xmlns="http://www.w3.org/2000/svg"
   xmlns:sodipodi="http://sodipodi.sourceforge.net/DTD/sodipodi-0.dtd"
   xmlns:inkscape="http://www.inkscape.org/namespaces/inkscape"
   inkscape:export-ydpi="96"
   inkscape:export-xdpi="96"
   inkscape:export-filename="/home/emiliano/Documents/university/web/project/uniboard/misc/scrollbar-border.png"
   sodipodi:docname="options-icon.svg"
   inkscape:version="0.92.4 (33fec40, 2019-01-16)"
   id="svg8"
   version="1.1"
   viewBox="0 0 8.0837411 8.5380206"
   height="32.269684"
   width="30.552723">
  <defs
     id="defs2" />
  <sodipodi:namedview
     id="base"
     pagecolor="#ffffff"
     bordercolor="#666666"
     borderopacity="1.0"
     inkscape:pageopacity="0.0"
     inkscape:pageshadow="2"
     inkscape:zoom="14.481547"
     inkscape:cx="34.342725"
     inkscape:cy="15.07041"
     inkscape:document-units="px"
     inkscape:current-layer="layer1"
     showgrid="false"
     units="px"
     inkscape:window-width="1920"
     inkscape:window-height="1014"
     inkscape:window-x="0"
     inkscape:window-y="0"
     inkscape:window-maximized="1"
     fit-margin-top="0"
     fit-margin-left="0"
     fit-margin-right="0"
     fit-margin-bottom="0" />
  <metadata
     id="metadata5">
    <rdf:RDF>
      <cc:Work
         rdf:about="">
        <dc:format>image/svg+xml</dc:format>
        <dc:type
           rdf:resource="http://purl.org/dc/dcmitype/StillImage" />
        <dc:title></dc:title>
      </cc:Work>
    </rdf:RDF>
  </metadata>
  <g
     inkscape:label="Layer 1"
     inkscape:groupmode="layer"
     id="layer1"
     transform="translate(-38.939739,-101.1974)">
    <path
       style="opacity:1;fill:#000000;fill-opacity:1;stroke:none;stroke-width:4.22830105;stroke-linecap:round;stroke-linejoin:round;stroke-miterlimit:4;stroke-dasharray:none;stroke-opacity:1;paint-order:markers fill stroke"
       d="M 15.400391 4.3789062 C 14.737349 4.3789066 14.076263 4.5995171 13.607422 5.0683594 C 13.138581 5.5372017 12.566405 6.0498485 12.566406 6.7128906 C 12.566405 7.3759327 13.24405 8.4002983 13.712891 8.8691406 C 14.181731 9.3379829 14.805708 9.3320309 15.46875 9.3320312 C 16.131793 9.3320319 16.781158 9.072358 17.25 8.6035156 C 17.597909 8.255606 17.698862 7.3799799 17.728516 6.6796875 L 18.513672 7.0039062 C 18.513674 6.3408635 17.660248 5.5391549 17.191406 5.0703125 C 16.722565 4.6014701 16.063433 4.3789056 15.400391 4.3789062 z M 15.035156 13.044922 C 14.372114 13.044922 14.134856 13.622955 13.666016 14.091797 C 13.197175 14.560639 12.703123 15.034224 12.703125 15.697266 C 12.703123 16.360308 13.204987 17.142486 13.673828 17.611328 C 14.142669 18.08017 14.362349 18.134765 15.025391 18.134766 C 15.688433 18.134766 16.386627 17.914155 16.855469 17.445312 C 17.32431 16.97647 17.878908 16.729449 17.878906 16.066406 L 17.742188 15.708984 L 17.740234 15.677734 C 17.740236 15.014692 17.461029 14.365327 16.992188 13.896484 C 16.523346 13.427642 15.698199 13.044921 15.035156 13.044922 z M 15.238281 22.103516 C 14.575239 22.103516 14.064544 22.675689 13.595703 23.144531 C 13.126862 23.613374 12.593748 24.040083 12.59375 24.703125 C 12.593748 25.366167 13.005769 25.796783 13.474609 26.265625 C 13.94345 26.734467 14.573286 27.18164 15.236328 27.181641 C 15.899371 27.181641 16.531158 26.908296 17 26.439453 C 17.468842 25.970611 17.427736 25.047808 17.427734 24.384766 L 17.671875 24.685547 L 17.734375 24.701172 C 17.734377 24.038129 17.326264 23.369233 16.857422 22.900391 C 16.38858 22.431548 15.901324 22.103515 15.238281 22.103516 z "
       transform="matrix(0.26458333,0,0,0.26458333,38.939739,101.1974)"
       id="path886" />
  </g>
</svg>
