<?xml version="1.0" encoding="UTF-8" standalone="no"?>
<!-- Created with Inkscape (http://www.inkscape.org/) -->

<svg
   xmlns:dc="http://purl.org/dc/elements/1.1/"
   xmlns:cc="http://creativecommons.org/ns#"
   xmlns:rdf="http://www.w3.org/1999/02/22-rdf-syntax-ns#"
   xmlns:svg="http://www.w3.org/2000/svg"
   xmlns="http://www.w3.org/2000/svg"
   xmlns:sodipodi="http://sodipodi.sourceforge.net/DTD/sodipodi-0.dtd"
   xmlns:inkscape="http://www.inkscape.org/namespaces/inkscape"
   width="86.42244"
   height="86.599998"
   viewBox="0 0 22.865938 22.912917"
   version="1.1"
   id="svg8"
   inkscape:version="0.92.4 (33fec40, 2019-01-16)"
   sodipodi:docname="pencil-dashed-border.svg">
  <defs
     id="defs2" />
  <sodipodi:namedview
     id="base"
     pagecolor="#ffffff"
     bordercolor="#666666"
     borderopacity="1.0"
     inkscape:pageopacity="0.0"
     inkscape:pageshadow="2"
     inkscape:zoom="5.6568542"
     inkscape:cx="13.523582"
     inkscape:cy="41.266664"
     inkscape:document-units="px"
     inkscape:current-layer="layer1"
     showgrid="false"
     units="px"
     inkscape:window-width="1920"
     inkscape:window-height="1014"
     inkscape:window-x="0"
     inkscape:window-y="0"
     inkscape:window-maximized="1"
     fit-margin-top="0"
     fit-margin-left="0"
     fit-margin-right="0"
     fit-margin-bottom="0"
     inkscape:snap-global="true" />
  <metadata
     id="metadata5">
    <rdf:RDF>
      <cc:Work
         rdf:about="">
        <dc:format>image/svg+xml</dc:format>
        <dc:type
           rdf:resource="http://purl.org/dc/dcmitype/StillImage" />
        <dc:title></dc:title>
      </cc:Work>
    </rdf:RDF>
  </metadata>
  <g
     inkscape:label="Layer 1"
     inkscape:groupmode="layer"
     id="layer1"
     transform="translate(-34.55753,-36.560496)">
    <path
       style="color:#000000;font-style:normal;font-variant:normal;font-weight:normal;font-stretch:normal;font-size:medium;line-height:normal;font-family:sans-serif;font-variant-ligatures:normal;font-variant-position:normal;font-variant-caps:normal;font-variant-numeric:normal;font-variant-alternates:normal;font-feature-settings:normal;text-indent:0;text-align:start;text-decoration:none;text-decoration-line:none;text-decoration-style:solid;text-decoration-color:#000000;letter-spacing:normal;word-spacing:normal;text-transform:none;writing-mode:lr-tb;direction:ltr;text-orientation:mixed;dominant-baseline:auto;baseline-shift:baseline;text-anchor:start;white-space:normal;shape-padding:0;clip-rule:nonzero;display:inline;overflow:visible;visibility:visible;opacity:1;isolation:auto;mix-blend-mode:normal;color-interpolation:sRGB;color-interpolation-filters:linearRGB;solid-color:#000000;solid-opacity:1;vector-effect:none;fill:#241c1c;fill-opacity:1;fill-rule:nonzero;stroke:none;stroke-width:0.92157525px;stroke-linecap:butt;stroke-linejoin:miter;stroke-miterlimit:4;stroke-dasharray:none;stroke-dashoffset:0;stroke-opacity:1;color-rendering:auto;image-rendering:auto;shape-rendering:auto;text-rendering:auto;enable-background:accumulate"
       d="m 0.02538633,22.51586 c 0,0 0.03218758,2.386793 0.03218758,2.386793 0,0 0.2424261,1.134094 0.2424261,2.655533 0,0.809429 -0.31538141,1.679964 -0.31538141,2.60032 0,0.919824 0.03512282,1.878698 0.03512282,2.687598 0,1.521096 -0.05095084,2.602917 -0.05095084,2.602917 0,0 2.44885262,0.0536 2.44885262,0.0536 0,0 -4.959e-4,-1.053821 -4.959e-4,-2.57526 0,-0.809429 -0.057413,-1.846598 -0.057413,-2.766954 0,-0.919824 0.023647,-1.843715 0.023647,-2.652615 0,-1.521096 -0.011584,-2.648569 -0.011584,-2.648569 0,0 1.0763154,-0.0495 2.5977544,-0.0495 0.809429,0 1.8532077,0.124647 2.7735632,0.124647 0.9198243,0 1.8200131,0.17072 2.6289131,0.17072 1.521095,0 2.327971,-0.262982 2.327971,-0.262982 0,0 0.318113,-2.341265 0.318113,-2.341265 0,0 -1.053041,0.01538 -2.580927,0.01538 -0.7761589,0 -1.6872645,-0.01242 -2.6182473,-0.01242 -0.8562737,0 -1.7892394,-0.232358 -2.6454826,-0.232358 -0.9302625,0 -1.8221153,0.17409 -2.5977697,0.17409 -1.5282475,0 -2.61404666,0.0062 -2.61404666,0.0062 0,0 0.08081393,0.06473 0.08081393,0.06473 M 33.016606,22.498909 c 0,0 -0.316606,2.359574 -0.316606,2.359574 0,0 1.459907,0.31847 3.185376,0.31847 0.833906,0 1.80477,-0.237262 2.855071,-0.237262 0.907345,0 1.827274,-0.09704 2.811532,-0.09704 0.946799,0 2.02212,0.05532 2.968915,0.05532 0.984568,0 1.876483,0.02049 2.784068,0.02049 1.050444,0 1.971778,-0.06348 2.805685,-0.06348 1.724658,0 2.912809,0.05418 2.912809,0.05418 0,0 -0.0771,-2.451037 -0.0771,-2.451037 0,0 -1.06182,0.05003 -2.787289,0.05003 -0.833906,0 -1.714197,0.04269 -2.764498,0.04269 -0.907346,0 -1.890872,-0.04234 -2.87513,-0.04234 -0.946799,0 -1.986447,0.0043 -2.933243,0.0043 -0.984568,0 -2.004935,-0.19524 -2.91252,-0.19524 -1.050444,0 -1.960173,0.45901 -2.794081,0.45901 -1.724658,0 -2.858077,-0.272644 -2.858077,-0.272644 0,0 -0.03793,-0.327356 -0.03793,-0.327356 M 73.3,22.501734 c 0,0 -0.284931,2.403585 -0.284931,2.403585 0,0 1.087826,-0.04362 2.609265,-0.04362 0.809429,0 1.731806,-0.0109 2.652162,-0.0109 0.919824,0 1.881622,0.189708 2.690522,0.189708 1.521096,0 2.616588,-0.324583 2.616588,-0.324583 0,0 -0.02003,1.274357 -0.02003,2.795796 0,0.809429 0.120955,1.764507 0.120955,2.684863 0,0.919824 -0.100472,1.805181 -0.100472,2.614081 0,1.521096 0.03836,2.698618 0.03836,2.698618 0,0 2.347709,-0.05432 2.347709,-0.05432 0,0 0.04666,-0.750011 0.04666,-2.277897 0,-0.776159 -0.05685,-1.986552 -0.05685,-2.917535 0,-0.856273 0.02277,-1.791237 0.02277,-2.64748 0,-0.930262 0.139722,-1.701123 0.139722,-2.476778 0,-1.528247 -0.147955,-2.705957 -0.147955,-2.705957 0,0 -0.921871,0.08802 -2.449757,0.08802 -0.776159,0 -1.720963,-0.02493 -2.651946,-0.02493 -0.856274,0 -1.517239,0.0053 -2.373482,0.0053 -0.930263,0 -2.142664,-0.04154 -2.918319,-0.04154 -1.528247,0 -2.511612,0.03557 -2.511612,0.03557 0,0 -0.05232,0.02809 -0.05232,0.02809 M 0.03617744,55.776562 c 0,0 -0.31967771,0.810518 -0.31967771,2.535987 0,0.833906 0.25798058,1.811563 0.25798058,2.861863 0,0.907346 0.0085839,1.870283 0.0085839,2.854541 0,0.946799 0.04269322,1.963145 0.04269322,2.90994 0,0.984568 -0.06361822,1.855938 -0.06361822,2.763523 0,1.050443 0.07567725,2.117204 0.07567725,2.951112 0,1.724658 -0.0012848,2.841218 -0.0012848,2.841218 0,0 2.32949624,-0.08076 2.32949624,-0.08076 0,0 0.011873,-1.147908 0.011873,-2.873377 0,-0.833906 0.00646,-1.744758 0.00646,-2.795059 0,-0.907345 0.057355,-1.837191 0.057355,-2.821448 0,-0.9468 -0.3413208,-2.036314 -0.3413208,-2.983109 0,-0.984568 0.3576327,-1.825644 0.3576327,-2.733229 0,-1.050444 -0.1306803,-2.056723 -0.1306803,-2.890631 0,-1.724658 0.043261,-2.877349 0.043261,-2.877349 0,0 -2.39543101,-0.01201 -2.39543101,-0.01201 0,0 0.26162866,0.103202 0.26162866,0.103202 M 83.553612,55.386908 c 0,0 -0.01654,1.168167 -0.01654,2.893636 0,0.833906 0.09369,1.875493 0.09369,2.925794 0,0.907345 -0.0074,1.890528 -0.0074,2.874785 0,0.9468 0.01261,1.903709 0.01261,2.850505 0,0.984568 -0.01162,1.98402 -0.01162,2.891605 0,1.050444 -0.05091,1.915028 -0.05091,2.748936 0,1.724658 0.05226,3.02509 0.05226,3.02509 0,0 2.390015,-0.08112 2.390015,-0.08112 0,0 -0.04267,-1.189338 -0.04267,-2.914807 0,-0.833906 0.0095,-1.811898 0.0095,-2.862199 0,-0.907345 0.04141,-1.827412 0.04141,-2.811669 0,-0.9468 0.0021,-1.901509 0.0021,-2.848304 0,-0.984568 -0.08436,-2.023932 -0.08436,-2.931517 0,-1.050444 0.0362,-2.008134 0.0362,-2.842042 0,-1.724658 -0.0046,-2.847061 -0.0046,-2.847061 0,0 -2.38933,1.66e-4 -2.38933,1.66e-4 0,0 0.05112,0.05759 0.05112,0.05759 M -0.30000001,95.386534 c 0,0 0.27688156,1.199369 0.27688156,2.720808 0,0.809429 -0.04722014,1.733731 -0.04722014,2.654088 0,0.91982 -0.22966142,1.80683 -0.22966142,2.61573 0,1.52109 0.33061757,2.7872 0.33061757,2.7872 0,0 -0.0054635,2.33288 -0.0054635,2.33288 0,0 2.32509914,-0.0372 2.32509914,-0.0372 0,0 1.1974641,0.0588 2.7189031,0.0588 0.809429,0 1.6956375,-0.0876 2.6159929,-0.0876 0.9198243,0 1.8954549,0.34536 2.7043548,0.34536 1.521096,0 2.594973,-0.32817 2.594973,-0.32817 0,0 0.05096,-2.34924 0.05096,-2.34924 0,0 -1.243282,-0.0465 -2.76472,-0.0465 -0.8094295,0 -1.815216,0.005 -2.7355714,0.005 -0.9198243,0 -1.6974603,-0.0142 -2.5063602,-0.0142 -1.521096,0 -2.6093858,0.0687 -2.6093858,0.0687 0,0 -0.036262,-1.18701 -0.036262,-2.70844 0,-0.80943 0.033598,-1.6764 0.033598,-2.59676 0,-0.919819 0.011253,-1.788003 0.011253,-2.596903 0,-1.521096 -0.05225,-2.886362 -0.05225,-2.886362 0,0 -2.35318497,0.176619 -2.35318497,0.176619 0,0 -0.05535565,-0.0527 -0.05535565,-0.0527 m 83.59325502,0.01318 c 0,0 0.20821,1.17059 0.20821,2.692029 0,0.809429 -0.144684,1.80573 -0.144684,2.726087 0,0.91982 -0.04797,1.70999 -0.04797,2.51889 0,1.52109 0.0406,2.69707 0.0406,2.69707 0,0 -1.129313,0.005 -2.650752,0.005 -0.809429,0 -1.721011,0.19149 -2.641366,0.19149 -0.919825,0 -1.902386,-0.2393 -2.711286,-0.2393 -1.521096,0 -2.714478,-0.15188 -2.714478,-0.15188 0,0 0.06913,2.27724 0.06913,2.27724 0,0 1.100669,0.27929 2.622108,0.27929 0.809429,0 1.664249,-0.11109 2.584604,-0.11109 0.919825,0 1.945729,0.10015 2.754629,0.10015 1.521096,0 2.624759,-0.003 2.624759,-0.003 0,0 2.47719,0.0785 2.47719,0.0785 0,0 -0.0144,-2.40057 -0.0144,-2.40057 0,0 0.04317,-1.08351 0.04317,-2.60495 0,-0.80943 -0.104163,-1.94041 -0.104163,-2.86076 0,-0.919827 0.08694,-1.684598 0.08694,-2.493498 0,-1.521095 -0.06675,-2.699734 -0.06675,-2.699734 0,0 -2.420663,-0.01418 -2.420663,-0.01418 0,0 -0.147573,0.0051 -0.147573,0.0051 M 32.9764,106.05095 c 0,0 0.06767,2.45345 0.06767,2.45345 0,0 1.060475,-0.0544 2.785944,-0.0544 0.833906,0 1.9299,0.0447 2.980201,0.0447 0.907345,0 1.718256,-0.0404 2.702513,-0.0404 0.9468,0 2.03824,0.14392 2.985036,0.14392 0.984568,0 1.853994,-0.14875 2.761579,-0.14875 1.050444,0 2.108027,0.0422 2.941934,0.0422 1.724658,0 3.098722,0.0379 3.098722,0.0379 0,0 -0.392384,-2.48743 -0.392384,-2.48743 0,0 -0.879061,0.0549 -2.60453,0.0549 -0.833907,0 -1.986661,-0.0501 -3.036961,-0.0501 -0.907346,0 -2.125098,0.0131 -3.109355,0.0131 -0.9468,0 -1.663108,0.001 -2.609903,0.001 -0.984568,0 -1.90753,0.0368 -2.815115,0.0368 -1.050444,0 -1.915946,10e-4 -2.749853,10e-4 -1.724659,0 -2.926197,0.009 -2.926197,0.009 0,0 -0.07205,-0.0645 -0.07205,-0.0645"
       transform="matrix(0.26458334,0,0,0.26458334,34.636905,30.692947)"
       id="path328"
       inkscape:connector-curvature="0" />
  </g>
</svg>
