<?xml version="1.0" encoding="UTF-8" standalone="no"?>
<!-- Created with Inkscape (http://www.inkscape.org/) -->

<svg
   xmlns:dc="http://purl.org/dc/elements/1.1/"
   xmlns:cc="http://creativecommons.org/ns#"
   xmlns:rdf="http://www.w3.org/1999/02/22-rdf-syntax-ns#"
   xmlns:svg="http://www.w3.org/2000/svg"
   xmlns="http://www.w3.org/2000/svg"
   xmlns:sodipodi="http://sodipodi.sourceforge.net/DTD/sodipodi-0.dtd"
   xmlns:inkscape="http://www.inkscape.org/namespaces/inkscape"
   width="101"
   height="101"
   viewBox="0 0 26.722916 26.722917"
   version="1.1"
   id="svg8"
   inkscape:version="0.92.4 (33fec40, 2019-01-16)"
   sodipodi:docname="scrollbar-border.svg"
   inkscape:export-filename="/home/emiliano/Documents/university/web/project/uniboard/misc/scrollbar-border.png"
   inkscape:export-xdpi="96"
   inkscape:export-ydpi="96">
  <defs
     id="defs2" />
  <sodipodi:namedview
     id="base"
     pagecolor="#ffffff"
     bordercolor="#666666"
     borderopacity="1.0"
     inkscape:pageopacity="0.0"
     inkscape:pageshadow="2"
     inkscape:zoom="1.8101934"
     inkscape:cx="-179.64635"
     inkscape:cy="71.582593"
     inkscape:document-units="px"
     inkscape:current-layer="layer1"
     showgrid="false"
     units="px"
     inkscape:window-width="1920"
     inkscape:window-height="1014"
     inkscape:window-x="0"
     inkscape:window-y="0"
     inkscape:window-maximized="1"
     fit-margin-top="0"
     fit-margin-left="0"
     fit-margin-right="0"
     fit-margin-bottom="0" />
  <metadata
     id="metadata5">
    <rdf:RDF>
      <cc:Work
         rdf:about="">
        <dc:format>image/svg+xml</dc:format>
        <dc:type
           rdf:resource="http://purl.org/dc/dcmitype/StillImage" />
        <dc:title />
      </cc:Work>
    </rdf:RDF>
  </metadata>
  <g
     inkscape:label="Layer 1"
     inkscape:groupmode="layer"
     id="layer1"
     transform="translate(-38.939742,-83.012504)">
    <path
       style="opacity:1;fill:#4e78c5;fill-opacity:1;stroke:none;stroke-width:1.05833328;stroke-linecap:round;stroke-linejoin:round;stroke-miterlimit:4;stroke-dasharray:none;stroke-opacity:1;paint-order:markers fill stroke"
       d="m 60.594234,82.980981 c -1.354531,0.501511 -2.673986,0.941871 -3.953509,1.236837 -0.526137,0.650913 -1.59884,0.144257 -2.08416,0.864852 0.730702,-1.620525 -1.786375,-1.272102 -2.205265,-1.587922 -0.614074,-1.095026 -1.835869,1.074919 -2.554574,0.008 -1.042476,0.7508 -2.663869,0.504386 -3.712035,0.118076 -1.171234,0.382321 -2.354601,-0.290045 -3.443934,0.416878 -0.826691,0.621303 -1.184999,-0.124241 -1.646968,-0.611519 -1.553988,0.253624 -1.65803,2.397191 -1.377725,3.53923 1.042713,-0.09299 -0.234238,1.087564 0.331354,1.807095 0.241138,1.25613 0.263416,2.458746 -0.324487,3.641749 -0.300354,0.974866 0.618772,1.727492 0.283026,2.570584 0.106571,1.175213 -1.308119,2.641238 -0.145621,3.577233 0.732062,0.591413 -0.886833,1.471676 0.02649,2.261636 0.327454,1.2282 -0.362156,2.54583 -0.0076,3.85584 0.05306,1.24787 -1.132459,3.13647 0.180264,3.96443 0.602951,0.13184 0.728201,1.38458 1.552584,0.5698 0.427034,-0.6244 1.872522,-1.80327 1.891713,-0.36636 -0.08598,1.02118 1.35399,0.25903 1.507424,1.10003 1.10256,-0.21568 2.13569,-1.5448 2.897107,-2.03171 -0.76231,1.29122 1.072725,1.58143 1.489347,0.78796 0.639487,-0.18204 1.219226,-0.21992 1.045089,0.56951 1.04762,1.17219 2.298389,-1.48919 3.530166,-0.25263 0.732533,-0.26849 1.917312,-1.28569 1.961861,0.13037 0.587474,0.27065 1.247772,-0.48389 1.728185,-0.004 0.819095,-1.20681 1.527899,1.09898 2.704804,0.2351 0.682248,-0.54494 0.829513,-0.87609 1.696272,-0.40245 0.653188,-0.0824 1.692651,-0.14682 2.414312,-0.0467 1.119852,-1.09172 -0.134078,-2.8222 0.464028,-4.13944 -0.361845,-0.58557 -0.862194,-0.59265 -0.308333,-1.30177 0.453815,-1.16362 -0.591366,-1.92518 -0.05751,-2.98818 -0.574272,-1.418433 0.85512,-2.491367 0.17411,-3.867661 -0.866529,-2.118783 0.01434,-4.402421 -0.176549,-6.592438 0.0014,-0.669048 0.666122,-1.349172 -0.282444,-1.54812 0.828831,-0.308581 1.511057,-2.251674 0.141771,-2.098309 0.226546,-0.559227 0.04196,-0.994582 0.399131,-1.482612 -0.227372,-1.217869 -1.603301,-1.607762 -2.487905,-1.458771 -0.481688,-0.254605 -1.436783,0.567141 -1.527771,-0.449497 l -0.07324,-0.01479 -0.04943,-0.01 z m 1.225765,26.081099 c -0.147139,-0.1164 -0.176703,-0.13979 0,0 z m -21.78575,-21.683951 -0.03721,0.02584 z m 24.265702,3.632336 -0.04765,0.02636 z m -0.04134,1.648478 -0.03399,0.03095 z M 50.355583,108.46315 c 0.19079,-0.007 -0.0147,0.12678 0,0 z"
       id="path826"
       inkscape:connector-curvature="0" />
    <path
       style="color:#000000;font-style:normal;font-variant:normal;font-weight:normal;font-stretch:normal;font-size:medium;line-height:normal;font-family:sans-serif;font-variant-ligatures:normal;font-variant-position:normal;font-variant-caps:normal;font-variant-numeric:normal;font-variant-alternates:normal;font-feature-settings:normal;text-indent:0;text-align:start;text-decoration:none;text-decoration-line:none;text-decoration-style:solid;text-decoration-color:#000000;letter-spacing:normal;word-spacing:normal;text-transform:none;writing-mode:lr-tb;direction:ltr;text-orientation:mixed;dominant-baseline:auto;baseline-shift:baseline;text-anchor:start;white-space:normal;shape-padding:0;clip-rule:nonzero;display:inline;overflow:visible;visibility:visible;opacity:1;isolation:auto;mix-blend-mode:normal;color-interpolation:sRGB;color-interpolation-filters:linearRGB;solid-color:#000000;solid-opacity:1;vector-effect:none;fill:#483737;fill-opacity:1;fill-rule:nonzero;stroke:none;stroke-width:2.36542392px;stroke-linecap:butt;stroke-linejoin:miter;stroke-miterlimit:4;stroke-dasharray:none;stroke-dashoffset:0;stroke-opacity:1;color-rendering:auto;image-rendering:auto;shape-rendering:auto;text-rendering:auto;enable-background:accumulate"
       d="m 147.23046,314.2028 c 0,0 0.6465,3.07958 0.6465,3.07958 0,0 -0.1708,1.04972 -0.1708,2.93367 0,0.82599 -0.0924,1.60241 -0.0924,2.72886 0,0.89343 0.033,1.92515 0.033,2.98639 0,0.9217 0.0804,2.37496 0.0804,3.41002 0,0.93653 -0.0132,1.69512 -0.0132,2.71487 0,0.94638 -0.003,1.89496 -0.003,2.90547 0,0.95356 -0.009,2.3447 -0.009,3.34906 0,0.9582 -0.0703,0.98478 -0.0703,1.98378 0,0.96227 -0.0164,2.36402 -0.0164,3.35932 0,0.96556 0.3361,2.47711 0.3361,3.46935 0,0.96787 -0.24816,1.48113 -0.24816,2.47032 0,0.97025 -0.0578,1.89022 -0.0578,2.87714 0,0.97287 -0.023,1.9498 -0.023,2.93522 0,0.9745 0.006,1.95458 0.006,2.93781 0,0.97614 0.0917,2.00977 0.0917,2.99106 0,0.97808 -3.1e-4,2.00622 -3.1e-4,2.98601 0,0.97966 -0.16269,1.85101 -0.16269,2.82897 0,0.98179 0.15621,2.10021 0.15621,3.07684 0,0.98293 0.062,1.88588 0.062,2.8601 0,0.98498 -0.13495,1.89013 -0.13495,2.86259 0,0.98711 -0.12716,1.93531 -0.12716,2.90575 0,0.9897 -0.0328,2.02318 -0.0328,2.99155 0,0.99207 0.14489,1.96599 0.14489,2.9314 0,0.99533 0.14052,2.04802 0.14052,3.01034 0,0.9995 0.40873,2.16907 0.40873,3.12773 0,1.00389 -0.64555,1.25322 -0.64555,2.20635 0,1.01064 0.21143,2.77889 0.21143,3.72541 0,1.01984 -0.0947,1.61801 -0.0947,2.55463 0,1.03485 0.0607,2.15629 0.0607,3.07784 0,1.06149 -0.0662,1.85093 -0.0662,2.74456 0,1.12615 -0.0551,1.79721 -0.0551,2.6231 0,1.88472 0.0419,3.29474 0.0419,3.29474 0,0 -0.0358,3.07779 -0.0358,3.07779 0,0 1.26584,0.0528 3.15518,0.0528 0.82657,0 1.19754,-0.0695 2.32629,-0.0695 0.89434,0 2.31956,-0.45567 3.38326,-0.45567 0.92201,0 1.98044,0.5449 3.01707,0.5449 0.93742,0 1.84996,-0.14393 2.87199,-0.14393 0.94676,0 1.99041,0.15112 3.00261,0.15112 0.95407,0 1.65209,-0.18503 2.65836,-0.18503 0.95854,0 2.69794,0.63294 3.69873,0.63294 0.96261,0 1.77157,-0.32224 2.76874,-0.32224 0.9656,0 1.69294,-0.1242 2.68686,-0.1242 0.96873,0 1.8116,-0.11493 2.80345,-0.11493 0.97087,0 1.98252,-0.0141 2.97201,-0.0141 0.97285,0 2.15519,0.11645 3.14269,0.11645 0.97436,0 1.81797,0.45902 2.80338,0.45902 0.97621,0 1.866,-0.61881 2.84993,-0.61881 0.97811,0 1.5193,0.0758 2.50198,0.0758 0.97927,0 2.49391,0.0728 3.47469,0.0728 0.98114,0 2.10006,-0.004 3.07969,-0.004 0.98217,0 1.81829,0.0261 2.79589,0.0261 0.98368,0 1.89596,-0.13908 2.87192,-0.13908 0.98578,0 1.96235,-0.41283 2.93708,-0.41283 0.9875,0 2.04818,0.54648 3.02104,0.54648 0.98946,0 1.843,-0.08 2.81385,-0.08 0.99142,0 1.72728,-0.27061 2.6956,-0.27061 0.9944,0 2.28221,0.17586 3.24826,0.17586 0.99723,0 2.10911,0.16819 3.07177,0.16819 1.00113,0 1.8579,-0.27508 2.81675,-0.27508 1.00612,0 2.12913,0.28648 3.08306,0.28648 1.01267,0 1.84324,-0.079 2.79039,-0.079 1.0223,0 2.00374,-0.0834 2.94137,-0.0834 1.03661,0 1.99358,0.0485 2.91554,0.0485 1.06364,0 2.05232,-0.0529 2.94657,-0.0529 1.12866,0 2.19711,0.14748 3.0235,0.14748 1.88803,0 2.94709,-0.002 2.94709,-0.002 0,0 -0.0894,-3.08847 -0.0894,-3.08847 0,0 -0.006,-1.05024 -0.006,-2.93419 0,-0.82599 -0.20823,-1.78161 -0.20823,-2.90806 0,-0.89343 0.31662,-1.80858 0.31662,-2.86982 0,-0.9217 -0.17736,-1.97119 -0.17736,-3.00625 0,-0.93653 0.16024,-1.8578 0.16024,-2.87755 0,-0.94639 -0.064,-1.98977 -0.064,-3.00027 0,-0.95356 0.0714,-1.70734 0.0714,-2.7117 0,-0.9582 0.46377,-2.04796 0.46377,-3.04696 0,-0.96228 -0.54442,-2.3836 -0.54442,-3.3789 0,-0.96556 -0.021,-1.62289 -0.021,-2.61513 0,-0.96788 0.0359,-2.19595 0.0359,-3.18514 0,-0.97024 0.0735,-1.64159 0.0735,-2.6285 0,-0.97288 -0.016,-1.94195 -0.016,-2.92736 0,-0.9745 -0.071,-2.06957 -0.071,-3.0528 0,-0.97614 0.0129,-1.92608 0.0129,-2.90737 0,-0.97809 -0.0261,-1.93742 -0.0261,-2.91721 0,-0.97966 0.0203,-1.96816 0.0203,-2.94612 0,-0.98178 -0.003,-2.03088 -0.003,-3.00752 0,-0.98293 0.0667,-1.81117 0.0667,-2.78539 0,-0.98498 0.11068,-1.97904 0.11068,-2.9515 0,-0.98711 -0.21225,-2.02391 -0.21225,-2.99435 0,-0.98969 0.10525,-1.90753 0.10525,-2.87589 0,-0.99208 -0.12017,-2.4225 -0.12017,-3.38791 0,-0.99533 0.11534,-1.53381 0.11534,-2.49613 0,-0.9995 -0.21608,-2.10015 -0.21608,-3.05882 0,-1.00388 0.1642,-1.94178 0.1642,-2.89491 0,-1.01064 0.0534,-1.88206 0.0534,-2.82857 0,-1.01985 -0.10592,-2.29677 -0.10592,-3.23339 0,-1.03485 0.0511,-1.84808 0.0511,-2.76962 0,-1.06149 0.0695,-1.94607 0.0695,-2.8397 0,-1.12615 -0.12236,-2.16635 -0.12236,-2.99224 0,-1.88472 0.10582,-2.75515 0.10582,-2.75515 0,0 -0.16512,-3.39045 -0.16512,-3.39045 0,0 -2.94463,0.20675 -2.94463,0.20675 0,0 -1.46951,-0.002 -3.35347,-0.002 -0.82598,0 -1.26507,0.16548 -2.39152,0.16548 -0.89343,0 -1.83409,-0.0662 -2.89533,-0.0662 -0.9217,0 -2.01852,-0.13999 -3.05358,-0.13999 -0.93653,0 -1.83661,0.13702 -2.85637,0.13702 -0.94638,0 -1.95095,-0.0209 -2.96145,-0.0209 -0.95356,0 -2.06399,-0.19211 -3.06835,-0.19211 -0.9582,0 -1.81158,0.18888 -2.81058,0.18888 -0.96227,0 -2.03078,-0.54345 -3.02607,-0.54345 -0.96556,0 -1.38217,0.5437 -2.37441,0.5437 -0.96787,0 -2.17523,0.24122 -3.16442,0.24122 -0.97024,0 -2.1925,-0.25164 -3.17941,-0.25164 -0.97288,0 -2.01236,-0.14608 -2.99777,-0.14608 -0.9745,0 -1.96434,0.0874 -2.94757,0.0874 -0.97614,0 -1.86399,0.0874 -2.84528,0.0874 -0.97808,0 -1.97637,-0.0315 -2.95616,-0.0315 -0.97966,0 -2.03289,-0.33899 -3.01085,-0.33899 -0.98178,0 -1.77576,0.3358 -2.7524,0.3358 -0.98293,0 -2.14213,-0.0656 -3.11634,-0.0656 -0.98498,0 -1.95626,0.0117 -2.92872,0.0117 -0.98711,0 -1.97028,-0.0184 -2.94072,-0.0184 -0.9897,0 -1.97326,0.009 -2.94162,0.009 -0.99208,0 -1.96981,0.004 -2.93522,0.004 -0.99533,0 -1.79159,0.0655 -2.7539,0.0655 -0.9995,0 -2.09666,0.009 -3.05532,0.009 -1.00388,0 -2.52035,-0.21972 -3.47348,-0.21972 -1.01064,0 -1.45735,0.22465 -2.40386,0.22465 -1.01985,0 -2.00675,-0.0151 -2.94337,-0.0151 -1.03485,0 -2.09313,-0.53193 -3.01468,-0.53193 -1.06149,0 -1.90008,0.52747 -2.79371,0.52747 -1.12616,0 -2.17924,0.0161 -3.00513,0.0161 -1.88472,0 -2.99199,-0.12828 -2.99199,-0.12828 0,0 -2.93286,0.13431 -2.93286,0.13431 0,0 -0.5401,-0.37607 -0.5401,-0.37607 m 3.55211,3.36511 c 0,0 1.05082,-0.0128 2.93477,-0.0128 0.82598,0 1.68838,-0.0981 2.81482,-0.0981 0.89344,0 1.97754,0.12473 3.03877,0.12473 0.9217,0 1.81147,-0.0825 2.84652,-0.0825 0.93654,0 2.1663,0.064 3.18606,0.064 0.94638,0 1.71335,-0.11507 2.72385,-0.11507 0.95356,0 1.92646,0.0485 2.93082,0.0485 0.9582,0 1.938,-0.0306 2.937,-0.0306 0.96227,0 2.04363,0.0924 3.03892,0.0924 0.96556,0 1.75007,-0.11152 2.74231,-0.11152 0.96788,0 2.04136,0.0478 3.03055,0.0478 0.97025,0 2.03103,0.53458 3.01795,0.53458 0.97287,0 1.75018,-0.92121 2.73559,-0.92121 0.9745,0 2.07731,-0.0788 3.06054,-0.0788 0.97614,0 2.02599,0.90011 3.00728,0.90011 0.97808,0 1.79389,-0.43831 2.77368,-0.43831 0.97966,0 2.12019,0.11129 3.09815,0.11129 0.98179,0 1.96974,0.24062 2.94638,0.24062 0.98293,0 2.12684,-0.2834 3.10106,-0.2834 0.98498,0 1.79263,-0.002 2.76509,-0.002 0.98711,0 1.49349,-0.10595 2.46394,-0.10595 0.98969,0 2.56044,0.18099 3.5288,0.18099 0.99208,0 1.85782,-0.0505 2.82323,-0.0505 0.99533,0 2.04784,0.0314 3.01015,0.0314 0.9995,0 1.98011,0.0607 2.93877,0.0607 1.00388,0 1.77896,-0.17463 2.73209,-0.17463 1.01065,0 2.1154,0.0694 3.06191,0.0694 1.01985,0 2.00055,-0.004 2.93716,-0.004 1.03485,0 1.9402,-0.0619 2.86174,-0.0619 1.06149,0 2.1182,0.21635 3.01182,0.21635 1.12616,0 1.58359,-0.26309 2.40948,-0.26309 1.88473,0 3.56087,0.57339 3.56087,0.57339 0,0 -0.28159,0.52634 -0.28159,2.41029 0,0.82598 0.20184,2.33877 0.20184,3.46521 0,0.89344 -0.068,0.87546 -0.068,1.9367 0,0.9217 0.0568,2.43495 0.0568,3.47001 0,0.93653 -0.003,2.10397 -0.003,3.12373 0,0.94638 -0.0785,1.64721 -0.0785,2.65771 0,0.95356 -0.0131,1.95179 -0.0131,2.95615 0,0.9582 0.0885,2.19463 0.0885,3.19363 0,0.96227 -0.0663,1.64523 -0.0663,2.64052 0,0.96556 0.0148,1.79009 0.0148,2.78233 0,0.96788 -0.006,2.08987 -0.006,3.07906 0,0.97024 -0.005,2.01668 -0.005,3.00359 0,0.97288 -0.0259,1.94452 -0.0259,2.92993 0,0.97451 0.0879,2.02488 0.0879,3.00812 0,0.97613 -0.23018,1.89285 -0.23018,2.87414 0,0.97808 0.23339,2.05089 0.23339,3.03068 0,0.97966 0.0834,1.99221 0.0834,2.97017 0,0.98179 -0.0802,1.90249 -0.0802,2.87912 0,0.98294 -0.0682,1.89614 -0.0682,2.87035 0,0.98498 0.0822,2.06977 0.0822,3.04222 0,0.98712 0.006,1.91843 0.006,2.88888 0,0.98969 -0.55107,1.90007 -0.55107,2.86844 0,0.99207 0.52831,2.06079 0.52831,3.0262 0,0.99533 0.47169,2.00542 0.47169,2.96774 0,0.9995 -0.37474,2.00432 -0.37474,2.96298 0,1.00389 -0.1643,1.85476 -0.1643,2.8079 0,1.01064 0.0705,2.05651 0.0705,3.00302 0,1.01985 0.0123,2.00499 0.0123,2.94161 0,1.03485 -0.10877,1.94323 -0.10877,2.86477 0,1.06149 0.032,1.57503 0.032,2.46866 0,1.12615 0.0631,2.63979 0.0631,3.46568 0,1.88473 -0.0946,2.52593 -0.0946,2.52593 0,0 -0.95039,0.51219 -2.83434,0.51219 -0.82598,0 -1.87894,-0.22859 -3.00539,-0.22859 -0.89343,0 -1.8739,0.0624 -2.93514,0.0624 -0.9217,0 -1.90218,-0.003 -2.93724,-0.003 -0.93653,0 -1.92661,0.009 -2.94636,0.009 -0.94638,0 -2.01127,-0.014 -3.02177,-0.014 -0.95357,0 -1.90134,0.0192 -2.90571,0.0192 -0.9582,0 -1.78122,0.0717 -2.78022,0.0717 -0.96227,0 -2.05025,-0.17871 -3.04555,-0.17871 -0.96556,0 -1.93775,0.0656 -2.92999,0.0656 -0.96787,0 -1.98988,0.0293 -2.97907,0.0293 -0.97024,0 -1.92632,-0.0189 -2.91323,-0.0189 -0.97288,0 -1.40273,0.0896 -2.38815,0.0896 -0.9745,0 -2.4137,-2.7e-4 -3.39693,-2.7e-4 -0.97614,0 -1.94018,0.0121 -2.92147,0.0121 -0.97808,0 -2.04931,-0.0744 -3.0291,-0.0744 -0.97966,0 -1.97782,-0.13871 -2.95578,-0.13871 -0.98179,0 -1.408,0.22881 -2.38463,0.22881 -0.98294,0 -2.43127,0.009 -3.40548,0.009 -0.98499,0 -1.94884,0.0653 -2.9213,0.0653 -0.98711,0 -1.98484,-0.10378 -2.95528,-0.10378 -0.98969,0 -2.05204,-0.0911 -3.02041,-0.0911 -0.99207,0 -2.00379,-0.02 -2.9692,-0.02 -0.99533,0 -1.84365,0.11343 -2.80596,0.11343 -0.9995,0 -1.99238,0.0143 -2.95104,0.0143 -1.00389,0 -1.87896,0.05 -2.83209,0.05 -1.01064,0 -1.62992,-0.0302 -2.57643,-0.0302 -1.01985,0 -2.46174,0.43419 -3.39836,0.43419 -1.03485,0 -2.01253,-0.46884 -2.93408,-0.46884 -1.06149,0 -2.12358,-0.25996 -3.01721,-0.25996 -1.12615,0 -2.04884,0.2576 -2.87473,0.2576 -1.88472,0 -2.90942,-0.002 -2.90942,-0.002 0,0 -0.11008,-1.14022 -0.11008,-3.02417 0,-0.82599 0.0976,-1.72261 0.0976,-2.84906 0,-0.89343 0.005,-1.8794 0.005,-2.94064 0,-0.92169 -0.0724,-2.42823 -0.0724,-3.46329 0,-0.93653 0.0578,-1.37447 0.0578,-2.39422 0,-0.94639 -0.0776,-1.99704 -0.0776,-3.00754 0,-0.95356 0.19372,-1.85109 0.19372,-2.85546 0,-0.9582 -0.12119,-1.90753 -0.12119,-2.90653 0,-0.96227 0.0911,-1.96193 0.0911,-2.95722 0,-0.96556 -0.16034,-2.0397 -0.16034,-3.03194 0,-0.96788 0.13002,-1.84225 0.13002,-2.83143 0,-0.97025 -0.0509,-1.96193 -0.0509,-2.94884 0,-0.97288 -0.01,-1.92128 -0.01,-2.90669 0,-0.97451 -0.085,-2.0908 -0.085,-3.07403 0,-0.97614 0.0316,-1.94458 0.0316,-2.92587 0,-0.97809 0.0816,-1.88532 0.0816,-2.86511 0,-0.97966 -0.0852,-2.09291 -0.0852,-3.07087 0,-0.98179 0.0915,-1.84232 0.0915,-2.81895 0,-0.98294 -0.023,-1.95385 -0.023,-2.92806 0,-0.98499 0.43353,-1.66835 0.43353,-2.6408 0,-0.98712 -0.43072,-2.25424 -0.43072,-3.22468 0,-0.9897 0.45861,-1.97641 0.45861,-2.94477 0,-0.99208 -0.56603,-2.04998 -0.56603,-3.01539 0,-0.99533 0.0183,-1.97068 0.0183,-2.933 0,-0.9995 0.0733,-1.91641 0.0733,-2.87507 0,-1.00389 0.0152,-1.51429 0.0152,-2.46742 0,-1.01064 0.004,-2.45633 0.004,-3.40284 0,-1.01985 -0.0784,-2.18879 -0.0784,-3.12541 0,-1.03485 -0.0167,-1.9136 -0.0167,-2.83514 0,-1.06149 0.0789,-1.82457 0.0789,-2.7182 0,-1.12615 -0.098,-2.34207 -0.098,-3.16796 0,-1.88472 0.0218,-2.90837 0.0218,-2.90837 0,0 -0.45225,-0.0175 -0.45225,-0.0175"
       transform="scale(0.26458333)"
       id="path16"
       inkscape:connector-curvature="0" />
  </g>
</svg>
