<svg width="5.94" height="20.628" version="1.1" viewBox="0 0 1.5716 5.4579" xmlns="http://www.w3.org/2000/svg">
 <g transform="translate(-31.8 -105.73)">
  <path d="m31.907 105.87c0.15142-0.064 0.48822-0.27592 0.53508-4e-3 -0.06366 0.15264-0.25385 0.31986-0.38229 0.37122-0.15853-0.17068 0.18663-0.12311 0.28382-0.21067 0.13867-0.0833 0.42641-0.30387 0.47679-0.018-0.08035 0.18846-0.32512 0.23134-0.4647 0.37166-0.11684 0.11292-0.12727-0.0525-0.17819-0.11196 0.1932-0.0563 0.38255-0.13512 0.55092-0.25343 0.14276-0.12287 0.48723-0.27822 0.46644 0.0373-0.10627 0.1468-0.29656 0.21742-0.43813 0.33214-0.14717 0.0916-0.29131 0.2043-0.4415 0.28147-0.06915-0.11329-0.18514-0.23056 0.0092-0.2565 0.22329-0.11769 0.42188-0.27902 0.65422-0.38008 0.21634 0.066 0.14664 0.32054-0.04219 0.36831-0.26672 0.20306-0.54672 0.38842-0.83591 0.55786 0.10257-0.10146-0.20755-0.19746 0.0082-0.21237 0.30817-0.12489 0.564-0.34817 0.87067-0.47607 0.04041 0.10771 0.22462 0.24095 0.01071 0.2862-0.27357 0.19236-0.54388 0.38937-0.8197 0.57852 0.0782-0.0996-0.18459-0.19746 0.01644-0.21346 0.28974-0.12327 0.54637-0.3186 0.85056-0.40871 0.20792 0.13701 0.06931 0.34302-0.11276 0.41317-0.21772 0.15745-0.43717 0.31357-0.67058 0.44722 0.06041-0.12722-0.16517-0.2133 0.04805-0.22985 0.21079-0.0808 0.39653-0.21474 0.60821-0.29357 0.18458 0.0979 0.09722 0.28386-0.06369 0.3419-0.166 0.12108-0.34608 0.22256-0.50432 0.35428 0.08069-0.12442-0.22564-0.19378 0.02226-0.22331 0.19922-0.0566 0.44276-0.28409 0.60856-0.24293 0.10256 0.095 0.13483 0.23633-0.0394 0.26362-0.22025 0.14373-0.44593 0.27893-0.67312 0.41134 0.11738-0.0935-0.08787-0.21771-0.06912-0.20893 0.28493-0.10908 0.52414-0.30913 0.80924-0.41784 0.21618 0.0612 0.13625 0.31524-0.04137 0.36648-0.24613 0.19978-0.51134 0.3771-0.79512 0.51894 0.10726-0.11976-0.24558-0.179-0.0154-0.23031 0.28279-0.16266 0.55103-0.35738 0.8611-0.46671 0.11044 0.11985 0.15403 0.28994-0.04706 0.33781-0.25337 0.17715-0.52906 0.31882-0.80555 0.45578 0.10005-0.13337-0.16926-0.19908-0.11834-0.1907 0.35034-0.19753 0.69224-0.41628 1.0713-0.55635 0.23316 5e-3 0.21611 0.31138 0.01804 0.37025-0.32549 0.29259-0.72345 0.48883-1.053 0.77621 0.03667-0.12551-0.1886-0.18788 0.01345-0.23052 0.33246-0.19442 0.62169-0.47179 0.99615-0.5875 0.2365 0.0767 0.06855 0.34192-0.09064 0.39903-0.20726 0.1652-0.42042 0.32349-0.64421 0.46571 0.08683-0.095-0.17285-0.1815 0.01511-0.19816 0.29536-0.15973 0.54233-0.45566 0.89637-0.47413 0.26324 0.094-0.01031 0.38941-0.16168 0.4616-0.23475 0.18413-0.48226 0.35252-0.74332 0.4972-0.17609-0.13393-0.10102-0.26884 0.07525-0.34688 0.17457-0.13701 0.34748-0.28103 0.54979-0.37595 0.25201 0.0301 0.1523 0.33754-0.03024 0.39563-0.23448 0.19502-0.4866 0.37163-0.76253 0.50312 0.09364-0.13631-0.21095-0.1947-0.01102-0.22715 0.28517-0.14587 0.53647-0.36388 0.85106-0.44752 0.29567 0.0394 0.05059 0.3761-0.11447 0.43146-0.2244 0.17484-0.46524 0.32682-0.69643 0.49223 0.12337-0.1237-0.24816-0.18769-0.0097-0.23733 0.19324-0.0835 0.39367-0.37116 0.58816-0.31588 0.24158 0.1587-0.04577 0.3029-0.17796 0.40849-0.17322 0.13184-0.35237 0.2556-0.53159 0.37906 0.05298-0.12027-0.19106-0.18664 2e-3 -0.21624 0.30461-0.15209 0.54497-0.42272 0.87412-0.52483 0.28389 0.0123 0.0798 0.37854-0.0874 0.43341-0.18415 0.15268-0.36779 0.3063-0.56069 0.44795 0.09303-0.13126-0.24736-0.16888 0.0032-0.23056 0.20588-0.0885 0.41957-0.43189 0.64336-0.30883 0.1667 0.16101-0.06636 0.31114-0.185 0.40391-0.18786 0.15391-0.38493 0.29597-0.57974 0.44082 0.09172-0.12465-0.205-0.19291 0.01346-0.2207 0.33394-0.14366 0.58279-0.44264 0.92588-0.56197 0.28012 0.0334 0.06163 0.38347-0.11602 0.41734-0.19008 0.13101-0.37072 0.27786-0.57708 0.38342 0.10916-0.15048-0.25526-0.16923-0.02359-0.23937 0.22533-0.14595 0.41697-0.35351 0.67942-0.43487 0.31146 0.042 0.04974 0.41707-0.12134 0.48703-0.2321 0.194-0.4543 0.40203-0.70928 0.56653 0.0679-0.12733-0.23426-0.18819-0.01418-0.25229 0.21889-0.14869 0.39765-0.35551 0.64042-0.46854 0.22786 0.0935 0.0983 0.33888-0.07118 0.40838-0.22357 0.18892-0.45986 0.36357-0.71175 0.51302 0.09076-0.1413-0.22018-0.19397-0.0073-0.22929 0.30751-0.158 0.54904-0.41986 0.86466-0.56412 0.14555 0.0921 0.18102 0.26465 6.34e-4 0.3407-0.28226 0.26898-0.611 0.48856-0.92987 0.70553-0.0069-0.0594-0.09284-0.17381-0.07855-0.1644 0.2761-0.14811 0.49492-0.37896 0.74796-0.55945 0.10015-0.18382 0.40681-0.21661 0.36031 0.053-0.16737 0.18545-0.38684 0.32236-0.57467 0.49046-0.0875 0.0586-0.26235 0.23573-0.29202 0.22636 0.01699-0.0984-0.16176-0.15746 0.0163-0.17886 0.30503-0.15553 0.53636-0.43473 0.85745-0.55821 0.28785 7e-3 0.09795 0.38438-0.07148 0.4452-0.15453 0.13918-0.3098 0.27822-0.47745 0.40164 0.09409-0.12732-0.25551-0.15713-0.04459-0.22284 0.22654-0.0679 0.40438-0.41413 0.64847-0.31464 0.2115 0.20164-0.17084 0.33307-0.28136 0.46443-0.08515 0.0272-0.25824 0.30256-0.23942 0.12734-0.2042-0.10835 0.14413-0.11845 0.20873-0.21115 0.14605-0.0807 0.29075-0.22062 0.39894-0.0376 0.13792 0.11822-0.16071 0.17684-0.23048 0.2462 0.04243-0.0977-0.07398-0.1785-0.11714-0.1916 0.12866-0.10138 0.4694-0.16153 0.45408 0.0647-0.09643 0.17894-0.09272-0.12483-0.23513-7e-3 -0.06638 0.078 0.29858 0.11282 0.0957 0.18446-0.31924 0.0926-0.15408-0.47876 0.04054-0.23864 0.15939 0.17524-0.23347 0.22163-0.35398 0.24347-0.26795-0.0921 0.02494-0.36972 0.18073-0.41003 0.17417-0.055 0.33939 0.20752 0.10504 0.25622-0.20912 0.076-0.36423 0.2704-0.59485 0.28488-0.34766-9e-3 -0.11406-0.40503 0.07078-0.4932 0.14374-0.1291 0.36434-0.35873 0.51684-0.12384-0.11053 0.16204-0.31533 0.24971-0.4752 0.36347-0.1514 0.14943-0.5064 0.0508-0.326-0.18403 0.16158-0.1961 0.39122-0.31939 0.57054-0.49816 0.1074-0.13311 0.13555 0.14839 0.26735 0.062-0.32873 0.24713-0.62851 0.58343-1.0544 0.65087-0.29909-0.0419-0.13714-0.3832 0.04219-0.47794 0.22402-0.21199 0.48027-0.38592 0.7321-0.56237 0.20541-0.045 0.26253 0.25391 0.06213 0.30978-0.27943 0.27987-0.59128 0.56114-0.98296 0.66333-0.27705 1e-3 -0.21338-0.33873-0.01615-0.423 0.27815-0.26048 0.63219-0.42757 0.90906-0.68612 0.18244-0.0657 0.3367 0.20709 0.10652 0.26418-0.25038 0.18792-0.4994 0.38731-0.78451 0.51876-0.17991 0.12191-0.4393-0.0843-0.24179-0.24482 0.21831-0.22801 0.5048-0.37395 0.74244-0.57924 0.1416-0.17071 0.45051 0.0973 0.19941 0.20045-0.23311 0.15298-0.42151 0.41034-0.7149 0.44515-0.2909-0.0412-0.04943-0.37205 0.10842-0.43578 0.22884-0.19021 0.46197-0.37518 0.69515-0.56002 0.05529 0.0443 0.10288 0.1955 0.19749 0.11503-0.26988 0.16371-0.49267 0.41191-0.80218 0.50471-0.27108 9.8e-4 -0.12792-0.34013 0.05001-0.38203 0.20095-0.14819 0.41008-0.28516 0.62471-0.41266-0.05597 0.16837 0.2873 0.13363 0.0842 0.22557-0.29927 0.23708-0.6134 0.49373-0.99483 0.57283-0.28307-0.0324-0.15708-0.34463 0.02394-0.42828 0.19771-0.17054 0.42374-0.30357 0.62848-0.46496 0.12309 0.0911 0.26073 0.17198 0.03719 0.24741-0.18777 0.13395-0.37113 0.31931-0.61202 0.33728-0.26899-0.0479-0.05191-0.36453 0.08726-0.44655 0.1864-0.14705 0.3799-0.28728 0.56508-0.43676-0.07993 0.16777 0.29728 0.13782 0.06805 0.22114-0.29694 0.20741-0.58206 0.4908-0.96018 0.52471-0.25825-0.0698-0.0496-0.38037 0.113-0.44474 0.1991-0.16438 0.42045-0.30072 0.62915-0.44984 0.17887-0.0448 0.26954 0.243 0.06092 0.29015-0.21085 0.14954-0.42177 0.35161-0.69744 0.35143-0.24616-0.14395 0.06979-0.38399 0.2099-0.47849 0.21132-0.16025 0.43315-0.30604 0.65784-0.44673-0.07989 0.16506 0.28292 0.15875 0.06509 0.22562-0.28329 0.18017-0.56191 0.39674-0.90166 0.45375-0.30034-0.0354-0.0676-0.39029 0.11239-0.43721 0.22587-0.16329 0.46078-0.31345 0.69471-0.46479 0.1247 0.0722 0.26523 0.19619 0.05335 0.27093-0.20854 0.1702-0.4253 0.33954-0.67946 0.43589-0.19132-0.0852-0.1538-0.30392 0.03487-0.363 0.25819-0.19527 0.5388-0.35852 0.79723-0.55345-0.06817 0.16 0.26402 0.14445 0.06393 0.19936-0.29371 0.16682-0.55376 0.41385-0.89282 0.48497-0.29892-0.0202-0.17802-0.36944 0.02592-0.44527 0.2114-0.17303 0.44382-0.3175 0.67309-0.46514-0.02687 0.11271 0.17575 0.19423 0.14167 0.1893-0.32644 0.23233-0.66162 0.45826-1.0188 0.63865-0.23073 0.10872-0.39823-0.18541-0.17746-0.32013 0.29811-0.32501 0.7038-0.51693 1.0462-0.78729 0.13502-0.132 0.40003 0.13302 0.14417 0.17739-0.36273 0.15966-0.67496 0.44795-1.0776 0.51384-0.2882-0.0547-0.0057-0.37113 0.15625-0.41123 0.2632-0.16709 0.53449-0.32288 0.81996-0.44894 0.16412 0.0706 0.17517 0.26956-0.01576 0.31015-0.29793 0.19059-0.59822 0.41123-0.95121 0.4793-0.28866-0.063-0.01855-0.39718 0.156-0.43787 0.23769-0.16207 0.46902-0.3354 0.72383-0.47043 0.1164 0.0809 0.22308 0.21704 0.0219 0.26778-0.24589 0.1604-0.51174 0.34408-0.81451 0.34857-0.25255-0.10309 0.04214-0.36495 0.1872-0.42656 0.19501-0.13011 0.39704-0.25351 0.61764-0.33549 0.20356 0.0951 0.15048 0.27615-0.04462 0.33481-0.20904 0.12676-0.44042 0.24548-0.6896 0.25071-0.24279-0.0752-0.0376-0.36451 0.11645-0.42667 0.17365-0.13294 0.36204-0.24497 0.55249-0.35185 0.15585 0.0765 0.20788 0.29015-0.0067 0.32456-0.22847 0.14403-0.48377 0.28885-0.76366 0.26776-0.24826-0.16723 0.09322-0.38962 0.24149-0.48128 0.20181-0.0962 0.40152-0.35582 0.61325-0.33396 0.27388 0.16917-0.15436 0.26458-0.2794 0.37311-0.20924 0.11135-0.43413 0.25735-0.68219 0.21601-0.20978-0.15922 0.06957-0.37052 0.20278-0.4709 0.23688-0.18889 0.48955-0.36904 0.77096-0.48261 0.23825-9e-3 0.17063 0.31667-0.02572 0.34623-0.3017 0.18482-0.60557 0.42214-0.97506 0.43831-0.28043-0.0974 0.0018-0.39626 0.16203-0.46751 0.25454-0.18368 0.53006-0.33545 0.78923-0.51219 0.16036 0.0639 0.23996 0.25781 0.01761 0.30229-0.2418 0.15932-0.49206 0.33056-0.78517 0.37322-0.22122-0.13076 0.01973-0.34026 0.15827-0.42 0.22278-0.15596 0.45364-0.30038 0.69126-0.43264 0.12067 0.0615 0.24627 0.21743 0.03711 0.26359-0.2802 0.19048-0.58877 0.39304-0.94173 0.38254-0.27184-0.10624 1.2e-5 -0.40312 0.17962-0.44397 0.15011-0.11981 0.36634-0.28176 0.47372-0.0361-0.01386 0.13402-0.26862 0.19002-0.39162 0.26985-0.15315 0.0583-0.33751 0.11858-0.49466 0.0511-0.17978-0.16763 0.06838-0.37506 0.19792-0.4856 0.0564-0.0826 0.228-0.13107 0.17002 0.0293 0.01227 0.0856 0.17891 0.0413 0.03778 0.0886-0.13464 0.12911-0.37188 0.0683-0.39117-0.12289z" fill="#fc0" style="paint-order:markers fill stroke"/>
 </g>
</svg>
