<svg width="70" height="70" enable-background="new" version="1.1" viewBox="0 0 18.521 18.521" xmlns="http://www.w3.org/2000/svg">
 <g transform="translate(-86.546 -86.481)">
  <g fill="#7c6f91" fill-opacity=".88235">
   <path transform="matrix(.26458 0 0 .26458 86.647 86.448)" d="m-0.38086 0.12305v67.441c1.3595 0.77756 3.0985 1.0476 4.1875 0.21094 0.75222 0.23806 1.7122-0.09553 2.7324-1.6992-0.019322-0.33705-0.064473-0.63802-0.12109-0.92188 0.67508-0.97771 1.0548-2.0827 1.127-3.1289 0.079608-0.12202 0.15856-0.24533 0.22852-0.37695 2.1953-1.6338 2.93-3.2087 2.752-4.4902 1.7791-2.404 0.8957-4.1507-1.0254-5.0215 0.29676-0.72446 0.4171-1.4366 0.3125-2.0918 0.43117-0.8268 0.61841-1.6788 0.49219-2.5312 0.41432-0.48403 0.76404-0.97447 0.99219-1.4648 1.8591-1.7447 2.7427-3.7688 1.5391-5.8652 0.37938-1.4479-0.19859-2.8578-2.3164-4.0059-0.13707 0.01321-0.30976 0.0429-0.45312 0.05859-0.22738-0.40183-0.48916-0.74789-0.78125-1.0391 0.88303-0.94112 1.6534-1.9314 2.2715-2.916 0.91797-2.488 0.53359-3.9662-0.55664-4.7051 0.02956-0.22682 0.03577-0.44953 0.03125-0.66992 2.7508-3.3015 0.59959-5.7019-2.4688-6.0742 0.88694-1.2679 1.543-2.5205 1.8594-3.5762 0.94845-0.94015 1.8491-1.8197 2.6172-2.4277 1.0759-3.7854-0.25518-5.4872-2.4316-5.8027 0.4695-1.6026-0.038451-2.6003-1.0469-3.0762 1.4017-2.0261 1.4688-3.5837 0.79297-4.5801 0.28301-0.44419 0.49898-0.85979 0.64844-1.2461z"/>
   <path transform="matrix(.26458 0 0 .26458 86.647 86.448)" d="m10.416 0.12305c-1.9224 1.3225-3.396 3.3956-4.293 5.4805 0.2409 0.26203 0.53922 0.47662 0.87109 0.65234-0.03685 0.3384-0.034735 0.67617 0.0058594 1.002-0.20799 0.26194-0.41662 0.52228-0.60547 0.80078-1.4134 1.7191-1.3294 4.4072 0.16016 5.6406-0.18055 0.17845-0.36316 0.35662-0.53125 0.53516-2.0261 2.0025-2.8674 5.7581-0.30664 7.7129 0.23467 0.07334 0.46898 0.13205 0.70508 0.18164-1.4192 1.8821-2.6291 4.8297-0.29297 6.4316 0.12185 0.07397 0.24667 0.13337 0.37109 0.19531-0.19721 0.40394-0.35965 0.83134-0.46875 1.2949-0.64901 1.7302-0.12237 3.9822 1.2793 5.0586-1.6284 1.0887-3.4326 1.9763-4.1445 3.8867-0.71365 1.7072-0.21322 3.9112 1.0645 5.1953-0.00629 0.01946-0.015381 0.03703-0.021484 0.05664-0.92054 1.5091-0.62788 3.3082 0.40625 4.4688-0.38554 1.2113-0.29057 2.4546 0.72461 3.5801 0.43863 0.35121 0.91485 0.59866 1.4141 0.76562-0.050789 0.10473-0.10723 0.2086-0.15234 0.31445-1.6565 1.0045-3.2849 2.0354-3.6797 3.9961-0.032384 0.7972 0.2122 1.477 0.62305 2.0371 0.096592 0.52792 0.31913 1.0531 0.70898 1.5625 0.83132 0.68144 1.7778 0.90354 2.75 0.84766-0.014884 0.07699-0.022984 0.15416-0.03125 0.23047-1.0211 0.90951-1.8557 2.0227-2.3848 3.2422-1.233 1.9171-0.25751 3.9835 1.4395 4.8301h4.1016c0.08326-0.02652 0.16821-0.05043 0.25-0.08008 0.02367 0.02868 0.05287 0.05269 0.07813 0.08008h6.1934c0.53047-0.44322 0.98335-0.97933 1.3301-1.5664 0.09213-0.0333 0.18365-0.06978 0.27344-0.11133 2.0458 0.04264 4.305-1.458 4.082-3.6152-0.11066-1.7011-1.2724-3.0179-2.7227-3.5371 0.74947-1.4968 0.99518-3.0913-0.03516-4.582-0.03552-0.03728-0.07316-0.06799-0.10938-0.10352 0.90069-1.144 1.7476-2.3172 2.3516-3.627 0.26952-0.92394 0.18574-1.821-0.13867-2.623 0.45788-1.0384 0.63012-2.1522 0.27539-3.209 1.0328-1.0284 2.0623-2.0576 2.9883-3.1543 2.1477-1.9933 3.0368-5.3928 0.66016-7.4688-0.08442-1.311-0.71887-2.5098-2.0371-2.9746 0.67742-0.9755 0.84217-2.213 0.60742-3.4004 0.84437-0.87855 1.613-1.8188 2.1738-2.9277 0.69406-1.1794 1.1237-2.6438 1.1445-4.0723 1.1053-1.2801 1.9364-2.723 1.9961-4.5605 0.54893-3.1763-1.9334-6.7473-5.3867-6.2637-0.91764 0.16961-1.8031 0.42332-2.6641 0.73828 0.0216-0.10664 0.05281-0.21563 0.06445-0.32031 1.6098-1.6378 1.4703-4.3554-0.02148-5.9844 0.22402-1.3986-0.275-2.8033-1.1875-3.873-0.14887-1.0041-0.54967-1.9731-1.1582-2.7637z"/>
   <path transform="matrix(.26458 0 0 .26458 86.647 86.448)" d="m18.689 0.12305c-1.7802 1.3522-3.5083 2.764-5.0176 4.4258-2.4315 2.2225-4.744 6.9971-0.74805 8.9316 1.6407 0.2646 3.1876-0.0602 4.6211-0.73242 0.03903 0.02436 0.07515 0.05133 0.11523 0.07422-0.08828 0.63431 0.0127 1.2666 0.25195 1.8359-0.53878 1.0847-0.66326 2.1654-0.03711 3.1621 0.14126 0.42306 0.3929 0.8322 0.76758 1.2188-0.17106 0.44709-0.2892 0.92329-0.33789 1.4375 0.16471 1.0078 0.56194 1.6482 1.0977 2.041-1.353 2.5616-0.01687 5.9584 3.8164 4.8125 0.09958 0.39741 0.30674 0.80583 0.63672 1.2246-0.08741 0.19215-0.16027 0.38353-0.21289 0.57422-0.0025 0.0033-0.0053 0.0065-0.0078 0.0098-0.02228 0.07255-0.02608 0.13279-0.04492 0.20312-0.01518 0.01052-0.0337 0.02474-0.04883 0.03516-2.3899 0.54101-3.7498 2.9397-3.207 4.5742 0.02019 0.24419 0.06532 0.49856 0.13672 0.76367 0.10354 0.15122 0.21718 0.26871 0.32812 0.39648-0.01063 0.0075-0.02259 0.01795-0.0332 0.02539-2.3036 1.5498-6.7334 4.8279-3.5918 7.6523 0.19185 0.07954 0.38728 0.15055 0.58398 0.21289 0.08529 0.10473 0.16976 0.20988 0.2832 0.29883-0.20101 0.23139-0.41339 0.45817-0.60352 0.69336-1.3561 1.8584-0.8822 3.0401 0.35938 3.668-0.16804 0.24924-0.30488 0.50439-0.41992 0.76172-0.46554 0.46207-0.87925 0.99011-1.2109 1.623-0.148 1.6573 0.45981 2.5414 1.4492 2.9258-0.26968 0.38461-0.46052 0.80712-0.56055 1.2754-0.12501 0.21253-0.24206 0.43353-0.34766 0.66211-0.03523 0.49345 0.02272 0.88989 0.13086 1.2285-0.26127 0.76835-0.30551 1.6137-0.01367 2.5488 0.03365 0.01993 0.06962 0.03351 0.10352 0.05273 0.14874 0.3112 0.39431 0.6138 0.71875 0.9082-0.38448 0.82579-0.50002 1.6944-0.28516 2.3906-0.1433 0.1111-0.31364 0.24116-0.45117 0.3457-0.0752 0.11152-0.11763 0.2138-0.18164 0.32226-1.4811 0.91631-2.5046 2.1747-2.1934 4.0039 2.8013 3.0051 7.2674 1.7267 10.584 1.2617 0.95623 0.28841 2.0349 0.28964 3.0078-0.20508 1.8341 0.35738 2.2741-1.5351 2.3047-2.6992 1.4312-0.70374 2.4496-1.9666 2.2871-3.7598-0.40838-1.5015-1.3956-2.3125-2.6035-2.627 0.18628-0.539 0.302-1.1 0.3125-1.6934 0.01137-0.01728 0.02388-0.03341 0.03516-0.05078 0.98983-1.5532 1.0015-2.7205 0.44726-3.543 0.35111-0.71987 0.41701-1.497 0.24219-2.2227 0.93336-0.86126 1.7369-1.8382 2.248-3.0723 0.52574-1.4881 0.26482-2.6692-0.41797-3.5 0.7318-0.97734 1.1384-2.0949 0.93359-3.4395 0.64408-1.2638 0.74818-2.6222-0.17383-3.9551 0.15687-1.0894-0.24178-2.1024-1.5391-2.7891 0.2477-0.24722 0.5071-0.48517 0.75195-0.73438 1.4637-1.4626 1.524-3.0463 0.83398-4.2871 0.41342-0.62368 0.74405-1.2774 0.92383-1.9082 1.6605-1.943 2.8102-4.1573 1.4727-6.3145 0.95532-1.7634 1.2849-3.6662-0.0059-5.4609-0.75482-0.23472-1.4968-0.2737-2.2285-0.1875-0.15719-0.95685-0.65825-1.8063-1.4414-2.336 0.58231-1.2371 0.76392-2.5511 0.14062-3.957-0.10244-0.15526-0.2116-0.27778-0.31836-0.41016 0.14689-0.33739 0.26534-0.68821 0.34766-1.0566 0.033488-2.4145-1.4166-3.2727-3.1621-3.2266-0.25028-0.71284-0.74292-1.3578-1.6016-1.8711-0.079944-0.02767-0.15869-0.040687-0.23828-0.064453 0.27267-0.23606 0.54511-0.47355 0.82617-0.69922 0.60447-0.48132 1.0103-1.1029 1.2422-1.7793z"/>
   <path transform="matrix(.26458 0 0 .26458 86.647 86.448)" d="m28.475 0.12305c-0.25881 0.22813-0.51065 0.5121-0.74805 0.875-2.9242 2.3804-2.3549 4.0106-0.73633 4.791-0.21236 0.38459-0.45791 0.81759-0.62109 1.127-0.12998 3.352 1.7898 4.2568 4.127 3.8262-0.0095 0.03089-0.02249 0.06066-0.03125 0.0918-0.61113 1.8351-0.7445 3.1242-0.57031 4.0117-0.80293 2.4973-0.1756 5.1487 1.7793 5.6602-0.13942 1.2357 0.11114 2.4269 0.65625 3.3789 0.0814 0.36268 0.28102 0.62352 0.57031 0.79102 0.02047 0.02249 0.04355 0.04246 0.06445 0.06445-1.9286 2.3426-2.1305 4.0911-1.3828 5.2012-0.35849 0.57367-0.61171 1.1462-0.71094 1.6934-0.52812 1.5731-0.558 2.7322-0.24805 3.5605-0.07895 0.09008-0.20177 0.20702-0.27148 0.29102-0.14157 0.41115-0.23961 0.7826-0.32031 1.1367-0.09372 0.09368-0.20557 0.19584-0.29102 0.28516-0.2439 3.5602 1.3431 4.3197 3.5449 3.7324-0.01577 0.0124-0.02921 0.02277-0.04492 0.03516-0.79627 0.3632-1.5348 0.94326-2.1387 1.7852-0.40355 0.35836-0.81834 0.72582-1.1055 1.002-0.07061 1.1037 0.10982 1.9234 0.45508 2.5195-0.95962 1.2943-1.4586 2.8109-1.3828 4.1094-0.45821 0.7459-0.53743 1.4254-0.33203 2.0117-1.2416 0.77276-2.1935 1.8332-2.3555 3.1543-1.3951 4.2467 0.66425 5.5115 3.2754 5.293-1.4856 1.9616-0.60246 3.2468 1.043 3.8203-0.1255 0.23601-0.20402 0.47966-0.23047 0.72852-0.35651 0.75845-0.52631 1.4357-0.375 1.8105 0.03344 0.17589 0.14034 0.34985 0.33203 0.51367 0.31814 1.4815 3.262 2.1057 5.1738 1.5625 0.14902 0.03832 0.29733 0.05917 0.44922 0.07227 0.44598 0.31942 0.92349 0.53825 1.3633 0.54102 0.3116 0.27357 0.59316 0.43662 0.84961 0.52344h0.77734c0.25182-0.10802 0.44383-0.34038 0.60156-0.62305 0.76288 0.19258 1.5391 0.15631 2.1523-0.31445 0.2325-0.07416 0.44495-0.12777 0.71484-0.23828 3.9689-4.1216-0.18508-5.9116-3.4277-5.084-0.10724-0.39482-0.28429-0.72233-0.50977-0.99414-0.0019-0.01681-0.0019-0.03404-0.0039-0.05078 0.1927-0.44004 0.35635-0.88934 0.44922-1.3438 4.5101-3.1589 2.6132-6.8392-0.76367-7.8262 0.13514-0.36342 0.23739-0.72719 0.3125-1.0918 0.50828-0.44812 0.95348-0.98498 1.3008-1.625 3.2818-2.4201 3.4813-4.4949 2.2539-5.8184 4.3074-1.7386 8.3595-4.6304 10.615-8.4004 0.05433-0.05055 0.12253-0.10613 0.17578-0.15625 0.0015-0.04591-9.37e-4 -0.08391 0-0.12891 0.50558-0.89156 0.91751-1.8278 1.2012-2.8105-1.8824-2.3732-4.3745-2.6317-6.9805-1.8516-0.48676-1.2002-1.2687-1.903-2.2363-2.2383-0.09406-0.89712-0.57521-1.5647-1.3145-2.0117 1.5797-2.3078 1.3932-3.9604 0.31055-4.9453 2.0789-3.639 1.0935-5.5966-0.99023-6.1973 0.94193-2.6485-0.44976-4.4794-2.5996-5.2227-0.01001-0.13516-0.0197-0.27068-0.04492-0.4043 0.51443-1.6114 0.5715-3.2495 0.11328-4.4688 1.3752-3.0477 0.84099-5.0891-0.56641-6.1543z"/>
   <path transform="matrix(.26458 0 0 .26458 86.647 86.448)" d="m39.158 0.12305c-0.59985 0.67987-1.0426 1.4861-1.2246 2.377 0.01267 0.04909 0.03204 0.094651 0.04687 0.14258-0.92376 1.1868-1.5406 2.7024-0.97461 4.0215 0.07728 0.22556 0.16996 0.43381 0.28906 0.61133-0.28874 0.46042-0.54064 0.92547-0.71875 1.3457-0.64727 1.4416-0.30008 2.6255 0.51172 3.4336-1.3349 1.5441-2.6184 3.2066-2.9258 5.1602-0.23333 0.45744-0.44132 0.92901-0.61914 1.4219-0.31029 2.2248 1.9059 3.3972 3.7637 3.0391-0.02187 0.63002 0.10349 1.2611 0.44141 1.873 0.0831 0.06389 0.16912 0.11252 0.25391 0.16602 0.5548 1.098 1.6171 1.8073 3.0996 1.3848 0.33276-0.22389 0.65512-0.46772 0.98242-0.70312-0.0099 0.22148 0.01807 0.44442 0.07031 0.66797-0.03115 0.49036 0.02871 0.97466 0.18945 1.4102-0.03266 0.13703-0.06813 0.27398-0.09375 0.41211 0.23751 1.3215 1.1178 2.0801 2.2051 2.4258-0.0712 0.85534 0.27989 1.6691 0.88477 2.291-0.50446 0.66666-0.84003 1.4352-0.83789 2.3828-0.07032 1.1986 0.34171 2.0189 1.002 2.5488-0.15562 0.2094-0.29215 0.43265-0.40039 0.67383-0.30279 0.42484-0.52657 0.88578-0.67188 1.3633-0.77861 0.37163-1.5262 0.80353-2.2539 1.2656-0.48348 0.18672-0.97114 0.35999-1.4707 0.49805-1.2225 0.26366-1.9283 1.2223-2.1426 2.2949-1.1861 1.4569-1.5876 3.6043 0.11719 4.6309-0.07044 0.57847 5.93e-4 1.1512 0.24414 1.6523-0.54647 0.41268-1.095 0.82151-1.6367 1.2402-1.7292 1.5147-3.9976 4.0305-2.7832 6.4902 0.75996 1.2059 1.9394 1.4512 3.1738 1.2695-0.01791 0.02368-0.03951 0.04407-0.05664 0.06836-1.2581 1.0994-1.5584 3.2104-0.63672 4.4922 0.03062 0.08407 0.05423 0.17039 0.0918 0.25195 0.9106 1.3444 2.3737 1.9162 3.9199 2.0254-0.84322 1.8825 0.53095 4.0306 2.4805 4.2871 0.2026 0.44306 0.50647 0.80577 0.88476 1.084h5.1934c0.32002-0.19509 0.53599-0.52492 0.62109-0.90234 0.55754-0.40596 0.97494-0.98879 1.1914-1.625 0.99305-1.667 1.1192-3.7819-0.81055-4.8809 0.79528-1.3602 0.6805-3.2422-0.26562-4.4238 0.64821-0.849 1.2314-1.7995 1.5898-2.8027 2.2066-1.3339 4.4114-2.6562 5.4043-5.2168 0.79341-3.233-3.1833-5.2631-5.8047-4.2422-0.14049 0.08461-0.28317 0.16748-0.42383 0.25195-0.02253-0.19759-0.06254-0.39424-0.125-0.58984 0.72477-0.46936 1.4155-0.98869 2.0117-1.6504 0.53276-0.47784 1.0107-1.1083 1.3809-1.7969 2.9751-1.2428 5.6605-3.4808 6.2891-6.8398 0.782-2.358-1.2022-3.5276-3.1875-3.6152-0.09976-0.92449-0.48454-1.7483-1.2656-2.2266 0.37093-1.3767-0.05165-2.9514-1.1191-3.8945 0.59874-1.8094 0.64606-3.7516-1.1621-4.6602-0.40289-0.15782-0.80591-0.25893-1.209-0.3125-0.1565-0.67552-0.48751-1.2684-0.98828-1.668 1.1954-1.8498 1.9957-4.7289 0.28906-6.3555 0.19416-0.45752 0.37944-0.91915 0.54297-1.3926 1.0354-1.9305-0.047242-4.2542-1.9316-4.8613 0.31358-0.82946 0.50762-1.6944 0.49024-2.6133-0.49323-1.9549-2.3612-2.805-4.2344-2.7695 0.03119-0.31238 0.02517-0.61874-0.0332-0.91211z"/>
   <path transform="matrix(.26458 0 0 .26458 86.647 86.448)" d="m46.557 0.12305c0.1103 0.51017 0.32981 1.019 0.65039 1.4258 0.09676 0.094293 0.21861 0.16173 0.33984 0.23047-0.44973 0.81477-0.87432 1.6068-1.3086 2.2305-0.011 1.7457 0.67006 2.6325 1.6582 2.9531-0.0062 0.86444 0.41022 1.4307 1.043 1.7578 0.07406 0.46371 0.23319 0.8529 0.46289 1.1719 0.34395 0.78502 1.0883 1.3394 2.3652 1.4043-1.6049 0.60006-1.4417 2.204-0.45312 3.5664-0.83072 0.54038-1.472 1.2491-1.1504 2.7402-0.38906 1.9702 0.37565 2.9011 1.4844 3.166-0.22902 0.24477-0.49203 0.54129-0.70508 0.75195-1.5763 2.0526-0.92004 3.4994 0.48633 4.1621-1.3565 1.8386-2.058 3.7353-0.48242 5.377 1.1258 0.56143 2.1632 0.60113 3.1406 0.34375 0.14499 0.02121 0.29189 0.0378 0.44726 0.04297-3.2618 1.6738-5.0832 5.1953-8.3906 6.7656-1.8098 1.7669-1.1055 3.4612 0.41211 4.3965 0.02956 0.05262 0.04404 0.10107 0.07617 0.1543 0.51228 0.58812 1.04 0.91577 1.5742 1.0586-0.94965 0.63857-1.7122 1.344-2.0859 2.1934-0.66143 0.91311-0.89723 1.8744-0.27734 2.8438-0.41978 1.008-0.18932 2.0678 0.45508 2.8984-0.26046 0.3407-0.48605 0.708-0.65234 1.1016-1.4702 0.81343-1.2176 1.3587-0.41992 1.9258-0.05925 1.5065 0.53989 2.8562 1.8281 3.1465-0.23637 0.32293-0.46043 0.65245-0.66211 0.98828-0.29338 2.3345 0.96171 3.6025 2.6426 3.9941 0.01496 0.30976 0.10754 0.62157 0.32227 0.93359 0.017 0.04643 0.04554 0.08643 0.06641 0.13086-0.16188 0.14362-0.31271 0.28878-0.44141 0.43555-0.01291 0.12046-0.0025 0.22138-0.0059 0.33398-0.252 0.37196-0.4355 0.8258-0.51172 1.4102 1.4589 2.907 6.5996 4.4866 9.2422 1.8535 0.87295-0.65943 1.3278-1.3328 1.4844-1.9648 0.29405-0.06282 0.58828-0.12535 0.83789-0.15234 3.0187-0.77919 9.2064-3.0232 6.4668-6.9629-1.477-1.0767-2.3329-0.64831-2.6074 0.17188-1.5558 0.1201-3.6137 1.2861-5.291 2.0449 1.6236-1.3247 3.0113-2.827 2.875-5.0879-0.16854-0.39747-0.38424-0.70612-0.625-0.96289 2.0429-1.9274 4.3587-4.1644 2.0234-6.7461 0.40733-0.66327 0.71002-1.381 0.8418-2.1895-0.01892-1.0519-0.31773-1.6958-0.7832-2.0781 1.0694-1.0088 2.0866-2.0775 3.0508-3.1875 0.75624-0.6318 1.435-1.276 1.8828-1.8672 0.03196-0.33288 0.03119-0.6343 0.0039-0.90625 0.43674-2.8179-2.2544-3.6926-4.8477-3.2891 0.02265-0.39075 0.0018-0.79577-0.08398-1.2188-0.10335-0.19743-0.21821-0.37306-0.34375-0.53125 1.1243-1.0882 2.103-2.3163 2.8457-3.5215 1.1508-0.74247 1.686-2.0525 1.7422-3.332 0.9007-0.84706 1.7193-1.7831 2.4395-2.7812v-6.9414c-1.7559-0.44523-4.1508-0.02561-5.4414 0.89844-0.2945 0.10008-0.57927 0.21056-0.85938 0.32812-0.28022-0.53352-0.70764-0.95701-1.252-1.2051 0.14209-1.202-0.31677-2.1969-1.8359-2.5469 0.08198-0.17548 0.18504-0.37502 0.25195-0.53125 1.6483-0.99883 2.1868-3.3083 1.7539-4.9824 1.9865-2.8982 4.056-6.7959-0.33394-7.6152-0.45484-0.0094747-0.90149 0.023067-1.3398 0.087891-0.26543-0.34558-0.54655-0.61568-0.83984-0.81836zm8.8281 30.768c-0.0098 0.01176-0.0196 0.02338-0.0293 0.03516-0.14104 0.10779-0.30075 0.22266-0.42969 0.32422-0.08108 0.03647-0.157 0.08042-0.23633 0.11914 0.09602-0.09425 0.19454-0.189 0.29102-0.2832 0.13585-0.0614 0.27054-0.12459 0.4043-0.19531z"/>
   <path transform="matrix(.26458 0 0 .26458 86.647 86.448)" d="m60.902 0.12305c-2.2006 1.0958-4.2867 3.1914-4.2832 5.6465h2e-3c1.2284 1.8834 2.8905 1.8881 4.4297 1.1035-0.03024 0.19544-0.05784 0.39062-0.05859 0.57812-4.6721 1.0456-4.5009 7.533-0.65234 8.7266 0.0038 0.03976 0.0061 0.07919 0.01367 0.11914-2.377 2.6346-4.8703 5.3016-5.9824 8.1504-1.6312 5.3236 1.05 6.9566 4.8301 6.5371-0.0076 0.09373-0.02747 0.18759-0.03125 0.28125-4.2895 5.2134-1.0028 7.8852 3.1816 7.8184-0.20863 0.45943-0.16969 0.90076 0.04688 1.3066-2.8537 1.8137-2.0984 5.728 1.0234 6.7363-0.13569 0.29231-0.23306 0.56702-0.29883 0.82812-3.3747 0.54208-4.3758 4.746-3.2109 7.3535-0.48299 0.33676-0.72752 0.76459-0.57422 1.293-0.43204 0.63262-0.70239 1.524-0.69922 2.7617 1.89e-4 0.11036 0.01575 0.20195 0.01953 0.30664-0.09487 0.16857-0.19388 0.33259-0.2793 0.51367 0.1595 0.42467 0.35394 0.78226 0.5625 1.1016 0.32202 0.89942 0.8839 1.4283 1.584 1.6719 0.18142 0.15988 0.41964 0.29748 0.70508 0.41211-1.7279 0.98253-2.213 2.3413-1.9492 3.541-0.65538 1.6082-0.34153 2.6502 0.50781 3.2129h8.2578c0.5151-0.18882 1.0417-0.45372 1.5723-0.79883v-49.799c-0.06316-0.01627-0.12624-0.03958-0.18945-0.05273 0.06795-0.10151 0.12334-0.20654 0.18945-0.30859v-19.041z"/>
  </g>
  <path transform="matrix(.26458 0 0 .26458 86.647 86.448)" d="m55.525 65.822c-0.30343 0.0048-0.47129 0.01588-0.45703 0.03516 0.16403 0.36473-13.289 0.17931-13.178 0.17969-3.4e-4 0.02646-7.1926 0.06741-7.1719 0.03906 0.0836-0.28309-13.373 0.20351-13.326 0.22656-0.0601-0.26532-14.438-0.08097-14.439-0.11914 0.37832 0.12586-4.1004 0.07786-6.9395 0v2.3984c2.3287 0.19162 5.4875 0.41341 5.4043 0.07813-0.18777 0.4119 6.783-1.6994 7.1426-0.37891-0.18369-0.17613 7.3627 0.33965 7.3164 0.32227 0.1245 1.5954 8.4389 0.45797 8.3496 0.33789-0.24934-0.03931 8.3768-1.4158 8.4688-1.2832 0.16403 0.15383 13.618 1.1191 13.693 1.7578-0.51813-0.34243 11.007-0.90025 10.969-0.89844-0.01102-0.0369 5.3631 0.64326 8.2617 0.86328v-3.5547c-1.6688 0.049-3.1495 0.11567-3.2871 0.09375 0.11145 0.13758-8.6826-0.13135-10.807-0.09766z" color="#000000" color-rendering="auto" dominant-baseline="auto" enable-background="accumulate" fill="#1c2423" image-rendering="auto" shape-rendering="auto" solid-color="#000000" style="font-feature-settings:normal;font-variant-alternates:normal;font-variant-caps:normal;font-variant-ligatures:normal;font-variant-numeric:normal;font-variant-position:normal;isolation:auto;mix-blend-mode:normal;shape-padding:0;text-decoration-color:#000000;text-decoration-line:none;text-decoration-style:solid;text-indent:0;text-orientation:mixed;text-transform:none;white-space:normal"/>
 </g>
</svg>
