<svg width="49.922" height="3.9332" version="1.1" viewBox="0 0 13.209 1.0407" xmlns="http://www.w3.org/2000/svg">
 <g transform="translate(-38.94 -108.69)">
  <path d="m39.09 109.74-0.12466-0.9685s0.35191 0.0158 0.94325 0.0158c0.26932 0 0.58838-0.0295 0.94548-0.0295 0.29141 0 0.60836 4e-5 0.94502 4e-5 0.30081 0 0.59067-0.0244 0.91864-0.0244 0.30641 0 0.62548-0.0341 0.94846-0.0341 0.30972 0 0.62211 0.01 0.94084 0.01 0.3129 0 0.63104 0.0214 0.94682 0.0214 0.31571 0 0.84347 0.0361 1.1563 0.0361 0.31915 0 0.53856-9e-3 0.84867-9e-3 0.32253 0 0.55278 4e-3 0.85878 4e-3 0.328 0 0.63734 0.12474 0.93817 0.12474 0.33699 0 0.62702-0.15175 0.91867-0.15175 0.35647 0 0.73424 0.0306 1.0032 0.0306 0.59174 0 0.87039-0.0578 0.87039-0.0578s-0.0024 0.82177-0.0024 0.82177-0.2968 0.0329-0.88813 0.0329c-0.26932 0-0.62668-0.0374-0.98378-0.0374-0.29141 0-0.79158-0.012-1.1282-0.012-0.30081 0-0.45429-0.0624-0.78226-0.0624-0.30641 0-0.60066 0.0782-0.92363 0.0782-0.30972 0-0.56912 0.0336-0.88786 0.0336-0.3129 0-0.60972 7e-3 -0.9255 7e-3 -0.31571 0-0.6538 0.0372-0.96664 0.0372-0.31915 0-0.68753-0.0871-0.99764-0.0871-0.32253 0-0.63555 7e-3 -0.94156 7e-3 -0.328 0-0.61325 0.0393-0.91409 0.0393-0.33699 0-0.69494-0.0921-0.98659-0.0921-0.35647 0-0.64229 0.1062-0.91126 0.1062-0.59174 0-0.96902-0.0498-0.96902-0.0498" style="color-rendering:auto;color:#000000;dominant-baseline:auto;font-feature-settings:normal;font-variant-alternates:normal;font-variant-caps:normal;font-variant-ligatures:normal;font-variant-numeric:normal;font-variant-position:normal;image-rendering:auto;isolation:auto;mix-blend-mode:normal;shape-padding:0;shape-rendering:auto;solid-color:#000000;text-decoration-color:#000000;text-decoration-line:none;text-decoration-style:solid;text-indent:0;text-orientation:mixed;text-transform:none;white-space:normal"/>
 </g>
</svg>
