<svg width="417.3" height="82.524" version="1.1" viewBox="0 0 110.41 21.835" xmlns="http://www.w3.org/2000/svg">
  <defs>
    <style type="text/css"><![CDATA[
      .hand-fill {
        stroke-dasharray: 325 325;
        stroke-dashoffset: 325;
        animation: brush 6s infinite;
      }
      @keyframes brush {
        from {
          stroke-dashoffset: 325;
        }
        to {
          stroke-dashoffset: 0;
        }
      }
    ]]></style>
  </defs>
  <g transform="translate(-39.157 -97.251)">
  <path class="hand-fill" d="m115.72 115.42c-0.57985 0.62385-1.3426 1.7056-1.6659 1.8814 0.12398-0.5289 1.0846-1.5905 0.87659-1.735-0.65614 0.51241-1.3319 0.99406-2.0872 1.3506 0.38524-0.59007 0.90802-1.1154 1.1928-1.754-0.46349 0.21189-1.3911 1.0326-1.3763 1.1264 0.36902-0.36807 1.3497-1.2853 1.1346-1.4533-0.48133 0.13223-1.5911 1.0247-1.6778 0.91179 0.34275-0.40029 0.92752-0.86717 1.1428-1.2392-0.58614 0.22242-1.4317 0.74177-1.756 0.92835 0.29108-0.33478 1.8747-1.2716 1.5034-1.3261-0.62512 0.14812-1.8149 0.20872-2.1568 0.17542 0.38421-0.068 1.5639-0.38731 1.4112-0.5877-0.57349 0.18062-1.8106 0.34213-1.9926 0.13023 0.44883-0.30915 1.7829-0.61673 1.6968-0.8053-0.54089-0.0256-2.2792 0.0115-0.90163-0.0915 0.39002-0.0748 2.2877-0.0915 1.0022-0.26204-0.41856 0.0259-1.9155-0.36676-1.5834-0.49362 0.45334-9e-3 1.6296 0.21236 1.7281-0.0223-0.67882-0.20407-1.7295-0.66608-2.2084-0.7375 0.52713 0.21334 2.0454 0.26412 2.0552 0.0671-0.52803-0.30785-1.5699-0.73856-1.8088-0.91861 0.47943-0.0105 2.419 0.13382 1.1106-0.16607-0.4202-0.0561-1.6916-0.79083-0.50598-0.43414 0.53021 0.13403 2.1275 0.25078 0.8461-0.18806-0.50269-0.34161-1.7519-0.78515-1.9059-0.82941 0.70779 0.10767 2.0321 0.57366 2.3796 0.51415-0.60931-0.57911-1.3585-0.97677-2.029-1.4674 0.45393 0.15899 1.4833 1.233 1.6372 0.63533-0.20884-0.37142-1.2844-1.4959-0.37966-0.70664 0.36245 0.35292 0.95633 0.83534 0.31003 0.12614-0.30629-0.40703-1.2601-1.2207-1.1335-1.4273 0.6612 0.58524 1.4399 1.0733 2.2195 1.4828-0.70051-0.52671-1.014-1.4117-1.6096-2.0439 0.57087 0.37634 1.8656 1.3199 1.9857 1.4135-0.29248-0.42361-0.96172-1.74-0.88654-1.6981 0.24042 0.26155 1.3951 1.8372 0.9813 0.67622-0.1969-0.44416-0.44317-1.534-0.30378-1.6662 0.5026 0.54718 0.90025 1.4246 1.2895 1.8913 0.0872-0.97029-0.67906-1.7541-0.66895-2.7089 0.44496 0.64854 0.58443 1.8548 1.0739 2.1095 0.33137-0.76364 0.45921-1.6757 0.29779-2.474-0.0173 0.7898 0.19851 2.2664 0.385 2.6657 0.17471-0.74174 0.47723-1.4876 0.48053-2.2571-0.071 0.40933-0.1625 1.9307 0.21528 1.6778 0.25473-0.36513 0.4926-1.7139 0.51962-1.5269 0.0101 0.46884-0.1206 1.5992 0.0826 1.7394 0.23769-0.66036 0.83169-1.5966 0.96653-2.0567-0.12203 0.67864-0.42828 1.5281-0.22632 2.1496 0.31252-0.27549 1.2236-1.3602 1.1317-1.2944-0.25122 0.49504-0.56371 1.414-0.32123 1.8245 0.43286-0.38055 1.2813-1.5549 1.2873-1.4528-0.26279 0.48345-0.31094 2.1108 0.1817 0.88985 0.36096-0.60264 1.157-1.8467 1.6014-1.8259-0.93391 0.52336-0.14326 0.61987 0.516 0.52571 0.53563 0.0681 2.1352 0.0389 0.813 0.15321-0.61639 0.14016-2.3242 0.25559-2.2326 0.38472h2.355c-0.68185 0.31908-1.9837 0.57395-2.3921 0.75328 0.68033-0.0104 1.3609-2e-3 2.0413-5e-3 -1.0041 0.26121-2.16 0.22876-2.9915 0.89435 0.69736 0.10361 2.4899-0.5633 2.489-0.26693-0.44581 0.27679-1.5111 0.56607-1.5577 0.99786 0.47047 0.14373 1.9373-0.21707 1.6331-0.10898-0.53285 0.0724-2.3323 0.53195-0.93545 0.60198 0.42965 0.10689 2.1887-0.19649 0.91903 0.22978-0.3762 0.10649-2.2071 0.40063-0.98469 0.55258 0.54272 0.0872 2.3757-0.10589 0.89137 0.1501-0.38436 0.0528-2.1615 0.36269-0.85184 0.47654 0.47437 0.0261 2.3966-0.0807 1.0632 0.19041-0.89991 0.041-2.2822 0.53727-0.63807 0.63712 0.52951-0.0187 1.9804 0.17604 0.72259 0.28752-0.58752 0.18324-1.9014 0.17888-2.0544 0.30477 0.6467 0.18443 2.2293-0.0498 2.3027 0.3162-0.54547 0.0557-1.7092-4e-3 -0.53844 0.28587 0.4233 0.0873 1.6202 0.30454 0.55542 0.27114-0.48855 0.11317-1.4855-0.19197-1.6621-0.13303 0.38316 0.20877 1.5207 0.34205 1.4246 0.63376-0.45392-0.0923-1.6324-0.46836-1.6966-0.32409 0.37096 0.55372 1.9466 0.64149 1.8602 1.0047-0.72574 0.0589-2.2306-0.11939-2.456-0.18391 0.99178 0.41346 2.2935 0.49254 2.8564 1.548-0.72913-0.0741-1.6143-0.45617-2.4375-0.53399-0.49119-0.0544-0.84275-0.34338-0.16058-0.0441 0.60121 0.51155 1.6644 1.2419 2.0855 1.5014-1.0453-0.0381-2.088-0.0822-3.1039-0.36795-0.71742-0.27147 1.237 0.42734 1.5403 0.70211 0.42747 0.31918 1.9832 0.501 1.7427 0.66351-0.57949-0.0708-1.5944-0.16618-1.9098-0.27115 0.53427 0.28707 1.5188 0.8482 1.8281 0.79266-0.51799-0.18866-2.291-1.2327-1.7581 0.0372-0.16418 0.59322 0.82963 0.8992 0.64241 0.25256-0.72188-0.28809-1.9314-1.9163-2.1776-1.7624-0.0455 0.53441 0.9127 2.3535 0.11668 1.087-0.35305-0.24002-1.0484-1.6773-0.74395-0.48813 0.12143 0.36804 0.30089 1.948-0.13709 0.83606-0.15258-0.43478-0.3229-2.1894-0.66881-0.91611-0.29919 0.44549-0.54499 2.4826-0.37558 0.98588 0.0187-0.49691 0.0303-1.6574-0.21365-0.57044-0.0561 0.48731-0.32869 2.1447-0.26751 0.76701-0.12887-0.44165 0.0262-1.9023-0.35659-0.74477-0.25457 0.45798-0.44066 2.1993-0.28487 0.85112 0.10417-0.56432 0.0618-2.1025-0.46744-0.78494-0.17345 0.50358-0.75531 1.1385-0.92961 1.4333 0.38681-0.73608 0.41909-1.6211 1.0154-2.2681 0.0609-8.8e-4 0.0172-0.0335 0.0288-0.0524zm30.267-16.577c1.0607 0.07422 3.3602-0.27461 1.0757 0.42094-2.1133 0.62606 3.2323 0.38058 0.16263 0.75743-2.6544 0.26308 2.9366 0.24435-0.30199 0.59941-2.3649 0.11005-0.24787 0.36645 0.56056 0.45682-1.3197 0.0611-2.3311 0.61738-0.26945 0.59522 2.7643-0.0487-2.909 0.56903 0.18994 0.81948 3.3313 0.0387-3.7518 0.4132-0.50549 0.6547 3.2908-0.18305-3.6678 0.7415-0.0179 0.76566 3.7299 0.28933-4.5543 0.18221-0.78585 0.45733 1.6521-0.0852 1.8604 0.0695 0.088 0.35476-1.907 0.70595 3.4573 0.21453 0.19337 0.7749-2.6699 0.47519-0.3429 0.6843 1.0076 0.41408-1.5092 0.41294-4.0668 1.2006-1.0035 0.85994 1.9297-0.25908 1.7389 0.2727 7e-3 0.39343-3.2849 0.64712 3.9805-0.184 0.18426 0.91494-1.6982 0.74506 3.9703-0.33769 0.62978 0.57476-2.9417 0.83435 2.5965-0.30553 0.0862 0.52759-2.1323 0.69022-0.37093 0.75905 0.77844 0.58624-0.98607 0.3348-3.5464 1.0253-0.92738 0.88684 3.2404-0.28969-3.2878 1.2525-0.0147 0.94879 2.1281 0.0751-3.4134 1.3264-0.0214 1.0132 2.859-0.025-4.6113 0.83014-1.0276 0.77169 2.1515-0.14387 1.2129 0.42205-0.28238 0.76517-0.88598 8e-3 4.437-0.78582 1.1829 0.37241-2.7241 0.94777 3.9733-0.64166 0.48019 0.68054-1.6952 0.87132-0.92286 0.47605 0.33827 0.25394-0.92303 0.86355-2.3117 1.6145-0.24293 0.72617 1.7103-0.36816-2.8441 2.3469-1.283-0.0995-2.1274 1.645-0.29595-0.54823-0.94392-0.66826-0.92697 1.4078-0.40446-1.3156-1.0689 0.94104-0.25701 1.2564-0.48808-2.6628-0.72808 0.25052 0.23593 1.0224-0.38052-3.1907-0.91496-0.12353-0.70992 3.4437 1.2632-3.0971-0.89448-0.22931-1.42 1.8977 0.35205 5e-3 0.0507-0.6597-0.75144 0.73795-1.7493 2.0951-0.78518 0.21549 0.26704-1.6921-2.4136 2.3834-0.77414-0.56843-1.0843 1.0014-2.1137 1.7298-0.61552 0.11184 0.52454-1.3137-2.5604 1.5211-0.71441-0.20155-1.3366 0.20104-3.1372 0.85063-1.0305-0.61133 0.43209-0.24412-2.202 1.8122-0.26576-0.0208 1.9565-2.0268-2.5602 1.2674-0.13969-0.9015 1.4978-0.82613-2.7304 0.14091-0.45243-0.47755 2.1753-0.35398-3.1728-0.62089-0.16551-0.70405 0.18843-0.43342-2.189-1.2156 9e-3 -0.87811 1.2073-0.32152-3.3717-1.225-0.44436-0.87879 3.7716 0.1655-3.8693-1.1536-0.22514-0.78082 1.6704 0.41801 2.4181-0.20832 0.38582-0.56959-2.9822-1.2588 3.1431-0.25995 0.0263-1.2158-2.6366-1.3524 2.7882 1.1763 0.49361-0.57636-1.7901-1.6188-0.63374-0.0829 0.62528-0.40737-0.43355-1.4778-0.35345-0.44229 0.77308-0.30126-0.39927-1.323-1.6375-1.5744 0.12401-0.64197-0.18876-1.1478-1.0023-2.0108 0.0442-0.34767 0.98097 1.1192-8e-3 -2.4046 0.70804-0.0559 0.10403-1.873-0.1712-0.77623 0.53859 0.27515 1.0659-1.0942 0.13012-2.5791 0.66257-0.349 0.89348 0.88173 0.52833-3.3688 0.65672-0.8509 0.25259 1.6447 1.103-2.6422 0.6811-0.24231-0.41636 2.4051 1.4072-1.9086 0.55655 0.52408 0.0529 2.0231 1.4465-2.3049 0.74001 0.37583 0.31771 0.89469 1.4336-2.7695 0.56103-0.2475-0.616 1.8706 2.0609-2.8515 0.41486 0.4137-0.4432 1.795 1.8276-2.1611 0.55992-0.0163-0.18507 0.33106-0.3031 0.67978-0.20319 1.0525m-18.241 10.43c2.4168 0.0548 0.92531-0.60103 0.23196-0.50004 1.6953-0.0762 0.90736-0.53278-0.23892-0.56554 1.385-0.13032 2.3357-0.58509 0.37544-0.46808 1.8157-0.1125 1.7591-0.67522-0.0671-0.49888 0.50125-0.57032 3.2485-0.88376 0.521-0.86251-1.69-0.1343 2.7123-0.40555 0.0719-0.85427-2.0316-0.019 2.8083-0.4116-0.20845-0.6911-0.65389-0.72491 1.6904-0.26491-0.41507-0.89569 1.1573-0.0844 2.3575-0.0923 0.46248-0.30831-3.0636-0.43715 2.9018-0.49398-0.33936-0.98059 2.5336 0.41767-1.0477-0.92461 1.1139-0.45664 1.143 0.19042-3.2427-1.0297-0.06-0.56684 2.9132 0.1496-3.9271-1.1096-0.21054-1.076 2.3081 0.26386-2.9144-1.2182 0.12767-0.64066 2.2337 0.17812-3.4492-0.18772-0.44824-0.50054 2.633 0.25993-3.9226-0.86528-0.57381-0.54848 1.5448 0.28107 2.9943 0.83666 0.76105-0.45491-2.4533-1.6803 3.0178 2.5102 0.53353-0.0538-0.99352-1.1578-1.9412-1.7945-0.33596-0.20672 1.0189 0.94901 2.8842 1.6796 0.77786 0.16127-0.63403-0.79482-1.8067-2.6967-0.66754-0.81761 0.59579 1.082 2.1958 1.7748 0.92683 0.0676-0.95044-1.3318-0.85046-1.6966-0.0793 0.0258 1.133 1.8886 0.18838-3.0478 0.77135 0.067 1.3301 3.0732 0.65513-3.2063 0.82278-0.13436 0.65625 2.4712 0.59848-2.5551 0.88117 0.53645 0.8666-0.10802 0.52123-3.1745 0.84161-0.38328 0.86774-0.53724 0.59661-2.4783 0.64481-0.26583 0.82782 0.0632 0.84205-1.9052 0.59441 0.10414 0.19877 0.35143 0.39054-0.52901 0.45818-0.58107m-33.256 11.04c-0.22258 1.0249-1.2956 2.9227-0.58465 0.77173 0.3036-1.8688-2.3624 2.2444-0.71142-0.69375 0.69644-2.0469-2.2451 1.8886-0.84059-0.48948-0.78924-0.26996-2.0221 1.0402-0.53223-0.43475 0.81832-0.98775-2.9968 0.85027-0.77524-0.68333-2.9135 0.62937 2.0678-1.0774-0.29758-0.52836-1.9933 0.60649-0.96431-0.72146 0.30676-0.68073-1.7151 0.20954-2.3203-0.2591-0.24718-0.19593-0.56479-0.31936-3.8579-0.67161-0.89324-0.824-0.52354-0.70375-2.9929-0.78687-0.45511-0.56717 1.9449 0.24521 0.98653-0.63301-0.36183-0.78467 2.1072 0.34152 0.31116-0.78657-0.26737-1.0419 1.2813 1.0666 2.7949 0.91793 0.95786-0.59517-0.98276-1.0365 1.8307 1.2825 0.51273-0.28511-1.558-1.9359-0.5995-0.29615 0.27236-0.39179-0.66295-1.1562-2.3002-2.4936-0.41467-0.9336 1.1448-0.17626-1.2582-2.708 0.37363-0.70769 1.9423 2.0444-0.27311-3.0131 1.0052 0.10967 0.55393 0.47474-0.25643-3.3414 0.24796-0.96114 0.34274 2.0987 0.15472-0.98636 0.20236-1.7297 0.12864 1.2158 1.0939 2.8455 0.81851 0.63402-0.12771-2.7468 0.26867 3.6311 0.96986 0.20386 0.65686-2.9644 0.0026 2.6564 0.8312-0.57981 0.23484-2.603 0.0595 3.8655 1.0274 0.49241 1.077-2.6184-0.21511 3.4626 1.0083 0.45169 0.94925-1.6724-0.22553 1.958 0.82984-0.38178 1.1832-2.0463-0.9027 2.9753 0.67707 0.63405 1.757-3.14-1.161 3.2846 0.94676 0.53331 0.69586-0.64826-2.1928 2.8587 0.0109 0.89499 1.0195-0.54299-0.63954 1.411 1.1679 0.10965 2.3266-0.87663-2.6198 1.8901 0.17053 0.796 3.3777-0.50451-3.5484 1.2771 0.39624 0.81 3.1694 0.3152-5.1133-0.25745-0.94843 0.37553 2.247 0.63105 0.78237 0.1163-0.57036 0.12373 1.1795 0.72375 2.5224 1.7908 0.18081 1.0481-2.2172-0.89321 2.7869 2.2261 0.24176 0.38905-2.3807-0.98282 1.4054 3.3146-0.60132 0.87781-0.52672-0.13783 3.3138 2.5774 0.6939 0.89012-2.2967-1.484 2.5028 1.0924-0.28863 0.0139-2.5047-0.86377 2.6958 2.5782 0.18185 0.92843-1.5649-1.6606 0.25399 1.742-1.2032 0.0541-1.0809-1.1573 0.97355 3.2043-0.20376 0.89703 0.43436 1.3412 0.0991 2.7518-0.51445 0.70161-0.4698-0.54907-0.1953 2.5538-0.46815 0.0371-0.4638-0.064-0.5228 3.5578-0.60143 0.66452-0.36836-1.8141-0.87414 3.2264-0.63818 0.08-0.05-2.1108-1.3836 3.0968-1.0633 0.51464-0.0149-1.5563-0.72758 2.6442-0.57011 0.21261 0.11367-0.18891-0.14788-0.62197 0.0208-0.75978zm-21.468-17.142c1.1513-0.54836 2.4361-0.32321 0.65479 0.32741-1.2223 0.51207 2.468-0.3948-0.37672 0.61189 0.84357-0.0588 2.3426-0.1285 0.33876 0.58993-0.8385 0.62361 3.1555-0.45763 0.59922 0.34165-2.1376 0.6782 2.3535-0.34246-0.5886 0.58089-2.1025 0.94205 3.4938-0.51327 0.52616 0.61887-2.226 0.67325-0.65597 0.65443 0.59081 0.25582-1.4812 0.63706-2.0501 1.35-0.04776 0.67992-0.88244 0.44634-3.2962 1.7145-0.79558 0.97423 1.9893-0.58081 1.2535 0.22359-0.12688 0.65156 3.1063-0.63316-3.2429 1.4109-0.0434 0.82554 3.1046-1.0605-2.6278 1.7192 0.16623 0.63832 2.816-0.78964-1.9529 1.7411 0.44942 0.72058 3.0825-0.3379-3.3773 1.8015-0.01346 1.0233-1.0304 1.0141-2.0905 1.5148-0.04512 0.96234-0.92546 0.87071-2.9252 1.1986-0.62709 0.41063 2.4058-0.88481-1.7402 2.19 0.09063 0.87885-2.4361 1.5308 0.0565-0.0573 1.4833 0.26272-0.93538 0.73333-2.8483 1.8484-0.59243 0.96377-0.63488 0.79123-2.2424 1.3528-0.37945 0.56747 1.678-0.6265 2.2501 0.18911 0.19391 0.57439-1.1171 0.33104-2.6331 0.75944-0.64868 0.33123 1.5652-0.54136 2.4283-0.33593 0.41468 0.51222-2.2005 0.92927-0.43868-0.0383 0.31012 0.26808-1.2895 0.72348-2.3315 1.6798 0.0037 0.95517 1.0765-0.10683-2.8 2.0855-0.26615 0.75854 2.8271-1.952-0.75086 1.3174-0.42875 1.2924 1.2001-0.8466 3.5407-2.7655 1.2658-0.51904-1.707 1.9242 0.11605 0.11369 0.75246-0.30272-1.6018 1.9165 0.01561 0.0367 1.0514-0.39614-0.89004 1.0189-2.1042 2.5326-0.22854 0.8554 1.0958-1.2953-0.89675 2.5653 0.83073 0.1611 1.8593-2.1042-1.9853 2.9337 0.27233 0.27943 2.1778-2.7399-1.1853 2.5701 0.64809 0.45645 1.3372-1.9802 0.088-0.54524 0.57671 0.64666 0.66449-0.88446 0.91236-3.2322 0.67778-0.86794 0.65582 0.79593 0.79107-2.7394 0.70157-0.25721 0.67994 1.1351 0.47449-3.1854 0.84292 0.19625 0.63473 0.91784-0.17374-3.2678 0.9558-0.88299 0.91224 1.1992-1.9354-1.7645 0.06406-0.63121 2.0523 0.73504-2.2092-0.71024 0.50234-0.31963 1.9566 0.14394 0.05173-0.30539 0.12221-0.48094 1.7547 2e-3 1.7659-0.0999 0.02899-0.26063 0.68574-0.5021 2.4421-0.82188 0.40692-0.73107-1.71-0.13882 4.038-0.98299 1.1735-0.88076-2.0075-0.14586 2.3127-0.77314-0.49743-0.63726-1.5366-0.30953 3.1708-1.1446-0.04752-0.93476-0.73525-0.10301 2.9692-1.9552 0.16653-1.2658-1.7549 0.28215 3.1091-1.9415 0.27826-0.94016-1.7534 0.25086 2.3397-1.6743-0.40012-0.61043-1.4274 0.30927 2.4706-1.6082-0.04608-0.52076-1.8806 0.7725 2.2647-2.1516-0.18703-0.42915-2.4626 1.8845 2.0417-3.286-0.79255-0.6273-1.0315 1.5034 1.0323-2.6239-0.51756-0.55545-1.1391 1.8026 0.29368-2.2602-0.92478-0.22804 0.53175-2.265-0.61775-1.3935-0.98731 0.21805-0.45838 0.13656 0.07635-3.4046-0.63507-0.73437-0.34196 4.1465 0.20055-3.8732-0.53723-0.052-0.2127 3.1171-0.22925-3.3303-0.46562 0.1761-0.0378 1.0902-0.96658-2.4372-0.65482-0.25724 0.62051 1.6938-1.2884-2.6296-0.52902-0.0775 0.56033 1.5442-1.4636-2.3825-0.71495 0.24262 0.72578 1.8671 0.02863 0.52424-0.72072-0.24012 0.8236 1.6935 0.0029 0.67738-0.67171-0.28144 0.36616 1.3062 1.4064 2.4326 0.06342 0.71493 0.09561 1.0255 1.0672 1.9669-0.46678 0.8372l-0.25769-0.21348m-7.5069-4.1628c3.2032-0.62629-0.75947-0.59331-0.06721-0.75153 1.5552-0.60087-2.8405 0.0179 0.34786-0.44138 2.71-0.42531-1.7758-0.0762 0.60323-0.70867-0.39747-0.17295-1.5102 0.11161 0.16853-0.39049m-1.0056 17.867c2.2386-0.90891-2.024 0.18943 0.19495-0.6732 2.4717-0.88149-2.6726 0.0451 0.07776-0.65341 2.4586-0.62979-3.5219 0.25316-0.29608-0.75465 1.3466-0.41421 2.4947-0.93072 0.42094-0.35101-1.6757 0.41254 2.9289-1.4943 0.28063-0.88868-2.7905 0.31058 0.21821-0.13727 0.81101-0.69674-1.491-0.0762-3.5638 0.51696-0.89069-0.10136 2.9078-0.85749-4.0736 0.42654-0.48156-0.60479 1.7529-0.44405 1.2727-0.57334-0.25195-0.2642 2.9495-1.0614-2.6842 3e-3 0.12571-0.77634 2.5839-0.55534-0.35804-0.38959 0.07742-0.49198 2.5156-0.58363 0.16189-0.5352-1.0228-0.44298 1.1676-0.0448 3.5593-0.80123 0.96009-0.53045-0.77189 0.0249 3.6309-0.9793 0.46234-0.51089-1.37 0.18881-2.2774-0.0269-0.42095-0.30389 2.5374-0.54893-1.4182-0.43784 0.68214-0.62688 2.8795-0.48889-4.1968 0.17212-0.50882-0.52797 1.0601-0.15637 2.7223-0.56453 0.69196-0.17826-1.1656 0.29414-3.1029 0.0894-0.86529-0.35081 3.163-0.61708-2.4335 0.0897 0.36619-0.44394 3.4041-0.70833-3.1437 0.33529-0.31136-0.46523 1.792-0.40993 2.0038-0.41528 0.05178-0.25812-2.6926 0.14375 3.538-0.85776 0.52939-0.76075-1.3861 0.17944-2.3885-0.0745-0.46142-0.21341 1.9429-0.29311 1.3145-0.20398-0.05713-0.56745 1.7817-0.69325 1.5063-0.40168-0.34811-0.2781-1.2384-0.0856 1.7594-0.67216 0.18478-0.51309l0.42003-0.31191m-17.024 13.3c0.52987 0.0986 1.8716-0.34151 1.6872-0.44962-0.48271-0.0109-2.4713 0.25523-1.1724-0.20464 0.52999-0.15356 1.0544-0.64873 0.14836-0.42912-0.43532 0.13885-1.087 0.0466-0.33183-0.22406 0.35811-0.16021 1.9563-0.76773 0.73374-0.57411-0.53019 0.20143-1.1834 0.0824-0.32665-0.25943 0.4429-0.0965 1.5722-0.76542 0.44561-0.60343-0.48256 0.14528-1.7392 0.26138-0.66095-0.22213 0.45592-0.15304 1.1108-0.57013 0.21776-0.42399-0.70591 0.14488-0.84743-0.18407-0.12111-0.42365 0.42206-0.19425 1.5713-0.5374 0.4772-0.44705-0.5485 0.0936-1.0626 2e-3 -0.27199-0.29715 0.5814-0.18186 0.7647-0.62529 0.02303-0.44039-0.48227 0.0833-2.301 0.19035-0.95751-0.14854 0.42372-0.12866 1.1751-0.27884 0.31594-0.17279-0.59405-0.12172 0.8655-0.5182 1.1207-0.68672 1.1346-0.27025-1.9999 0.22555-0.47268-0.40345 0.41669-0.12977 0.92805-0.47364 0.13416-0.26879-0.6249 0.0383-1.9327 0.11164-0.73899-0.35622 0.51777-0.25025 2.0164-0.72095 0.6266-0.44519-1.614 0.0429 2.0468-1.0775 0.29848-0.93789-0.47977 6e-3 -1.3248 0.0721-0.47349-0.27933 0.46178-0.31134 2.1008-0.67664 0.74938-0.54137-0.50223-0.0353-2.1062 0.17228-0.97765-0.34114 0.44555-0.2696 1.6093-0.47119 0.47993-0.19807-0.48927 0.15063-1.4477 0.0337-0.5057-0.22823 0.44046-0.20855 1.7591-0.33489 1.7484-0.48152-0.49303-4e-3 -2.5428 0.15114-1.0777-0.28973 0.5058-0.20975 1.4668-0.32857 0.44226-0.11192-0.55563-6e-3 -2.5252 0.31669-1.1878-0.24653 0.42683-0.23499 2.2546-0.86213 0.84566-0.43432-0.41608 0.15331-1.2019 0.3616-0.3696-0.10893 0.39044-0.21744 1.8016-0.95579 0.54639-0.59073-0.56732 0.0679-2.6739 0.37149-1.3418-0.33253 0.42703-0.29396 1.3467-1.0122 0.52238-0.30434 0.64473 0.0325 2.4674 0.0121 1.2728 0.94602 0.43429-0.1189 1.6139-0.51396 1.6135-0.40576-0.42864 0.43505-1.3755 1.5706-1.2767 1.7073 0.54782-0.46251 1.5398-1.481 1.7692-1.6384-0.35581 0.3887-1.0895 1.5097-0.95903 1.5764 0.36116-0.50478 1.461-1.6767 1.3181-1.7606-0.34849 0.31003-0.88826 1.775-0.16489 0.7969 0.36068-0.25664 1.5241-1.6859 0.75293-0.66777-0.35075 0.4514-0.77509 1.5546-0.07572 0.58412 0.34619-0.41095 1.1775-1.3052 1.195-1.4343-0.4699 0.26654-1.0068 1.7356-0.63197 1.5982 0.34254-0.31062 1.6116-1.6328 0.88898-0.55664-0.34562 1.0497 1.3825-1.1713 1.1852-0.54819-0.42859 0.35826-0.92709 1.8081-0.0315 0.86068 0.33571-0.29436 1.0907-0.78032 0.35877-0.15194-0.5383 0.49576-0.36324 0.64171 0.16722 0.19367 0.43595-0.40158 1.4698-0.59874 0.6552 0.15624-0.40024 0.49899-0.51927 0.91653 0.09571 0.34576 0.42244-0.20882 2.1052-1.3254 1.2326-0.36172-0.27335 0.32736-1.3661 1.5309-0.41215 0.69078 0.31956-0.35153 1.5743-0.99427 0.71193-0.10953-0.42261 0.35026-0.6112 0.97602 0.12041 0.43921 0.35384-0.26932 1.1252-0.46769 0.44168 0.0771-0.31649 0.36101-1.2587 1.1365-0.28522 0.49075 1.2223-0.53055-1.1189 1.2496 0.18496 0.55344 0.53772-0.20608 0.99533-0.37711 0.30861 0.13424-0.47931 0.36141-2.1052 1.5399-0.66576 0.95173 0.45367-0.23364 2.2164-1.0082 1.0619-0.18353-0.46522 0.19645-1.423 0.89937-0.36755 0.46918 0.53173-0.32256 0.98309-0.0275 0.20803 0.19188-0.94834 0.4764-0.03219 0.24174 0.45694 0.28797-0.11812 0.30649-1.7704 0.4974-0.51992 0.5472 0.60953-0.0905 1.66 0.0492 0.53941 0.32844-0.49901 0.10943-2.0951 0.51644-0.73887 0.46549 0.4322-0.0841 1.8178 9e-3 0.76106 0.41777-0.35853 0.12802-1.308 0.69712-0.3286 0.49178 0.45744-0.0927 1.8218 0.11118 0.68178 0.25663-0.44342 0.0448-2.2651 0.26328-1.0039 0.28605 0.55028-0.0936 1.3718 0.15787 0.3506 0.27547-0.38339 0.0751-1.7464 0.30953-1.4912 0.54021 0.59544 0.0974 1.949-0.22625 2.0458-0.0371-0.5317 0.13857-1.6843 0.63166-0.43982 0.51512 1.4245 0.24543-2.242 0.45221-0.50944 0.48207 0.38353-0.14201 1.5469 0.11232 0.58617 0.25642-0.34218 0.0785-1.8553 0.25371-1.5227 0.47554 0.53899-0.0589 2.5315-0.0418 1.029 0.26202-0.56708 0.0655-1.994 0.25942-0.63109 0.2185 0.44206 0.0709 1.86-0.17589 1.6804 0.25171-0.59284 0.13093-1.924 0.1894-2.0604 0.28029 0.51848 0.0595 2.0864-0.11388 1.8669 0.20218-0.39308 0.2141-2.3197 0.40808-1.0377 0.52575 0.41704 0.12079 1.6158-0.0966 1.6103 0.29718-0.54897 0.11767-1.8289-0.0185-1.9046 0.27592 0.31759 0.0252 0.6472-0.0827 0.95508 0.0363m-28.094-12.874c0.40409 0.72222 1.6478-0.29076 1.8034 0.0374-0.43422 0.32112-1.4723 0.41488-1.6371 0.60857 0.51436-0.0158 1.0655-0.39112 1.5455-0.25177-0.61344 0.39506-1.8596 0.76746-2.1654 0.98411 0.76914 0.0531 1.6112-0.43393 2.3016-0.35605-0.49956 0.28365-1.1487 0.39172-1.615 0.65312 0.43983 0.10777 1.6371-0.0711 1.6789-0.0264-0.45643 0.30555-1.0827 0.35428-1.5091 0.64357 0.58266 0.087 1.8779-0.37683 2.0198-0.15933-0.73526 0.5477-1.6411 0.72471-2.513 0.92097 0.20072 0.0301 1.1982-0.11037 1.662-0.22002 0.66627-0.19911-0.53932 0.39638-0.77834 0.49225-0.26412 0.21119-1.1843 0.11276-1.0587 0.50231 0.6228 0.11173 1.7188-0.27977 2.0211-0.18992-0.3366 0.24945-1.4252 0.28029-1.3424 0.60916 0.39202 0.0903 1.4899-0.23529 1.4261 5e-3 -0.73329 0.50785-1.632 0.64198-2.4531 0.92947 0.54417 0.17808 1.4077-0.1831 2.0549-0.26779 0.54928-0.0743-0.52715 0.4674-0.76641 0.52589-0.37216 0.14718-1.6179 0.44671-0.59342 0.4244 0.50853 0.0802 1.533-0.27561 1.6787-0.22563-0.33724 0.38365-1.4542 0.78707-1.4283 0.97239 0.56421-0.0244 1.5812-0.39073 1.8321-0.35618-0.87401 0.53194-1.9155 0.62554-2.8682 0.9498 0.83889 0.16407 1.6397-0.36625 2.4636-0.34068-0.47486 0.46597-1.2333 0.54693-1.6636 1.0359 0.75726 0.0801 1.5923-0.31798 2.27-0.24739-0.52264 0.4913-1.2009 0.7759-1.8792 0.97662-0.062 0.21819 1.5953-0.37095 0.8267 0.047-0.58328 0.39257-1.8359 0.36674-2.0527 0.90155 0.64253 0.17161 1.2709-0.2849 1.8904-0.42358 0.8572-8e-3 -0.68271 0.75629-0.9387 0.90818-0.38601 0.18871-0.67228 0.41233-0.1032 0.16576 0.86062-0.27929 1.6928-0.7087 2.5964-0.81443 0.38941 0.20888-0.61028 0.68109-0.8524 0.86683-0.27074 0.13085-1.1157 0.66405-0.3884 0.3057 0.63151-0.16099 1.222-0.63082 1.8151-0.74291-0.40585 0.75461-1.2763 1.0819-1.9387 1.5684 0.50688-0.0473 1.6613-0.83628 1.9663-0.60722-0.18614 0.51251-1.3774 1.0524-1.3529 1.0318 0.60525-0.30145 1.6399-0.92299 2.0163-0.95212-0.17299 0.35288-1.0457 1.0985-0.86319 1.0891 0.41375-0.20369 1.0327-0.91362 1.3179-0.7909-0.18926 0.30761-0.93696 1.0999-0.7459 1.0428 0.62733-0.39297 1.6803-1.5473 2.3248-0.99273-0.45688 0.56346-1.0676 1.0154-1.6739 1.4178 0.43986-0.33907 1.1348-1.0734 1.4351-1.1285-0.2046 0.27037-0.95154 0.87582-0.89515 0.87269 0.42955-0.36185 0.816-0.85514 1.4038-0.94906-0.45467 0.18096-0.5565 1.2012 0.07896 0.5761 0.33752-0.20587 1.3072-0.91194 0.53426-0.24252-0.53199 0.50028-0.99466 1.0684-1.4319 1.6517 0.64481-0.62973 1.5982-1.0721 1.9894-1.8846 0.30805-0.41777 0.32312 0.25137 0.0038 0.40602-0.2057 0.32406-0.75736 1.3218-0.73221 1.2035 0.33773-0.57116 1.1592-1.399 1.4293-1.6198-0.26673 0.41015-0.77528 0.75322-0.83373 1.2478 0.63897-0.59048 1.0735-1.3689 1.6631-2.0004-0.32908 0.64983-0.57304 1.3587-0.78831 2.036 0.44405-0.59107 0.86886-1.1969 1.3528-1.7562-0.10718 0.0969-0.65144 1.1124-0.6028 1.2619 0.29777-0.49203 0.97513-1.2822 1.1665-1.4828-0.15696 0.36183-0.33513 1.2199-0.10144 1.34 0.52197-0.73291 0.8882-1.5868 1.5577-2.207-0.50882 0.5923-1.1936 1.6578-1.1889 2.206 0.30966-0.20569 0.94831-1.1407 0.97018-1.0681-0.26506 0.32706-0.63668 1.4254-0.51511 1.4128 0.49121-0.56638 1.0388-1.1047 1.3945-1.7714-0.29637 0.54177-0.75708 1.595-0.76829 1.9235 0.28928-0.22467 0.92375-0.99982 0.90849-1.045-0.2145 0.24911-0.60415 1.2178 0.01176 0.59557 0.41714-0.34938 0.86947-1.6227 0.2428-1.7198-0.2812 0.11677-0.92422 0.30076-0.39691-0.15172 0.51118-0.40107 0.16521-1.079-0.44748-0.75728-0.28878 0.0362-1.3304 0.55201-1.1373 0.0948 0.26519-0.17152 1.3535-0.84646 0.45717-0.42022-0.3719 0.0983-1.4116 0.89338-0.59424 0.30407 0.32524-0.284 1.2911-0.85568 1.2424-1.0124-0.33239 0.14798-1.7192 0.73594-0.86895 0.12251 0.26357-0.34037 1.3206-0.63528 1.1123-1.0209-0.31099-0.12857-1.4308 0.38511-0.6871-0.0486 0.32167-0.2921 1.1435-0.76616 1.1888-0.8857-0.41085 0.0556-1.4707 0.61775-1.5057 0.11849 0.36849-0.34219 1.2968-0.66503 1.2454-1.1159-0.3869-0.11922-1.2159 0.31263-1.266 0.28742 0.27695-0.27995 1.3771-0.66025 1.1577-0.90981-0.43639 0.0857-1.5287 0.51868-1.5723 0.23063 0.57287-0.35887 1.1317-0.74184 1.7281-1.0618-0.30275 0.0985-1.1987 0.82893-1.177 0.54272 0.32735-0.34883 1.314-1.0901 1.1913-1.2502-0.62078 0.28827-1.2517 0.62806-1.9518 0.64955 0.3939-0.49675 1.6395-1.1778 1.563-1.4733-0.31449 0.15847-1.3605 0.669-0.54881 0.21723 0.2698-0.13133 1.0746-0.60041 0.92185-0.63932-0.37439 0.25856-1.4858 0.54812-1.4679 0.59644 0.46681-0.37611 1.5707-1.1 1.5781-1.412-0.46751 0.27126-1.3436 0.60312-1.6098 0.66674 0.53311-0.35683 1.0674-0.79231 1.3355-1.3911-0.30407 0.16621-1.1631 0.64198-1.0749 0.56465 0.53752-0.2816 1.5898-0.89956 1.71-1.1206-0.46828 0.19813-1.4122 0.43277-1.6319 0.49022 0.27478-0.26169 1.3081-0.62441 0.94333-0.90806-0.39021-0.0501-1.5482 0.45944-0.70207-0.0305 0.91216-0.71982-0.98273 0.45786-0.31496-0.25488 0.10814-0.23732 0.40373-0.23677 0.6015-0.35415" fill="none" stroke="#F75168" stroke-linecap="round" stroke-linejoin="round" stroke-width="1.0583"/>
 </g>
 <g transform="translate(-39.157 -108.5)">
  <path d="m79.653 108.6c-0.41137 0.0372-1.2773 0.0384-1.6527 0.28532 0.27609-0.059 0.30322-0.0721 0.36618 0.14824-0.30331 0.30675-0.43742 0.67285-0.47525 1.119-0.03365-0.25241-0.38027 17.214-0.06261 17.281 0.12428 0.48487-0.02431 0.79746 0.32233 1.3506-0.08453-0.0727 0.20266 0.14834 0.23715 0.18732 0.34294 0.28302 0.73905 0.23134 1.253 0.26965 0.30108-0.0459 0.75546-0.2078 1.1931-0.36358 0.26586 0.0726 0.10041-0.44333 0.04475-0.69068 1.062 0.57665 2.5527 0.98369 3.8342 0.97207 0.03796 0.11612 0.19275 0.0183 0.15413-0.0132 1.9267 0.1797 3.653-0.98316 5.184-2.0223 1.2585-1.3155 1.7628-2.1456 1.7433-4.1197 0.04582 0.0389-0.08492-2.9974-0.0798-2.7778-0.08417-1.7651-0.58175-3.5236-1.9352-4.5767-1.3567-1.2109-3.2144-1.6457-4.9692-1.5718 0.0033 0.0222-0.38644-0.0713-0.11425-0.0439-1.8309-0.0576-2.2279 0.18939-3.2837 1.0089-0.16015-6.7e-4 -0.56892-4.9664-0.3109-4.9273 0.20465-0.36243 0.1424-0.70131-0.19742-1.0136 0.08602 0.0158-0.39842-0.26207-0.12387-0.17345-0.32615-0.31672-0.57901-0.40085-1.0325-0.31472-0.03227-0.22962-0.32143 0.0746-0.04735 0.0938m67.087-0.1602c-0.46812-0.0116-0.9082-0.0315-1.2391 0.0272 8.5e-4 0.2725 0.18317 0.53188 0.18478 0.53929-0.64594 0.22334-0.52044 0.59424-0.52398 1.0287 0.0326 0.068-0.18714 4.7633-0.16612 4.7629-0.91932-0.49321-2.2531-0.90058-3.3916-0.84595-0.10087-0.0573-0.0563 0.0944-0.0532 0.0856-1.8348 0.0551-3.378 0.62538-4.819 1.818-1.451 1.1452-2.108 2.6964-2.0762 4.3164-0.0759-0.0405 0.16569 2.4332 0.0767 2.429-6e-3 1.6927 0.85599 3.4229 1.9746 4.6201 1.2796 0.98411 2.9027 1.6151 4.8466 1.7974 6e-3 0.044 0.17668 0.13782 0.1629 0.14642 1.273-0.17867 2.4072-0.52737 3.5968-1.0643 0.0485 0.17342 0 0.29655 0.48918 0.53247 0.29412 0.0677 0.66353 0.48907 1.0108 0.41503 0.41748-0.12404 0.85515-0.33033 1.1887-0.63352 0.31882-0.3399 0.86362-0.55965 0.90813-0.93107-0.0378-0.16016-0.39118-17.434-0.37748-17.359 0.0725-0.32194-0.26842-0.89453-0.51154-1.1999-0.61459-0.36168-0.7036-0.46649-1.2496-0.52347 0.0951 0.0371 0.025 0.034-0.058-8e-3m-67.056 0.71073c0.33906-0.0234 0.56127-0.28538 0.88325 0.24216 0.38726 0.25939 0.18032 0.0846 0.2506 0.64475-0.0092-0.0818 0.06973 5.4384 0.09481 5.5277 0.01843 0.1603 0.25616-0.27367 0.31187-0.17703 0.95342-0.67743 2.3717-0.60243 3.6576-0.73809 0.32517 0.30812-0.05947-0.24299-0.05783-0.24195 1.7808-0.0143 3.3768 0.79917 4.5944 1.8278 1.1822 0.79551 2.1876 2.4796 2.187 4.0593-0.0057 0.0558-0.59063 2.8055-0.5958 2.8107-0.01108 1.3043-0.44146 2.7974-1.54 3.8913-1.2489 1.1129-2.4982 1.7706-4.3356 1.5758 0.03564 0.0593-0.5476 0.32909-0.2648 0.28409-1.5495-0.39504-2.5263-0.62243-3.7346-1.3309-0.03317-0.0574-0.09386 0.17987-0.10487 0.17958-0.28641 0.29291-0.26172 0.58261-0.53022 0.71868-0.01514 0.20794-0.80073 0.11776-0.88391-0.065-0.32792 1e-3 -0.90745-0.13917-1.1476-0.25486-0.54403-0.40401-0.26454-0.12164-0.26602-0.67285-0.12217-0.028 0.19662-17.202 0.20636-17.271 4.52e-4 -0.22957 0.102-0.709 0.3496-0.91764 0.38139-0.0557 0.41286-0.52599 0.85707-0.47198 0.07546 0.0848-0.09551-0.27878-0.05347-0.053m67.336 0.5259c0.63967 0.22238 0.66494 0.19468 0.84495 0.0879 0.32585 0.2696 0.97215 0.56626 0.58881 0.77417-0.0972-0.12029-0.16029 17.64-0.19216 17.386 0.11822 0.33544-0.0997 0.29318-0.46158 0.50051-0.25401 0.20631-0.61572 0.45451-1.2881 0.40136-0.42478-2.5e-4 0.0565 0.26562-0.18421 0.0893-0.22227-0.16736-0.1313-0.16294-0.47321-0.46204 2e-3 0.27341-0.51585-0.70256-0.503-0.7381-1.1278 0.58249-2.2048 1.2685-3.4847 1.324-0.0654-0.0938-0.27525-0.41649-0.1896-0.10779-1.9777-0.0387-3.0664-0.52467-4.2507-1.6046-0.97744-1.0989-1.8943-2.2914-2.1049-3.9817-6.3e-4 8e-4 -0.0251-2.7108 0.0283-2.6181 0.0407-1.5622 0.52033-2.878 1.8705-3.9399 1.298-0.77956 3.0668-1.68 4.5708-1.7226-6e-3 0.0789 0.43288 0.0213 0.23426-0.0497 1.2671-0.0484 2.1638 0.44057 3.3477 1.1106 0.1016-4.9e-4 0.0488-0.54916 0.0505-0.4302 0.026 0.0141 0.33515-5.4205 0.33311-5.2304-0.0834-0.57489 0.14575-0.47247 0.47637-0.48651 0.24873-0.12508 0.38576-0.34291 0.87325-0.30134-2e-3 5e-3 -0.10393-0.38381-9e-3 -0.31456m-73.486 0.75732c-0.63742 7e-3 -0.92206 0.27607-1.3756 0.60191-0.33915 0.5624-0.5274 1.0035-0.52927 1.2642-0.16731 0.4272-0.02342 0.86315 0.58363 1.284 0.45638 0.33742 0.76929 0.45948 1.0177 0.41708 0.86434 0.0855 1.2937-0.13926 1.6659-0.43185 0.43917-0.0116 0.57092-1.008 0.61865-1.4453 0.04235-0.40888-0.47514-0.74927-0.76163-1.0382-0.09709-0.36019-0.7165-0.60523-1.2143-0.57574 0.08387-0.0845 0.01436-0.32988 0.10302-5e-3m-0.06465 0.85248c0.47492 0.0109 0.78313 0.0224 1.0685 0.18967 0.23549-0.13462 0.38551 0.46988 0.41284 0.82489 0.13511 0.6471-0.2768 0.42161-0.5232 0.64841-0.35747 0.21819-0.58091 0.60973-1.044 0.49806-0.43549 0.0195-0.73752 0.17141-0.94119-0.0854-0.33797-0.33738-0.46446-0.80047-0.46856-1.1389-0.02244-0.31745 0.45291-0.52357 0.74698-0.85714 0.28746 0.0135 0.54159-0.37188 0.69464-0.42797 0.02241-0.0458 0.07319 0.0436 0.07368 0.0488m-32.574 3.7154c-0.20234 0.0775-0.84263 0.21354-1.1888 0.77489-0.27769-0.0562-0.05711-0.49175-0.0016-0.42901-0.31459 0.34288-0.63316 0.52848-0.6467 0.94692-0.04333-0.33101 0.18606 7.7188 0.15792 7.604-0.10144 1.614 0.73935 3.7279 2.0202 4.5334 1.4222 1.2628 3.3685 1.6747 5.2249 1.6738-6.42e-4 -0.015-0.25959-0.0768-0.29593-0.12812 1.1632-0.0955 2.5816-0.24961 3.6942-0.87986 0.16081 0.57667 0.26856 0.45072 0.53212 0.5915 0.02108 0.10651 0.44696 0.26497 0.92672 0.31569 0.55053 0.29241 0.84879-0.089 1.2609-0.33013 0.28932-0.33724 0.5827-0.71279 0.54425-1.2531 0.04563-6e-3 -0.23294-11.867 0.0077-11.802-0.15776-0.53419-0.17422-0.89815-0.51463-1.0562-0.34256-0.30257-0.5679-0.46172-1.0982-0.52245-0.40454 0.0994-0.80369 0.48559-1.467 0.42094-0.01042-3e-3 -0.19344-0.0225 0.15172 0.0751-0.27546 0.54708-0.46195 0.83449-0.53492 1.1375 8.17e-4 -0.0525-0.0094 7.285-0.0819 7.195-0.09532 0.60018-0.34044 1.8127-0.97164 2.4057-0.07326-0.0683-0.35136-0.59809-0.0093-0.26295-0.7999 0.6091-1.3929 0.97273-2.2726 1.0298-0.13869-0.083-0.41489-0.0744-0.15261-0.12449-1.0658 0.0117-1.9023-0.62319-2.4243-0.85772-0.61045-0.43497-1.0542-1.241-1.0996-2.1316-0.05477-0.0456 0.15029-7.1051 0.05849-7.1626 0.10426-0.16291-0.09161-1.0304-0.38948-1.0105-0.07073-0.0471-0.24753-0.23548-0.23732-0.2265-0.67297-0.43346-0.6313-0.40378-1.1586-0.44188-0.03949-0.047 0.05819 0.21663 0.07514 0.31574m16.306-0.28792c-0.42861 0.0769-0.19357 0.22696-0.76393 0.53314-0.0435 0.1623-0.92033-0.49952-0.55746-0.46705-0.33371 0.28391-0.52769 0.97892-0.52596 1.369 0.26048 0.0458 0.0112 11.773-0.06568 11.907-0.0012 0.39081 0.16898 0.74053 0.58868 1.0824-0.05586 6e-3 -0.43658-0.0762-0.27616-0.0253 0.37583 0.38593 0.98827 0.4283 1.4961 0.521 0.59783 0.25897 1.1686 0.0281 1.3374-0.33984 0.0093-0.24073-0.21632-0.26976-0.17792-0.13485 0.44303-0.32619 0.51585-0.48101 0.655-0.8466 0.03028-0.28081 0.06773-7.489 0.06818-7.4806 0.01477-1.0008 0.31956-1.5037 0.92913-2.1641 0.63538-0.65817 1.5687-0.81119 2.4227-0.85526 0.2512 0.12632-0.07302-0.1115 0.0095-0.0764 0.69013 0.026 2.0545 0.39532 2.7363 0.99068-0.11488-0.0652-0.47586-0.32186-0.40888-0.15326 0.56452 0.3161 1.0403 1.1599 1.0849 2.185 0.26537-6e-3 0.36006 7.277 0.36126 7.2832 0.06548 0.43993 0.09638 1.1798 0.19768 1.1619-1e-3 0.0645 0.07455 0.2055 0.1057 0.15678 0.44186 0.34251 0.5068 0.48725 1.02 0.21546 0.69795 0.0584 1.1456 0.21204 1.3537-0.15489 0.29596-0.403 0.61629-0.9398 0.54438-1.4456 0.05117 0.31906-0.10869-7.2892-0.10534-7.2318-0.02304-1.6535-0.50066-3.0404-1.9966-4.5197-1.3579-1.2166-2.9516-1.6482-4.8279-1.5602-0.01641-0.0162-0.12355-0.0189-0.06149 0.0283-1.4513-0.0936-2.5449 0.42166-3.6223 1.0305 0.11753-0.11962-0.27159-0.7135-0.43516-0.72554-0.29255-0.20456-0.67588-0.47543-1.1281-0.43439 0.28102 3e-3 -0.01942 0.0493-0.01925 0.0659m43.068-0.098c-1.7989 0.0557-3.6354 0.65535-4.8169 1.892-1.3713 1.3576-2.0021 2.7072-1.9623 4.4643-0.05542-0.3673-0.21571 2.442-0.1772 2.4769-0.19201 1.8843 0.71226 3.2761 2.0905 4.503 1.3388 1.1898 3.1576 2.1064 4.9043 1.769 0.0527-0.0366-0.1537-0.094 0.0906-0.0324 1.8018-0.22894 3.3446-0.66077 4.7536-1.8053 1.3351-0.93129 2.1122-2.8445 2.435-4.2149 0.28149 0.0974-0.16823-2.8068-0.20571-2.7898-0.0175-1.9252-0.38526-3.4334-2.0111-4.3483-1.5522-1.2354-2.8183-1.8226-4.6206-1.7427 0.0429 0.28395-0.93961-0.33424-0.64312-0.0534m15.536-0.0237c-1.9144 0.27636-3.481 0.61583-4.7482 1.7387-1.6294 1.2213-2.1954 2.6733-2.1175 4.4218-6e-3 -0.01 0.19607 2.4748 0.18205 2.4647 0.31518 1.7365 0.51743 3.4322 1.8115 4.5678 1.2916 1.076 2.9749 1.7969 4.8436 1.7862-0.0315-0.0708 0.20251 0.11353 0.1712 0.062 1.2722-0.0147 2.778-0.20229 3.6258-0.99406 0.20095 0.33738 0.20614 0.86088 0.4209 0.96013 0.32448 0.18104 0.89206 0.18159 1.157 0.081 0.40963-6e-3 0.88593-0.0768 1.2121-0.38191 0.39421-0.097 0.83987-0.74392 0.51673-1.273-3e-3 -0.0547-0.0216-11.63-0.017-11.878 0.16929-0.41577-0.25438-0.94065-0.59559-1.1715-0.32767-0.27931-0.51586-0.26323-0.99104-0.28149-0.48399-0.0821-0.83834 0.15218-1.1821 0.27765-0.20531 0.13147-0.3814 0.45683-0.54576 0.58822-1.0674-0.57404-2.3112-0.90994-3.6337-0.93814 0.25472 0.0142-0.0772-0.30203-0.0742-0.0473m11.403 0.12153c-0.56124-0.0439-1.1476 0.0409-1.4493 0.38157-0.3639 0.30614-0.60346 0.71611-0.51155 1.1447 3e-3 -6e-3 -0.16804 11.802-0.16761 11.795 0.27419 0.16685 0.83831 1.1824 0.82808 1.4456 0.0114 0.25332-0.19637-0.40293-0.21615-0.3377 0.37975 0.35048 1.1428 0.6044 1.4018 0.57109 0.33471-5e-3 0.5088-0.24137 1.1667-0.44488-0.0705-3e-3 -0.17988-0.36415-5e-3 -0.11282 0.37425-0.20501 0.42576-0.64839 0.43295-1.107 0.0933 0.0446 0.15685-7.1885 0.15391-7.1692-3e-3 -0.8364 0.10109-1.6019 0.81865-2.0838 0.60626-0.60169 1.3718-1.3141 2.3697-1.2623 0.0442 0.0766-0.093 0.29679 0.10404 0.36318 0.43553-0.0481 0.76025-0.48075 1.0546-0.84296-0.0514-2e-3 0.41651 0.30341 0.40824 0.30504 0.35992-0.0289 0.25527-0.89394 0.32139-1.1239 0.0376-0.44529 0.28488-0.68279-0.28947-1.051-0.31545-0.0241-1.2937-0.83742-1.7155-0.66416 0.0581 1e-3 0.0702 0.48137 0.40867 0.55258-1.4147-0.0678-2.4522-0.0795-3.569 0.57263 0.15865-0.16908-0.67329-0.7639-0.92718-0.91681-0.31348-0.21419-0.51341-0.0514-0.82 2e-3 -0.0687-0.0356 0.24307 0.0436 0.0538 0.037m-53.717-0.16601c-0.43454 0.0467-0.56954-0.0188-1.0841 0.37258 0.27425 0.0759 0.3047 0.25751 0.35159 0.24996-0.34162 0.25861-0.7664 0.67834-0.8577 1.0319-0.02921-0.0105-0.0036 11.809-0.01223 11.677-0.03767 0.40572 0.18296 0.99856 0.46724 1.2129-0.16093-0.0372 0.09304 0.33016 0.08971 0.31724 0.3815 0.33 0.91502 0.42757 1.2018 0.11169 0.45507 0.0826 1.0446-0.12523 1.2105-0.42099-0.02869 5e-3 0.14631 0.32046 0.13938 0.37652 0.14339-0.34794 0.07959-1.4285 0.38377-1.5688-0.17595-0.17423-0.06008-11.683 0.08842-11.634 0.27609-0.44121 0.07443-0.78848-0.29288-1.092 0.07947-0.28456-0.16668-0.0283-0.21815-0.10578-0.62566-0.29591-0.69896-0.40169-1.2031-0.50984-0.32314-0.0523 0.0019-7e-3 4e-3 0.0563m-32.448 0.52c0.30018-0.0887 0.47754 0.0756 0.74063 0.29349 0.28685 0.28686 0.50416 0.50557 0.45126 0.74629-0.05964-0.0587 0.02553 7.4582-0.06052 7.3998 0.0033 0.97392 0.26145 1.1931 1.0682 2.1908 0.73524 0.6687 1.8646 1.1609 3.0284 1.2145-0.0075 0.0135-0.08764-0.038-0.09293 0.0603 1.0051-0.0553 1.9724-0.56883 2.6715-1.2792-0.08383 0.0194-0.13881 0.0162-0.04351 0.0897 0.78005-0.63336 1.0608-1.487 1.3458-2.4371 0.07187 0.0883-0.10914-7.2591 0.04405-7.2205-0.05879-0.35359-0.20394-0.7098 0.0105-0.94242 0.23032-0.21047 0.76692-0.22175 1.0797-0.1876 0.39624-0.053 0.87037 0.39261 0.93062 0.56876 0.35578 0.3015 0.37603 0.62158 0.4001 0.6276-0.0593-0.094-0.29679 11.312-0.24185 11.631-0.10725 0.21077 0.08446 0.63198-0.12508 0.90223-0.20617 0.27706-0.72196 0.15796-0.93634 0.27319-0.4348-0.0746-0.38119 0.0755-0.66234-0.14752-0.0765 5e-3 -0.77553-0.34356-0.85286-0.76263-0.09302-0.32426 0.02033 0.3054-0.02967-0.012-0.79933 0.74287-2.5766 0.96608-3.6129 0.92412-0.27895-8e-3 0.05825 0.0968 0.22781 0.13543-2.0891-0.0521-3.3311-0.82012-4.87-1.8896-1.2366-1.3196-1.8989-2.1421-1.9346-3.9437-0.0024-0.19693 0.0295-7.4743 0.07113-7.483 0.01479-0.32679 0.12871-0.29062 0.26632-0.52344 0.30441-0.28534 0.50869-0.3218 0.99178-0.28552-2.17e-4 0.0885 0.1251 0.43083 0.06499 0.32959m16.512-0.24904c0.31682 5e-3 0.33608-0.15753 0.52626-0.0263 0.15926 0.0497 0.26802 0.66318 0.47292 0.97195 0.35401 0.0468 0.72723 0.0911 0.12723-0.0147 1.0754-0.65179 2.2403-0.78729 3.4798-0.94787-0.05143-0.21432 0.42562 0.0522 0.45454 0.0354 1.2366-0.0414 3.5337 0.72613 4.5184 1.671 1.2961 0.85816 1.9189 2.2852 2.0091 3.9004-0.03532-0.17589-0.16336 7.2397-0.17058 7.2461-0.16423 0.23846-0.4165 0.36919-0.53686 0.71473-0.20444 0.25707-0.30925 0.32383-0.93471 0.3489-0.37242 0.0806-0.43063-0.41442-0.64144-0.30182-0.31368-0.19552-0.67153-0.44336-0.65876-0.74338 0.25114 7e-3 0.38161-7.2946 0.30219-7.2959 7e-3 -0.95497 0.0041-1.2876-0.80967-2.1648-0.69221-0.64824-2.1968-1.3626-3.1892-1.3737-0.04326-0.0555-0.11489-0.06-0.09739 6e-3 -1.0803 0.023-2.2179 0.0306-2.7241 0.89872-0.75235 0.54272-1.074 1.3255-1.2596 2.5732-0.01104 0.0126 0.05086 7.5502 0.09923 7.6039-0.01022 0.49893 0.37866 0.11375-0.0787 0.3427-0.16584 0.21637-0.49369 0.55932-0.88296 0.4755-0.32107 0.14456-1.196-0.17369-1.5046-0.44098-0.45357-0.27134-0.04576-0.38822 0.01827-0.59441-0.0022-0.0926 0.04097-12.108 0.05981-11.865-0.13653-0.14028 0.21584-0.46613 0.46877-0.69231 0.22354-0.47958 0.07848-0.21765 0.50432-0.45633 0.08894 0.33091-0.09329-0.027-0.08418-0.0252m43.367 0.027c-2e-3 0.0634 0.24712-0.2826 0.39689 0.0758 1.507-1e-3 3.0196 0.22691 4.2035 1.2937 1.2678 1.1277 2.3393 2.9114 2.2527 4.4383 0.0153 0.0247-0.41134 2.4949-0.36766 2.5523 0.28475 1.5798-1.0994 2.8997-2.1165 4.0112-1.1774 1.4364-2.4545 1.3863-4.0428 1.4198 5e-3 -5e-3 -0.32523 0.5184-0.30239 0.50875-1.88 0.22954-3.3427-1.1363-4.5881-1.9919-1.2694-1.1242-1.5939-2.1494-1.8299-3.9428-0.17363-0.29447-0.0835-3.1646-0.011-2.678 0.03057-1.5599 0.64118-3.0662 1.8865-4.1839 1.3245-1.0017 2.4037-1.5801 4.5166-1.4632 0.13968 0.27825-0.19684-0.0944 7e-3 2e-3m15.332 9e-3c0.0949 0.50052 0.49204 0.0821 0.56343 0.13682 1.3755 0.34687 1.9083 0.17807 3.0047 0.8331 0.0104-0.0325 0.58491-0.16743 0.70766-0.11604 0.17304-0.20542-0.33757-0.57745-0.12851-0.71503 0.13121-0.25945 0.8296-0.0106 1.1793-0.27702 0.69102 0.0448 0.76225 0.20147 1.0131 0.43481-0.11034 0.15804 0.0338 0.31468 0.19847 0.72001-0.0757-0.0463 0.061 11.89 0.0725 11.893 0.0885 0.28399-0.32874 0.3754-0.47625 0.7022-0.1489 0.12704-0.584 0.15749-0.91065 0.25254-0.10874 0.0659-0.47738 0.0198-0.77197-0.0984-0.31171-0.24895-0.42155-0.32979-0.51802-0.60535 6e-3 -4e-3 -0.24334-0.11992-0.2289-0.078-1.1229 0.70885-2.0683 0.92569-3.5869 0.93924 0.0444 0.0411 0.17445-0.0549-0.0547 0.0139-1.667 0.20788-3.1962-0.57798-4.5105-1.7264-1.2315-1.1381-1.896-2.1126-1.9443-3.9882 6e-3 1e-3 0.0831-2.4914 0.10058-2.5098-0.0106-1.4295 0.32617-2.9918 1.7656-4.1422 0.94439-1.1608 2.6443-1.9693 4.6144-1.6267 0.26173 0.0104-0.13447-0.23338-0.0784-0.0479m11.25 0.0815c0.4602 0.35574 0.47753-0.1919 0.69424 0.21297 0.26683 0.0353 0.0399-0.0502-0.0262-0.0541 0.11441-0.16817 0.70978 0.65149 0.717 0.86453 0.035 0.32697 0.0193-0.14148 0.2116 0.0329 0.95985-0.65014 2.2435-0.59912 3.5176-1.1214 0.0483 0.0884-0.1864-0.16657-0.0756-0.0912 0.48635 0.0788 0.61504-0.14532 0.857 0.35219 0.14201-9e-3 -0.0844-0.10192 0.0157 0.0553 0.41083 0.5497 0.4537 0.78358 0.48066 0.93833 0.0283 0.4555-0.0405 0.37196-0.27588 0.649 0.0237 0.0312 0.2374 0.0511 0.18723-2e-3 -0.23036 0.22795-0.45548 0.49382-0.80082 0.33022-0.31663-0.0577-0.40072-0.0111-0.44557-0.0518-1.0681-0.0857-2.2381 0.29994-2.9411 1.047-0.71134 1.0076-0.99854 1.1396-0.9933 2.332 0.1566 0.0714 0.2147 7.4409 0.12572 7.4113-0.1531 0.22359-0.25228 0.34804-0.46108 0.61647-0.52558 0.18981-0.37188 0.0251-0.85943 0.16397-0.55039-0.0596-0.64039 0.12683-0.85559-0.0378-0.38248-0.29942-0.30366-0.35165-0.29533-0.82966 0.14062 0.0429-0.21289-12.135-0.10102-11.816 0.0389-0.25312 0.53891-0.14965 0.72905-0.62197 0.26433-0.17717 0.17423-0.73 0.52043-0.45631-0.0105-0.10431-0.0638-0.34346 0.0787 0.0998m-53.486-0.10584c0.42112 0.14706 0.64332 0.20425 0.91765 0.43704-0.03756 0.20488 0.82144 0.3683 0.89736 0.70531-0.02232-0.0109-0.62287 11.704-0.61428 11.71 0.05529 0.55281-0.15402 0.47679-0.30596 0.74568-0.25592 0.40609-0.18872 0.50542-0.86551 0.39698-0.13573 0.0569-0.66922-0.21118-0.92726-0.42083-0.19892-0.16364-0.89795-0.71267-0.52053-0.91124 0.14326 0.0507 0.06267-11.675 0.14033-11.512 0.03378-0.23559 0.11005-0.5964 0.35449-0.81202 0.21176-0.25483 0.42885-0.34985 0.79582-0.34835 0.06123 0.0854 0.177 0.0492 0.23635 0.10779m11.099 2.0561c-0.99822 0.0463-2.0825 0.39019-2.7888 0.94971-0.82518 0.58798-1.1286 1.8302-1.066 2.8576 0.35382 0.0541 0.0778 2.7359 0.02636 2.4985-0.10822 0.90995 0.26134 1.5384 1.0886 2.409 0.69777 0.60823 1.5391 0.60868 2.6884 0.94292 0.07886 0.0886 0.29312 0.16094 0.31261 0.12291 0.88676-0.0715 1.6823-0.41424 2.4779-1.1358 0.15132 0.15951 0.26068 0.15916 0.12004 0.0304 0.7731-0.66273 1.3932-1.6752 1.1886-2.7353 0.0028 0.0316 0.04251-2.3208-0.01286-2.4378-0.0062-1.0194-0.37572-1.8122-1.1976-2.6149-0.71173-0.52949-1.6687-0.52669-2.7736-1.024-0.0087 0.0391 0.04867 8e-3 0.04919 0.18956m15.615-0.0154c-0.8757-0.14004-2.1399 0.48901-2.8097 1.0298-0.68361 0.7408-1.0438 1.5796-0.99983 2.589-0.07191 0.0412-0.06092 2.5837-0.14633 2.5033-0.33386 0.91441 0.24896 1.5224 1.0453 2.4692 0.67101 0.46856 1.8647 1.7618 2.8724 1.3463-0.0618-0.12762 0.0374-0.32556-0.0141-0.32486 1.0722 3e-3 2.0549-0.0271 2.8585-0.97341 0.75035-0.64619 1.2059-1.34 1.2265-2.4411-0.0724-0.0426-4e-3 -2.6698-0.0513-2.7461 0.14765-0.83417-0.7592-2.1579-1.3516-2.755-0.7087-0.35092-1.2046-0.45578-2.5442-0.47634-0.0339-0.0153-0.0478-0.33019-0.12575-0.29256m15.388 0.11054c-0.4653 0.16542-1.9525 0.33403-2.7559 0.96564-0.74152 0.68835-1.0264 1.5282-1.0718 2.4808 0.033 0.18564-0.043 2.7553-0.0831 2.7192 0.0168 0.95121 0.30236 1.7232 1.0972 2.4644 0.43856 0.61995 1.8938 0.6778 2.6786 0.6686 4.9e-4 0.0182 0.0409 0.19822 0.067 0.26853 0.92653-0.20175 2.0873-0.0964 2.9038-0.94243 0.0676-0.28228 0.0108-0.0628-0.0462-0.0687 0.81081-0.58036 1.1812-1.4223 1.2386-2.4014 0.0944 0.0435-0.12803-2.7793-0.0632-2.7364-0.27666-0.96066-0.30379-1.9406-1.1292-2.6817-0.81441-0.74068-1.7055-1.1579-2.7138-0.82436-0.0483-5.6e-4 -0.0235 0.0617-4e-3 0.0646m25.631 2e-3c-1.1752-9e-3 -2.1716 0.23934-2.9615 0.90655-0.82266 0.61348-0.768 1.6404-0.87057 2.5274 0.27716 0.0761-0.32775 2.9428-0.0607 2.6787-6e-5 0.95755 0.20875 1.7286 1.1372 2.5104 0.77616 0.6653 1.6302 0.67411 2.7114 0.68189-0.0413-0.0351 0.29908 0.39559 0.22953 0.37725 1.0449 0.0889 1.9782-0.22097 2.7433-0.9925-0.0644-0.32229-0.0752 0.19053-0.0705-0.0758 0.71743-0.99575 1.1893-1.7157 1.1461-2.7357-3e-3 -4e-3 0.42926-2.2709 0.10974-2.3997-0.0641-1.0564-1.1318-2.2924-1.6354-2.7899-0.71226-0.63567-1.081-0.41854-2.3798-0.75262-0.0916-0.0342-0.30646-0.23931-0.27301-0.20038m-56.647 0.71672c0.33389 0.033 0.1615 0.0293 0.0502-0.0704 0.87566 0.0101 1.7916-0.0277 2.4192 0.55621 0.1013 1.1e-4 0.20133 0.66538 0.04845 0.32091 0.41287 0.57922 0.81045 1.3598 0.84787 2.1084-0.05209 8e-3 0.28914 2.5851 0.32702 2.8106-0.0011 0.73572-0.18721 1.2394-0.83581 2.1627 0.191 0.0366-0.25511 0.24937-0.25549 0.24459-0.61469 0.6458-1.6072 0.50057-2.5185 0.5587-0.0328-0.0857-0.1916-0.0698-0.09736-0.0174-0.99904 0.0176-1.8099-0.31362-2.4157-0.85167-0.76141-0.97985-1.2802-1.0124-1.0068-1.8627-0.0056 0.0553 0.03422-3.1079 0.03905-2.9744-0.08503-0.89546 0.18991-1.5633 0.88627-2.1958 0.6614-0.36725 1.423-0.82546 2.3533-0.85284-0.27758 0.0159 0.06226 0.0489 0.03395-0.01m15.848 0.28973c-0.0807-0.0599 0.14317-0.35785 6e-3 -0.34127 1.0702 0.0507 1.8364 0.64456 2.3644 0.96237-0.0936-0.11109-0.0336-0.0584 0.0162-9e-3 0.73091 0.87345 1.1199 1.3595 1.0581 2.1288 0.36561 0.19818 0.23437 2.8577 0.15712 2.772-0.20396 0.67585-0.41751 1.3501-1.1799 1.8968 0.0437 0.0601 0.29619-0.0292-0.0195-0.0773-0.74693 0.46046-1.4283 1.1054-2.335 1.1525-0.33399-0.30381-0.13438 0.0712-0.18306 3e-3 -0.91599 0.0782-1.9067-0.67216-2.3042-1.1889-0.6169-0.54812-1.0857-1.0775-1.0894-1.884-0.03629-0.0189 0.32032-2.5529 0.23399-2.5951-0.04908-1.1628 0.03587-1.5949 0.86448-2.0647 0.67723-0.59959 1.5792-0.72997 2.463-0.98432 0.0582 0.0454-0.0307 0.0787-0.0484 0.0921m15.043-0.11398c0.0749-0.0115 0.38674 0.28571 0.37471 0.28949 1.0095 0.0502 1.7647 0.0787 2.3901 0.60327-0.16521 5e-3 -0.31368 0.0322-0.25542 0.0235 0.67412 0.58708 1.2206 1.2119 1.2859 2.075-0.0135 0.0575 0.064 2.5567-7e-3 2.4569 0.0196 0.7213-0.28202 1.8177-0.96179 2.4369-4e-3 0.17051 0.19795 0.19635 0.22904 0.19269-0.71309 0.59668-1.665 0.62769-2.6223 0.69736 0.0779-0.062-0.0253-0.27215-0.18301-0.34089-1.0161-0.0356-1.6522 0.39182-2.3972-0.60869-0.72471-0.70749-0.763-1.1618-1.0095-2.1007 0.17574 3e-3 0.30922-2.5889-8e-3 -2.703-0.0841-0.88925 0.54336-1.4575 1.0556-2.1082 0.73955-0.55832 1.4452-0.7479 2.3256-1.0686 0.0197-0.0162 0.10462 0.20192 7e-3 0.11062m25.62-0.0117c0.0442 0.11085 0.39534 0.183 0.40635 0.16766 0.73585-0.0278 1.6528 0.16912 2.3219 0.75832-0.17208-0.0602-0.35502-0.34736-0.0775-0.39511 0.86625 0.76295 0.75263 1.4094 0.76255 2.2285 0.19058 0.0486 0.3382 2.9749 0.38184 3.0842 0.0985 0.91408-0.31014 1.7992-1.0566 2.0444 0.019 0.0719-0.081 0.0806 0.0434 0.13306-0.93732 0.30378-1.9534 0.6893-2.6372 0.64283-0.0757-0.0829 0.45726 0.34372 0.36199 0.19328-0.63727 0.0568-1.7349-0.24273-2.5063-0.87523-0.65255-0.59452-1.2984-1.4809-1.2338-2.1976 0.0263 9e-3 0.0252-2.7163-0.0331-2.7453 7e-3 -0.91416 0.0312-1.5758 1.0452-2.08 0.60992-0.32036 1.4529-0.86991 2.4173-0.869-0.0481-0.0723 0.20968 0.0911 0.0802 0.0594" color="#000000" color-rendering="auto" dominant-baseline="auto" image-rendering="auto" shape-rendering="auto" solid-color="#000000" style="font-feature-settings:normal;font-variant-alternates:normal;font-variant-caps:normal;font-variant-ligatures:normal;font-variant-numeric:normal;font-variant-position:normal;isolation:auto;mix-blend-mode:normal;shape-padding:0;text-decoration-color:#000000;text-decoration-line:none;text-decoration-style:solid;text-indent:0;text-orientation:mixed;text-transform:none;white-space:normal"/>
 </g>
</svg>
