<svg width="30.126" height="29.922" version="1.1" viewBox="0 0 7.9709 7.917" xmlns="http://www.w3.org/2000/svg">
 <g transform="translate(-39.015 -101.48)">
  <path d="m39.092 101.52s-0.07659 0.86802-0.07659 0.86802 0.30284 0.28053 0.65857 0.63626c0.18071 0.1807 0.35965 0.38974 0.5764 0.6065 0.19915 0.19915 0.20828 0.37646 0.40744 0.57563 0.21683 0.21683 0.51456 0.37388 0.69533 0.55466 0.35578 0.35578 0.65227 0.60021 0.65227 0.60021s-0.21486 0.30713-0.57058 0.66285c-0.18071 0.18071-0.38597 0.34411-0.60272 0.56087-0.19915 0.19915-0.36756 0.66059-0.56672 0.85975-0.21683 0.21683-0.46689 0.20518-0.64766 0.38595-0.35578 0.35579-0.56056 0.63668-0.56056 0.63668s0.17008 0.93211 0.17008 0.93211l0.76692-5e-3s0.22449-0.31006 0.57803-0.6636c0.1796-0.1796 0.42224-0.33587 0.63766-0.55129 0.19793-0.19793 0.39075-0.37548 0.58869-0.57342 0.2155-0.21549 0.37895-0.47618 0.55861-0.65585 0.3536-0.35359 0.61965-0.60155 0.61965-0.60155s0.18037 0.24564 0.5339 0.59918c0.1796 0.1796 0.42212 0.39419 0.63754 0.60961 0.19793 0.19793 0.47684 0.42466 0.67478 0.6226 0.2155 0.2155 0.43216 0.42263 0.61182 0.60229 0.3536 0.3536 0.59848 0.6025 0.59848 0.6025l0.81026-0.025s-0.01676-0.91776-0.01676-0.91776-0.09496-0.20416-0.45129-0.56049c-0.18102-0.18102-0.47025-0.43051-0.68737-0.64763-0.19949-0.19949-0.3841-0.40507-0.5836-0.60457-0.2172-0.2172-0.37976-0.34165-0.56084-0.52273-0.35639-0.35639-0.59984-0.66247-0.59984-0.66247s0.20608-0.28159 0.56241-0.63792c0.18102-0.18101 0.42785-0.33385 0.64498-0.55097 0.19949-0.19949 0.38164-0.45652 0.58114-0.65602 0.2172-0.2172 0.42517-0.4314 0.60625-0.61248 0.35639-0.35639 0.59743-0.61951 0.59743-0.61951s0.05001-0.84909 0.05001-0.84909l-1.0342-0.0323s-0.23267 0.24416-0.58475 0.59624c-0.17886 0.17886-0.35598 0.41406-0.57051 0.6286-0.19711 0.19711-0.23105 0.40014-0.42817 0.59726-0.21461 0.21461-0.61202 0.20749-0.79094 0.38641-0.35214 0.35214-0.6041 0.78753-0.6041 0.78753s-0.03115-0.1462-0.38323-0.49828c-0.17886-0.17886-0.6221-0.50607-0.83664-0.72061-0.19711-0.19711-0.34109-0.35781-0.53821-0.55493-0.21461-0.21461-0.42045-0.41934-0.59937-0.59826-0.35214-0.35214-0.5891-0.59404-0.5891-0.59404l-1.0117-0.0336" color="#000000" color-rendering="auto" dominant-baseline="auto" image-rendering="auto" shape-rendering="auto" solid-color="#000000" style="font-feature-settings:normal;font-variant-alternates:normal;font-variant-caps:normal;font-variant-ligatures:normal;font-variant-numeric:normal;font-variant-position:normal;isolation:auto;mix-blend-mode:normal;shape-padding:0;text-decoration-color:#000000;text-decoration-line:none;text-decoration-style:solid;text-indent:0;text-orientation:mixed;text-transform:none;white-space:normal"/>
 </g>
</svg>
