<svg width="30.553" height="32.27" version="1.1" viewBox="0 0 8.0837 8.538" xmlns="http://www.w3.org/2000/svg">
 <g transform="translate(-38.94 -101.2)">
  <path d="m40.942 101.2c-0.17638 0-0.41049 0.0651-0.6382 0.1323-0.24622 0.0726-0.48463 0.14779-0.63407 0.14779-0.60492 0-0.70952-0.11369-0.70952-0.11369l0.03462 0.43408s-0.03411-0.0553-0.03411 0.27544c0 0.33073 0.17002 0.76533 0.17002 0.76533s0.18807 0.0159 0.50074 0.0258c0.14342 5e-3 0.31296 8e-3 0.50281 8e-3 0.28793 0 0.48855-0.032 0.85628-0.032 0.31225 0 0.63476-1e-3 0.97978-1e-3 0.3245 0 0.62462-0.0481 0.9586-0.0481 0.33384 0 0.38305 4e-3 0.70745 4e-3 0.16967 0 0.40097 2e-3 0.62942 3e-3 0.23662 1e-3 0.47037 3e-3 0.62942 3e-3 0.17351 0 0.3583 0.0124 0.53537 0.0253 0.19756 0.0144 0.38523 0.0294 0.53692 0.0294 0.60492 0 0.83716-0.108 0.83716-0.108s0.21859-0.20567 0.21859-0.5364-0.15141-0.73381-0.15141-0.73381-0.3843-0.0506-0.98805-0.0506c-0.28793 0-0.60586 0.015-0.97358 0.015-0.31225 0-0.46526 0.076-0.81029 0.076-0.1632 0-0.36373 9e-3 -0.56482 0.0186-0.19875 9e-3 -0.3983 0.0186-0.56431 0.0186-0.16561 0-0.34124-0.0217-0.51573-0.0434-0.17724-0.0221-0.3533-0.0439-0.51676-0.0439-0.16866 0-0.33558-0.0645-0.49868-0.13023-0.17092-0.0689-0.33768-0.13953-0.49764-0.13953zm5.9557 3.4954s-0.24736 0.12971-0.85111 0.12971c-0.15128 0-0.34418 0.0229-0.54674 0.0444-0.18298 0.0194-0.37376 0.0377-0.54829 0.0377-0.15978 0-0.3384-0.035-0.5209-0.0692-0.17414-0.0327-0.35191-0.0646-0.52038-0.0646-0.3245 0-0.58948 0.0574-0.92346 0.0574-0.16627 0-0.40028-0.0121-0.63355-0.0243-0.2351-0.0123-0.46968-0.0248-0.63252-0.0248-0.34542 0-0.49304 0.0109-0.80564 0.0109-0.3671 0-0.3578 0.0682-0.64544 0.0682-0.60492 0-0.99322-0.0258-0.99322-0.0258l-0.2837-6e-3s0.0093 0.34158 0.0093 0.67231-0.06253 0.61133-0.06253 0.61133 0.21136 0.0232 0.53382 0.0382c0.15609 7e-3 0.33792 0.0124 0.53485 0.0124 0.28793 0 0.60689-0.0165 0.97462-0.0165 0.15978 0 0.32745 0.0475 0.49919 0.0935 0.16388 0.044 0.33124 0.0868 0.49971 0.0868 0.16352 0 0.3352-0.0435 0.50798-0.0868 0.1701-0.0426 0.34126-0.0847 0.50695-0.0847 0.33384 0 0.63988-8e-3 0.96428-8e-3 0.34542 0 0.63359-0.0739 0.9462-0.0739 0.17423 0 0.35942 0.0237 0.53692 0.0486 0.1965 0.0276 0.38373 0.0568 0.53485 0.0568 0.60492 0 0.91777-0.10594 0.91777-0.10594s-0.14676-0.36277-0.14676-0.6935 0.14779-0.68419 0.14779-0.68419zm-7.939 3.237 0.03359 0.21239s5.17e-4 0.33486 5.17e-4 0.66559 5.16e-4 0.7059 5.16e-4 0.7059 0.18786-0.0266 0.50023-0.0434c0.14328-8e-3 0.31244-0.0134 0.5023-0.0134 0.15184 0 0.31426 0.0772 0.48783 0.15038 0.15556 0.0656 0.32022 0.12815 0.49403 0.12815 0.15978 0 0.32669-0.0679 0.49764-0.13384 0.16312-0.0629 0.33021-0.12454 0.49868-0.12454 0.3245 0 0.621-0.0625 0.95498-0.0625 0.16561 0 0.34226 0.0106 0.5178 0.0212 0.17831 0.0108 0.35536 0.0212 0.51883 0.0212 0.34542 0 0.68527-6e-3 0.99787-6e-3 0.3671 0 0.64667-0.0884 0.93431-0.0884 0.60492 0 0.98857 0.0522 0.98857 0.0522s-0.0098-0.32814-0.0098-0.65887 0.07338-0.60151 0.07338-0.60151-0.18789-9e-3 -0.50074-0.0145c-0.1435-3e-3 -0.31348-5e-3 -0.50333-5e-3 -0.1524 0-0.32085-1e-3 -0.50023-3e-3 -0.15952-2e-3 -0.32765-3e-3 -0.50074-3e-3 -0.15978 0-0.33829-9e-3 -0.5209-0.0171-0.17424-8e-3 -0.35191-0.0155-0.52038-0.0155-0.3245 0-0.60912 0.0341-0.9431 0.0341-0.16561 0-0.33914-0.0222-0.5116-0.0444-0.17518-0.0225-0.34916-0.045-0.51263-0.045-0.34542 0-0.6 0.10904-0.9126 0.10904-0.1728 0-0.34617-5e-3 -0.51108-0.01-0.18544-6e-3 -0.36038-0.0124-0.51263-0.0124-0.1979 0-0.37776-0.0211-0.5302-0.0496-0.31354-0.0587-0.51108-0.14831-0.51108-0.14831z" />
 </g>
</svg>
