<svg width="91.419" height="38.785" version="1.1" viewBox="0 0 24.188 10.262" xmlns="http://www.w3.org/2000/svg">
 <g transform="translate(-37.41 -100.87)">
  <path d="m58.469 100.87c-0.82393 0.19838-1.7949-0.0114-2.5016 0.54364-0.62515 1.8994-0.98029 0.67068-0.58734 0.50049 0.37457-0.39592 0.38088-0.53237-0.10043-0.16182-0.37402 0.4319-0.41573 0.37398-0.82827 0.0638-1.0193-0.22874-2.4756-0.20373-3.1739 0.0806-0.76165-0.38883-1.6609-0.82336-2.526-0.58843-0.3613-0.0797-0.61502 1.6306-1.3197 1.1082-1.0717-6e-3 -1.7519-0.74991-2.7198-1.0862-0.90246 0.46036-0.71126 0.49821-0.82933 0.70301-2.3598 0.78289-1.113-0.24518-1.5311 0.0869-0.37839 0.60643-0.87425 0.26605-1.3944 0.38256-5.2661-0.92219-0.28524 0.66959-0.47567 0.0777-0.73036-0.28377-1.6384-0.74884-2.4004-0.3576 3.944 1.1808 0.01858-0.4023-0.15504 0.10991-0.16956 0.52137-0.04463 5.8e-4 -0.17792 0.53026-0.02276 0.61098-0.32836 1.3531-0.2918 2.2172-0.26521 0.74176 0.68314 0.96863 0.92728 1.1722-0.64874 0.68621-0.22507 1.4552 0.5641 1.736-0.82601 1.116 0.63115 1.7554 1.5169 1.9873 0.92877 0.42233 1.6879-0.20017 2.6017 0.13529 1.0116-0.22986 1.9136 0.67769 2.9193 0.33532 0.20311-1.2773 1.3385 0.14985 2.134-0.37634 0.36041-0.84216 1.5965 0.74488 2.1996-0.10749 0.73912 0.66314 1.7191 1.1546 2.7244 1.1693 0.7229-0.22684 0.60072-1.7343 1.5779-0.97411 0.60836 0.20685 1.521 0.29899 1.6876-0.51149 1.0254 6e-3 2.0732 1.1882 3.0505 0.56637 0.24398-0.81888 1.7514 0.21319 1.7869-1.0433 0.03508-0.10183 0.29565-0.59602 0.14165-0.1034 0.59168-0.77085-0.50234-0.97721-0.72312-1.4565 0.39315-0.66713 0.70462-1.3232 0.97633-2.0187 0.45298-1.141-1.9862-0.76368-1.0826-1.8097 0.23268-0.2391 0.17028-1.8704-0.92303-1.4287-1.0809 0.46101-0.01602-1.4059-1.0665-1.4823zm2.4363 8.8394c-15.072 0.63506-7.5362 0.31753 0 0zm-22.226-8.2128c-0.25538 6.1102-0.12769 3.0551 0 0zm21.473 2.8841c0.0054 7e-3 -0.0073 3e-3 0 0zm1.3084 1.3451-0.0021 8e-3z" fill="#335698" />
 </g>
</svg>
