<svg width="114.42" height="44.277" version="1.1" viewBox="0 0 30.274 11.715" xmlns="http://www.w3.org/2000/svg">
 <g transform="translate(-632.96 -47.087)">
  <path d="m635.05 48.662c0.67498-0.51512 1.2258-1.1316 2.1438-1.0011 0.46395 0.06593 0.8195 0.58952 1.2853 0.63544 0.59508-0.11091 1.1902-0.22181 1.7853-0.33272-0.14957-0.08688-0.61668-0.2684-0.44869-0.26063 0.68628 0.03173 1.3595 0.22278 2.0392 0.33416 0.5835-0.31128 1.1078-0.87054 1.7505-0.93384 0.70963-0.06989 1.379 0.41089 2.0795 0.55666 0.62961 0.13101 1.2741 0.15202 1.9054 0.2725 0.59889 0.1143 1.1747 0.45359 1.7817 0.43121 0.48793-0.01799 0.89994-0.46157 1.3821-0.54785 1.1828-0.21164 2.3867-0.22668 3.58-0.34002 1.224 0.89008 0.48908 0.69586 1.7385 0.45233 0.18691-0.03643 0.48009-0.25977 0.5658-0.06842 0.17926 0.40034-0.30727 1.0713 6e-3 1.3462 0.25094 0.21991 0.22871-0.68696 0.43929-0.95565 0.0648-0.08276 0.19516 0.01434 0.29275 0.02151-0.87698 0.01654-1.754 0.03309-2.6309 0.04963 0.14354 0.06227 0.28576 0.24502 0.43063 0.18681 0.17774-0.07142 0.2593-0.31531 0.35176-0.50121 0.14489-0.29122 0.0593-0.90789 0.35462-0.91872 1.0221-0.03749 1.9876 0.54566 2.986 0.79618 0.18644 0.04679 0.37783 0.06356 0.56675 0.09534 0.18911-0.09873 0.35958-0.27952 0.56736-0.2962 0.13476-0.01082 0.23052 0.16155 0.35455 0.22219 0.11202 0.05477 0.23538 0.07429 0.34983 0.12222 0.11654 0.0488 0.22431 0.12284 0.34213 0.16753 0.13249 0.05024 0.28227 0.18892 0.40639 0.11631 0.2725-0.15943 0.43435-0.49016 0.65151-0.73524-0.6217 0.0013-1.2434 0.0024-1.8651 0.0037 0.1133-0.08639 0.24528-0.37066 0.33994-0.25918 0.32196 0.37925 0.42205 0.93689 0.63306 1.4053 0.52637-0.15441 2.4574 8.2637 1.931 8.4181-0.0434 0.27421 0.11446 0.85491-0.13022 0.82262-0.33854-0.04468-0.41191-0.61423-0.61787-0.92135-0.84141 0.11824-1.6828 0.23647-2.5242 0.35471-0.17603 0.04382-0.35981 0.05842-0.52808 0.13147-0.18731 0.08131-0.32754 0.31522-0.52791 0.32694-0.44523 0.02603-0.44017-0.93895-0.53458-1.0629-0.22357-0.29357-0.94944 0.43287-0.96638 0.39579-0.23976 0.22449-0.93823 0.42324-0.71929 0.67346 0.47588 0.54386 1.2991 0.98634 1.9301 0.71028 0.41212-0.18031-0.47799-0.84672-0.77685-1.2148-0.0821-0.10105-0.2757-0.27523-0.33655-0.15657-0.0871 0.16972 0.29208 0.61846 0.12355 0.57179-0.99354-0.27515-1.8912-0.88213-2.8369-1.3232-0.037 0.39494-0.0608 0.79175-0.11112 1.1848-0.0162 0.12618 0.0808-0.2846 9e-3 -0.38235-0.0617-0.08339-0.19234 0.0049-0.28852 0.0042-0.16359-0.0013-0.33351 0.04064-0.49071-0.01064-1.5084-0.49212 0.38126-0.43263-1.6686-0.28887 0.28864 0.23612 1.2219 0.6927 0.86594 0.70838-0.57276 0.02521-1.0424-0.74287-1.6125-0.67551-0.5496 0.06494-0.83777 0.94556-1.3853 1.0297-0.6542 0.10055-1.2734-0.6307-1.9264-0.52072-4.4801 0.75452 1.5766 2.34-3.8476 0.29215-2.7244-0.81518-2.718-1.0993-6.1401-0.3179-0.69886 0.15958-1.2277 1.0242-1.9406 1.017-0.50327-0.0051-0.79432-0.69918-1.1915-1.0488-0.40466 0.11215-0.79733 0.33692-1.214 0.33645-0.25444-2.65e-4 -0.46806-0.22574-0.7021-0.3386-0.54899-0.1594 1.4444-8.9394 1.9934-8.78z" fill="#1F3356" />
 </g>
</svg>
