<svg width="30.553" height="32.27" version="1.1" viewBox="0 0 8.0837 8.538" xmlns="http://www.w3.org/2000/svg">
 <g transform="translate(-38.94 -101.2)">
  <path transform="matrix(.26458 0 0 .26458 38.94 101.2)" d="m15.4 4.3789c-0.66304 4e-7 -1.3241 0.22061-1.793 0.68945s-1.041 0.98149-1.041 1.6445c-1e-6 0.66304 0.67764 1.6874 1.1465 2.1562 0.46884 0.46884 1.0928 0.46289 1.7559 0.46289 0.66304 7e-7 1.3124-0.25967 1.7812-0.72852 0.34791-0.34791 0.44886-1.2235 0.47852-1.9238l0.78516 0.32422c2e-6 -0.66304-0.85342-1.4648-1.3223-1.9336-0.46884-0.46884-1.128-0.69141-1.791-0.69141zm-0.36524 8.666c-0.66304 0-0.9003 0.57803-1.3691 1.0469-0.46884 0.46884-0.96289 0.94243-0.96289 1.6055-2e-6 0.66304 0.50186 1.4452 0.9707 1.9141s0.68852 0.52344 1.3516 0.52344c0.66304 0 1.3612-0.22061 1.8301-0.68945 0.46884-0.46884 1.0234-0.71586 1.0234-1.3789l-0.13672-0.35742-0.001954-0.03125c2e-6 -0.66304-0.2792-1.3124-0.74805-1.7812-0.46884-0.46884-1.294-0.85156-1.957-0.85156zm0.20312 9.0586c-0.66304 0-1.1737 0.57217-1.6426 1.041-0.46884 0.46884-1.002 0.89555-1.002 1.5586-2e-6 0.66304 0.41202 1.0937 0.88086 1.5625 0.46884 0.46884 1.0987 0.91602 1.7617 0.91602 0.66304 0 1.2948-0.27334 1.7637-0.74219 0.46884-0.46884 0.42774-1.3916 0.42773-2.0547l0.24414 0.30078 0.0625 0.015625c2e-6 -0.66304-0.40811-1.3319-0.87695-1.8008-0.46884-0.46884-0.9561-0.79688-1.6191-0.79688z" />
 </g>
</svg>
