<svg width="86.422" height="86.6" version="1.1" viewBox="0 0 22.866 22.913" xmlns="http://www.w3.org/2000/svg">
 <g transform="translate(-34.558 -36.56)">
  <path transform="matrix(.26458 0 0 .26458 34.637 30.693)" d="m0.025386 22.516 0.032188 2.3868s0.24243 1.1341 0.24243 2.6555c0 0.80943-0.31538 1.68-0.31538 2.6003 0 0.91982 0.035123 1.8787 0.035123 2.6876 0 1.5211-0.050951 2.6029-0.050951 2.6029s2.4489 0.0536 2.4489 0.0536-4.959e-4 -1.0538-4.959e-4 -2.5753c0-0.80943-0.057413-1.8466-0.057413-2.767 0-0.91982 0.023647-1.8437 0.023647-2.6526 0-1.5211-0.011584-2.6486-0.011584-2.6486s1.0763-0.0495 2.5978-0.0495c0.80943 0 1.8532 0.12465 2.7736 0.12465 0.91982 0 1.82 0.17072 2.6289 0.17072 1.5211 0 2.328-0.26298 2.328-0.26298l0.31811-2.3413s-1.053 0.01538-2.5809 0.01538c-0.77616 0-1.6873-0.01242-2.6182-0.01242-0.85627 0-1.7892-0.23236-2.6455-0.23236-0.93026 0-1.8221 0.17409-2.5978 0.17409-1.5282 0-2.614 0.0062-2.614 0.0062l0.080814 0.06473m32.974-0.017556-0.31661 2.3596s1.4599 0.31847 3.1854 0.31847c0.83391 0 1.8048-0.23726 2.8551-0.23726 0.90734 0 1.8273-0.09704 2.8115-0.09704 0.9468 0 2.0221 0.05532 2.9689 0.05532 0.98457 0 1.8765 0.02049 2.7841 0.02049 1.0504 0 1.9718-0.06348 2.8057-0.06348 1.7247 0 2.9128 0.05418 2.9128 0.05418l-0.0771-2.451s-1.0618 0.05003-2.7873 0.05003c-0.83391 0-1.7142 0.04269-2.7645 0.04269-0.90735 0-1.8909-0.04234-2.8751-0.04234-0.9468 0-1.9864 0.0043-2.9332 0.0043-0.98457 0-2.0049-0.19524-2.9125-0.19524-1.0504 0-1.9602 0.45901-2.7941 0.45901-1.7247 0-2.8581-0.27264-2.8581-0.27264l-0.03793-0.32736m40.316 0.32516-0.28493 2.4036s1.0878-0.04362 2.6093-0.04362c0.80943 0 1.7318-0.0109 2.6522-0.0109 0.91982 0 1.8816 0.18971 2.6905 0.18971 1.5211 0 2.6166-0.32458 2.6166-0.32458s-0.02003 1.2744-0.02003 2.7958c0 0.80943 0.12096 1.7645 0.12096 2.6849 0 0.91982-0.10047 1.8052-0.10047 2.6141 0 1.5211 0.03836 2.6986 0.03836 2.6986l2.3477-0.05432s0.04666-0.75001 0.04666-2.2779c0-0.77616-0.05685-1.9866-0.05685-2.9175 0-0.85627 0.02277-1.7912 0.02277-2.6475 0-0.93026 0.13972-1.7011 0.13972-2.4768 0-1.5282-0.14796-2.706-0.14796-2.706s-0.92187 0.08802-2.4498 0.08802c-0.77616 0-1.721-0.02493-2.6519-0.02493-0.85627 0-1.5172 0.0053-2.3735 0.0053-0.93026 0-2.1427-0.04154-2.9183-0.04154-1.5282 0-2.5116 0.03557-2.5116 0.03557l-0.05232 0.02809m-72.981 33.257s-0.31968 0.81052-0.31968 2.536c0 0.83391 0.25798 1.8116 0.25798 2.8619 0 0.90735 0.0085839 1.8703 0.0085839 2.8545 0 0.9468 0.042693 1.9631 0.042693 2.9099 0 0.98457-0.063618 1.8559-0.063618 2.7635 0 1.0504 0.075677 2.1172 0.075677 2.9511 0 1.7247-0.0012848 2.8412-0.0012848 2.8412l2.3295-0.08076s0.011873-1.1479 0.011873-2.8734c0-0.83391 0.00646-1.7448 0.00646-2.7951 0-0.90734 0.057355-1.8372 0.057355-2.8214 0-0.9468-0.34132-2.0363-0.34132-2.9831 0-0.98457 0.35763-1.8256 0.35763-2.7332 0-1.0504-0.13068-2.0567-0.13068-2.8906 0-1.7247 0.043261-2.8773 0.043261-2.8773l-2.3954-0.01201 0.26163 0.1032m83.317-0.14407s-0.01654 1.1682-0.01654 2.8936c0 0.83391 0.09369 1.8755 0.09369 2.9258 0 0.90734-0.0074 1.8905-0.0074 2.8748 0 0.9468 0.01261 1.9037 0.01261 2.8505 0 0.98457-0.01162 1.984-0.01162 2.8916 0 1.0504-0.05091 1.915-0.05091 2.7489 0 1.7247 0.05226 3.0251 0.05226 3.0251l2.39-0.08112s-0.04267-1.1893-0.04267-2.9148c0-0.83391 0.0095-1.8119 0.0095-2.8622 0-0.90734 0.04141-1.8274 0.04141-2.8117 0-0.9468 0.0021-1.9015 0.0021-2.8483 0-0.98457-0.08436-2.0239-0.08436-2.9315 0-1.0504 0.0362-2.0081 0.0362-2.842 0-1.7247-0.0046-2.8471-0.0046-2.8471l-2.3893 1.66e-4 0.05112 0.05759m-83.935 39.87s0.27688 1.1994 0.27688 2.7208c0 0.80943-0.04722 1.7337-0.04722 2.6541 0 0.91982-0.22966 1.8068-0.22966 2.6157 0 1.5211 0.33062 2.7872 0.33062 2.7872l-0.0054635 2.3329s2.3251-0.0372 2.3251-0.0372 1.1975 0.0588 2.7189 0.0588c0.80943 0 1.6956-0.0876 2.616-0.0876 0.91982 0 1.8955 0.34536 2.7044 0.34536 1.5211 0 2.595-0.32817 2.595-0.32817l0.05096-2.3492s-1.2433-0.0465-2.7647-0.0465c-0.80943 0-1.8152 5e-3 -2.7356 5e-3 -0.91982 0-1.6975-0.0142-2.5064-0.0142-1.5211 0-2.6094 0.0687-2.6094 0.0687s-0.036262-1.187-0.036262-2.7084c0-0.80943 0.033598-1.6764 0.033598-2.5968 0-0.91982 0.011253-1.788 0.011253-2.5969 0-1.5211-0.05225-2.8864-0.05225-2.8864l-2.3532 0.17662-0.055356-0.0527m83.593 0.01318s0.20821 1.1706 0.20821 2.692c0 0.80943-0.14468 1.8057-0.14468 2.7261 0 0.91982-0.04797 1.71-0.04797 2.5189 0 1.5211 0.0406 2.6971 0.0406 2.6971s-1.1293 5e-3 -2.6508 5e-3c-0.80943 0-1.721 0.19149-2.6414 0.19149-0.91982 0-1.9024-0.2393-2.7113-0.2393-1.5211 0-2.7145-0.15188-2.7145-0.15188l0.06913 2.2772s1.1007 0.27929 2.6221 0.27929c0.80943 0 1.6642-0.11109 2.5846-0.11109 0.91982 0 1.9457 0.10015 2.7546 0.10015 1.5211 0 2.6248-3e-3 2.6248-3e-3l2.4772 0.0785-0.0144-2.4006s0.04317-1.0835 0.04317-2.605c0-0.80943-0.10416-1.9404-0.10416-2.8608 0-0.91983 0.08694-1.6846 0.08694-2.4935 0-1.5211-0.06675-2.6997-0.06675-2.6997l-2.4207-0.01418s-0.14757 0.0051-0.14757 0.0051m-50.431 10.598 0.06767 2.4534s1.0605-0.0544 2.7859-0.0544c0.83391 0 1.9299 0.0447 2.9802 0.0447 0.90734 0 1.7183-0.0404 2.7025-0.0404 0.9468 0 2.0382 0.14392 2.985 0.14392 0.98457 0 1.854-0.14875 2.7616-0.14875 1.0504 0 2.108 0.0422 2.9419 0.0422 1.7247 0 3.0987 0.0379 3.0987 0.0379l-0.39238-2.4874s-0.87906 0.0549-2.6045 0.0549c-0.83391 0-1.9867-0.0501-3.037-0.0501-0.90735 0-2.1251 0.0131-3.1094 0.0131-0.9468 0-1.6631 1e-3 -2.6099 1e-3 -0.98457 0-1.9075 0.0368-2.8151 0.0368-1.0504 0-1.9159 1e-3 -2.7499 1e-3 -1.7247 0-2.9262 9e-3 -2.9262 9e-3l-0.07205-0.0645" color="#000000" color-rendering="auto" dominant-baseline="auto" fill="#241c1c" image-rendering="auto" shape-rendering="auto" solid-color="#000000" style="font-feature-settings:normal;font-variant-alternates:normal;font-variant-caps:normal;font-variant-ligatures:normal;font-variant-numeric:normal;font-variant-position:normal;isolation:auto;mix-blend-mode:normal;shape-padding:0;text-decoration-color:#000000;text-decoration-line:none;text-decoration-style:solid;text-indent:0;text-orientation:mixed;text-transform:none;white-space:normal"/>
 </g>
</svg>
