<svg width="101" height="101" version="1.1" viewBox="0 0 26.723 26.723" xmlns="http://www.w3.org/2000/svg">
 <g transform="translate(-38.94 -83.013)">
  <path d="m60.594 82.981c-1.3545 0.50151-2.674 0.94187-3.9535 1.2368-0.52614 0.65091-1.5988 0.14426-2.0842 0.86485 0.7307-1.6205-1.7864-1.2721-2.2053-1.5879-0.61407-1.095-1.8359 1.0749-2.5546 8e-3 -1.0425 0.7508-2.6639 0.50439-3.712 0.11808-1.1712 0.38232-2.3546-0.29004-3.4439 0.41688-0.82669 0.6213-1.185-0.12424-1.647-0.61152-1.554 0.25362-1.658 2.3972-1.3777 3.5392 1.0427-0.09299-0.23424 1.0876 0.33135 1.8071 0.24114 1.2561 0.26342 2.4587-0.32449 3.6417-0.30035 0.97487 0.61877 1.7275 0.28303 2.5706 0.10657 1.1752-1.3081 2.6412-0.14562 3.5772 0.73206 0.59141-0.88683 1.4717 0.02649 2.2616 0.32745 1.2282-0.36216 2.5458-0.0076 3.8558 0.05306 1.2479-1.1325 3.1365 0.18026 3.9644 0.60295 0.13184 0.7282 1.3846 1.5526 0.5698 0.42703-0.6244 1.8725-1.8033 1.8917-0.36636-0.08598 1.0212 1.354 0.25903 1.5074 1.1 1.1026-0.21568 2.1357-1.5448 2.8971-2.0317-0.76231 1.2912 1.0727 1.5814 1.4893 0.78796 0.63949-0.18204 1.2192-0.21992 1.0451 0.56951 1.0476 1.1722 2.2984-1.4892 3.5302-0.25263 0.73253-0.26849 1.9173-1.2857 1.9619 0.13037 0.58747 0.27065 1.2478-0.48389 1.7282-4e-3 0.8191-1.2068 1.5279 1.099 2.7048 0.2351 0.68225-0.54494 0.82951-0.87609 1.6963-0.40245 0.65319-0.0824 1.6927-0.14682 2.4143-0.0467 1.1199-1.0917-0.13408-2.8222 0.46403-4.1394-0.36184-0.58557-0.86219-0.59265-0.30833-1.3018 0.45382-1.1636-0.59137-1.9252-0.05751-2.9882-0.57427-1.4184 0.85512-2.4914 0.17411-3.8677-0.86653-2.1188 0.01434-4.4024-0.17655-6.5924 0.0014-0.66905 0.66612-1.3492-0.28244-1.5481 0.82883-0.30858 1.5111-2.2517 0.14177-2.0983 0.22655-0.55923 0.04196-0.99458 0.39913-1.4826-0.22737-1.2179-1.6033-1.6078-2.4879-1.4588-0.48169-0.2546-1.4368 0.56714-1.5278-0.4495l-0.07324-0.01479-0.04943-0.01zm1.2258 26.081c-0.14714-0.1164-0.1767-0.13979 0 0zm-21.786-21.684-0.03721 0.02584zm24.266 3.6323-0.04765 0.02636zm-0.04134 1.6485-0.03399 0.03095zm-13.903 15.804c0.19079-7e-3 -0.0147 0.12678 0 0z" fill="#4e78c5" />
  <path fill="#483737" transform="scale(.26458)" d="m147.23 314.2 0.6465 3.0796s-0.1708 1.0497-0.1708 2.9337c0 0.82599-0.0924 1.6024-0.0924 2.7289 0 0.89343 0.033 1.9252 0.033 2.9864 0 0.9217 0.0804 2.375 0.0804 3.41 0 0.93653-0.0132 1.6951-0.0132 2.7149 0 0.94638-3e-3 1.895-3e-3 2.9055 0 0.95356-9e-3 2.3447-9e-3 3.3491 0 0.9582-0.0703 0.98478-0.0703 1.9838 0 0.96227-0.0164 2.364-0.0164 3.3593 0 0.96556 0.3361 2.4771 0.3361 3.4694 0 0.96787-0.24816 1.4811-0.24816 2.4703 0 0.97025-0.0578 1.8902-0.0578 2.8771 0 0.97287-0.023 1.9498-0.023 2.9352 0 0.9745 6e-3 1.9546 6e-3 2.9378 0 0.97614 0.0917 2.0098 0.0917 2.9911 0 0.97808-3.1e-4 2.0062-3.1e-4 2.986 0 0.97966-0.16269 1.851-0.16269 2.829 0 0.98179 0.15621 2.1002 0.15621 3.0768 0 0.98293 0.062 1.8859 0.062 2.8601 0 0.98498-0.13495 1.8901-0.13495 2.8626 0 0.98711-0.12716 1.9353-0.12716 2.9058 0 0.9897-0.0328 2.0232-0.0328 2.9916 0 0.99207 0.14489 1.966 0.14489 2.9314 0 0.99533 0.14052 2.048 0.14052 3.0103 0 0.9995 0.40873 2.1691 0.40873 3.1277 0 1.0039-0.64555 1.2532-0.64555 2.2064 0 1.0106 0.21143 2.7789 0.21143 3.7254 0 1.0198-0.0947 1.618-0.0947 2.5546 0 1.0348 0.0607 2.1563 0.0607 3.0778 0 1.0615-0.0662 1.8509-0.0662 2.7446 0 1.1262-0.0551 1.7972-0.0551 2.6231 0 1.8847 0.0419 3.2947 0.0419 3.2947l-0.0358 3.0778s1.2658 0.0528 3.1552 0.0528c0.82657 0 1.1975-0.0695 2.3263-0.0695 0.89434 0 2.3196-0.45567 3.3833-0.45567 0.92201 0 1.9804 0.5449 3.0171 0.5449 0.93742 0 1.85-0.14393 2.872-0.14393 0.94676 0 1.9904 0.15112 3.0026 0.15112 0.95407 0 1.6521-0.18503 2.6584-0.18503 0.95854 0 2.6979 0.63294 3.6987 0.63294 0.96261 0 1.7716-0.32224 2.7687-0.32224 0.9656 0 1.6929-0.1242 2.6869-0.1242 0.96873 0 1.8116-0.11493 2.8034-0.11493 0.97087 0 1.9825-0.0141 2.972-0.0141 0.97285 0 2.1552 0.11645 3.1427 0.11645 0.97436 0 1.818 0.45902 2.8034 0.45902 0.97621 0 1.866-0.61881 2.8499-0.61881 0.97811 0 1.5193 0.0758 2.502 0.0758 0.97927 0 2.4939 0.0728 3.4747 0.0728 0.98114 0 2.1001-4e-3 3.0797-4e-3 0.98217 0 1.8183 0.0261 2.7959 0.0261 0.98368 0 1.896-0.13908 2.8719-0.13908 0.98578 0 1.9624-0.41283 2.9371-0.41283 0.9875 0 2.0482 0.54648 3.021 0.54648 0.98946 0 1.843-0.08 2.8138-0.08 0.99142 0 1.7273-0.27061 2.6956-0.27061 0.9944 0 2.2822 0.17586 3.2483 0.17586 0.99723 0 2.1091 0.16819 3.0718 0.16819 1.0011 0 1.8579-0.27508 2.8168-0.27508 1.0061 0 2.1291 0.28648 3.0831 0.28648 1.0127 0 1.8432-0.079 2.7904-0.079 1.0223 0 2.0037-0.0834 2.9414-0.0834 1.0366 0 1.9936 0.0485 2.9155 0.0485 1.0636 0 2.0523-0.0529 2.9466-0.0529 1.1287 0 2.1971 0.14748 3.0235 0.14748 1.888 0 2.9471-2e-3 2.9471-2e-3l-0.0894-3.0885s-6e-3 -1.0502-6e-3 -2.9342c0-0.82599-0.20823-1.7816-0.20823-2.9081 0-0.89343 0.31662-1.8086 0.31662-2.8698 0-0.9217-0.17736-1.9712-0.17736-3.0062 0-0.93653 0.16024-1.8578 0.16024-2.8776 0-0.94639-0.064-1.9898-0.064-3.0003 0-0.95356 0.0714-1.7073 0.0714-2.7117 0-0.9582 0.46377-2.048 0.46377-3.047 0-0.96228-0.54442-2.3836-0.54442-3.3789 0-0.96556-0.021-1.6229-0.021-2.6151 0-0.96788 0.0359-2.196 0.0359-3.1851 0-0.97024 0.0735-1.6416 0.0735-2.6285 0-0.97288-0.016-1.942-0.016-2.9274 0-0.9745-0.071-2.0696-0.071-3.0528 0-0.97614 0.0129-1.9261 0.0129-2.9074 0-0.97809-0.0261-1.9374-0.0261-2.9172 0-0.97966 0.0203-1.9682 0.0203-2.9461 0-0.98178-3e-3 -2.0309-3e-3 -3.0075 0-0.98293 0.0667-1.8112 0.0667-2.7854 0-0.98498 0.11068-1.979 0.11068-2.9515 0-0.98711-0.21225-2.0239-0.21225-2.9944 0-0.98969 0.10525-1.9075 0.10525-2.8759 0-0.99208-0.12017-2.4225-0.12017-3.3879 0-0.99533 0.11534-1.5338 0.11534-2.4961 0-0.9995-0.21608-2.1002-0.21608-3.0588 0-1.0039 0.1642-1.9418 0.1642-2.8949 0-1.0106 0.0534-1.8821 0.0534-2.8286 0-1.0198-0.10592-2.2968-0.10592-3.2334 0-1.0348 0.0511-1.8481 0.0511-2.7696 0-1.0615 0.0695-1.9461 0.0695-2.8397 0-1.1262-0.12236-2.1664-0.12236-2.9922 0-1.8847 0.10582-2.7552 0.10582-2.7552s-0.16512-3.3904-0.16512-3.3904l-2.9446 0.20675s-1.4695-2e-3 -3.3535-2e-3c-0.82598 0-1.2651 0.16548-2.3915 0.16548-0.89343 0-1.8341-0.0662-2.8953-0.0662-0.9217 0-2.0185-0.13999-3.0536-0.13999-0.93653 0-1.8366 0.13702-2.8564 0.13702-0.94638 0-1.951-0.0209-2.9614-0.0209-0.95356 0-2.064-0.19211-3.0684-0.19211-0.9582 0-1.8116 0.18888-2.8106 0.18888-0.96227 0-2.0308-0.54345-3.0261-0.54345-0.96556 0-1.3822 0.5437-2.3744 0.5437-0.96787 0-2.1752 0.24122-3.1644 0.24122-0.97024 0-2.1925-0.25164-3.1794-0.25164-0.97288 0-2.0124-0.14608-2.9978-0.14608-0.9745 0-1.9643 0.0874-2.9476 0.0874-0.97614 0-1.864 0.0874-2.8453 0.0874-0.97808 0-1.9764-0.0315-2.9562-0.0315-0.97966 0-2.0329-0.33899-3.0108-0.33899-0.98178 0-1.7758 0.3358-2.7524 0.3358-0.98293 0-2.1421-0.0656-3.1163-0.0656-0.98498 0-1.9563 0.0117-2.9287 0.0117-0.98711 0-1.9703-0.0184-2.9407-0.0184-0.9897 0-1.9733 9e-3 -2.9416 9e-3 -0.99208 0-1.9698 4e-3 -2.9352 4e-3 -0.99533 0-1.7916 0.0655-2.7539 0.0655-0.9995 0-2.0967 9e-3 -3.0553 9e-3 -1.0039 0-2.5204-0.21972-3.4735-0.21972-1.0106 0-1.4574 0.22465-2.4039 0.22465-1.0198 0-2.0068-0.0151-2.9434-0.0151-1.0348 0-2.0931-0.53193-3.0147-0.53193-1.0615 0-1.9001 0.52747-2.7937 0.52747-1.1262 0-2.1792 0.0161-3.0051 0.0161-1.8847 0-2.992-0.12828-2.992-0.12828l-2.9329 0.13431-0.5401-0.37607m3.5521 3.3651s1.0508-0.0128 2.9348-0.0128c0.82598 0 1.6884-0.0981 2.8148-0.0981 0.89344 0 1.9775 0.12473 3.0388 0.12473 0.9217 0 1.8115-0.0825 2.8465-0.0825 0.93654 0 2.1663 0.064 3.1861 0.064 0.94638 0 1.7134-0.11507 2.7238-0.11507 0.95356 0 1.9265 0.0485 2.9308 0.0485 0.9582 0 1.938-0.0306 2.937-0.0306 0.96227 0 2.0436 0.0924 3.0389 0.0924 0.96556 0 1.7501-0.11152 2.7423-0.11152 0.96788 0 2.0414 0.0478 3.0306 0.0478 0.97025 0 2.031 0.53458 3.018 0.53458 0.97287 0 1.7502-0.92121 2.7356-0.92121 0.9745 0 2.0773-0.0788 3.0605-0.0788 0.97614 0 2.026 0.90011 3.0073 0.90011 0.97808 0 1.7939-0.43831 2.7737-0.43831 0.97966 0 2.1202 0.11129 3.0982 0.11129 0.98179 0 1.9697 0.24062 2.9464 0.24062 0.98293 0 2.1268-0.2834 3.1011-0.2834 0.98498 0 1.7926-2e-3 2.7651-2e-3 0.98711 0 1.4935-0.10595 2.4639-0.10595 0.98969 0 2.5604 0.18099 3.5288 0.18099 0.99208 0 1.8578-0.0505 2.8232-0.0505 0.99533 0 2.0478 0.0314 3.0102 0.0314 0.9995 0 1.9801 0.0607 2.9388 0.0607 1.0039 0 1.779-0.17463 2.7321-0.17463 1.0106 0 2.1154 0.0694 3.0619 0.0694 1.0198 0 2.0006-4e-3 2.9372-4e-3 1.0348 0 1.9402-0.0619 2.8617-0.0619 1.0615 0 2.1182 0.21635 3.0118 0.21635 1.1262 0 1.5836-0.26309 2.4095-0.26309 1.8847 0 3.5609 0.57339 3.5609 0.57339s-0.28159 0.52634-0.28159 2.4103c0 0.82598 0.20184 2.3388 0.20184 3.4652 0 0.89344-0.068 0.87546-0.068 1.9367 0 0.9217 0.0568 2.435 0.0568 3.47 0 0.93653-3e-3 2.104-3e-3 3.1237 0 0.94638-0.0785 1.6472-0.0785 2.6577 0 0.95356-0.0131 1.9518-0.0131 2.9562 0 0.9582 0.0885 2.1946 0.0885 3.1936 0 0.96227-0.0663 1.6452-0.0663 2.6405 0 0.96556 0.0148 1.7901 0.0148 2.7823 0 0.96788-6e-3 2.0899-6e-3 3.0791 0 0.97024-5e-3 2.0167-5e-3 3.0036 0 0.97288-0.0259 1.9445-0.0259 2.9299 0 0.97451 0.0879 2.0249 0.0879 3.0081 0 0.97613-0.23018 1.8928-0.23018 2.8741 0 0.97808 0.23339 2.0509 0.23339 3.0307 0 0.97966 0.0834 1.9922 0.0834 2.9702 0 0.98179-0.0802 1.9025-0.0802 2.8791 0 0.98294-0.0682 1.8961-0.0682 2.8704 0 0.98498 0.0822 2.0698 0.0822 3.0422 0 0.98712 6e-3 1.9184 6e-3 2.8889 0 0.98969-0.55107 1.9001-0.55107 2.8684 0 0.99207 0.52831 2.0608 0.52831 3.0262 0 0.99533 0.47169 2.0054 0.47169 2.9677 0 0.9995-0.37474 2.0043-0.37474 2.963 0 1.0039-0.1643 1.8548-0.1643 2.8079 0 1.0106 0.0705 2.0565 0.0705 3.003 0 1.0198 0.0123 2.005 0.0123 2.9416 0 1.0348-0.10877 1.9432-0.10877 2.8648 0 1.0615 0.032 1.575 0.032 2.4687 0 1.1262 0.0631 2.6398 0.0631 3.4657 0 1.8847-0.0946 2.5259-0.0946 2.5259s-0.95039 0.51219-2.8343 0.51219c-0.82598 0-1.8789-0.22859-3.0054-0.22859-0.89343 0-1.8739 0.0624-2.9351 0.0624-0.9217 0-1.9022-3e-3 -2.9372-3e-3 -0.93653 0-1.9266 9e-3 -2.9464 9e-3 -0.94638 0-2.0113-0.014-3.0218-0.014-0.95357 0-1.9013 0.0192-2.9057 0.0192-0.9582 0-1.7812 0.0717-2.7802 0.0717-0.96227 0-2.0502-0.17871-3.0456-0.17871-0.96556 0-1.9378 0.0656-2.93 0.0656-0.96787 0-1.9899 0.0293-2.9791 0.0293-0.97024 0-1.9263-0.0189-2.9132-0.0189-0.97288 0-1.4027 0.0896-2.3882 0.0896-0.9745 0-2.4137-2.7e-4 -3.3969-2.7e-4 -0.97614 0-1.9402 0.0121-2.9215 0.0121-0.97808 0-2.0493-0.0744-3.0291-0.0744-0.97966 0-1.9778-0.13871-2.9558-0.13871-0.98179 0-1.408 0.22881-2.3846 0.22881-0.98294 0-2.4313 9e-3 -3.4055 9e-3 -0.98499 0-1.9488 0.0653-2.9213 0.0653-0.98711 0-1.9848-0.10378-2.9553-0.10378-0.98969 0-2.052-0.0911-3.0204-0.0911-0.99207 0-2.0038-0.02-2.9692-0.02-0.99533 0-1.8436 0.11343-2.806 0.11343-0.9995 0-1.9924 0.0143-2.951 0.0143-1.0039 0-1.879 0.05-2.8321 0.05-1.0106 0-1.6299-0.0302-2.5764-0.0302-1.0198 0-2.4617 0.43419-3.3984 0.43419-1.0348 0-2.0125-0.46884-2.9341-0.46884-1.0615 0-2.1236-0.25996-3.0172-0.25996-1.1262 0-2.0488 0.2576-2.8747 0.2576-1.8847 0-2.9094-2e-3 -2.9094-2e-3s-0.11008-1.1402-0.11008-3.0242c0-0.82599 0.0976-1.7226 0.0976-2.8491 0-0.89343 5e-3 -1.8794 5e-3 -2.9406 0-0.92169-0.0724-2.4282-0.0724-3.4633 0-0.93653 0.0578-1.3745 0.0578-2.3942 0-0.94639-0.0776-1.997-0.0776-3.0075 0-0.95356 0.19372-1.8511 0.19372-2.8555 0-0.9582-0.12119-1.9075-0.12119-2.9065 0-0.96227 0.0911-1.9619 0.0911-2.9572 0-0.96556-0.16034-2.0397-0.16034-3.0319 0-0.96788 0.13002-1.8422 0.13002-2.8314 0-0.97025-0.0509-1.9619-0.0509-2.9488 0-0.97288-0.01-1.9213-0.01-2.9067 0-0.97451-0.085-2.0908-0.085-3.074 0-0.97614 0.0316-1.9446 0.0316-2.9259 0-0.97809 0.0816-1.8853 0.0816-2.8651 0-0.97966-0.0852-2.0929-0.0852-3.0709 0-0.98179 0.0915-1.8423 0.0915-2.819 0-0.98294-0.023-1.9538-0.023-2.9281 0-0.98499 0.43353-1.6684 0.43353-2.6408 0-0.98712-0.43072-2.2542-0.43072-3.2247 0-0.9897 0.45861-1.9764 0.45861-2.9448 0-0.99208-0.56603-2.05-0.56603-3.0154 0-0.99533 0.0183-1.9707 0.0183-2.933 0-0.9995 0.0733-1.9164 0.0733-2.8751 0-1.0039 0.0152-1.5143 0.0152-2.4674 0-1.0106 4e-3 -2.4563 4e-3 -3.4028 0-1.0198-0.0784-2.1888-0.0784-3.1254 0-1.0348-0.0167-1.9136-0.0167-2.8351 0-1.0615 0.0789-1.8246 0.0789-2.7182 0-1.1262-0.098-2.3421-0.098-3.168 0-1.8847 0.0218-2.9084 0.0218-2.9084l-0.45225-0.0175" />
 </g>
</svg>
