<svg width="30.553" height="32.27" version="1.1" viewBox="0 0 8.0837 8.538" xmlns="http://www.w3.org/2000/svg">
 <g transform="translate(-38.94 -101.2)">
  <path d="m38.956 109.35c0.01405-0.34097 0.02647-0.40166 0.10722-0.52368 0.15502-0.23426 0.23937-0.25488 1.0427-0.25488h0.70506l0.20688-0.13834c0.47078-0.31482 0.4615-0.30017 0.6166-0.9724 0.076-0.32938 0.16033-0.62103 0.18741-0.64811 0.11382-0.11381 0.33778-0.0223 0.33778 0.13805 0 0.0614-0.26917 1.2634-0.30216 1.3494-0.01029 0.0268-0.2097 0.18811-0.44313 0.35843-0.23343 0.17032-0.43603 0.34106-0.45022 0.37944-0.02445 0.0661-0.06323 0.07-0.73186 0.0751-0.68979 5e-3 -0.70899 8e-3 -0.83393 0.0929-0.14658 0.10042-0.27276 0.30283-0.27276 0.4376 0 0.076-0.01626 0.0922-0.09274 0.0922h-0.09274zm0.34597 0.3669c0-0.0869 0.12351-0.27529 0.21838-0.33313 0.10371-0.0632 0.17739-0.0712 0.65828-0.0714 0.68846-1.8e-4 0.77177 0.0311 0.88642 0.33265l0.03444 0.0906h-0.89876c-0.49432 0-0.89876-9e-3 -0.89876-0.0188zm3.1805-0.36362c0.01173-0.34266 0.02281-0.39706 0.10659-0.52367 0.16142-0.24394 0.22616-0.25817 1.1741-0.25817 0.91307 0 0.95356 8e-3 1.1251 0.21145 0.10417 0.12379 0.12346 0.21451 0.137 0.64408l0.0097 0.30871-0.09702-1e-5c-0.08047 0-0.09702-0.0153-0.09702-0.09 0-0.17977-0.19803-0.43155-0.39919-0.50756-0.05542-0.0209-0.35456-0.0375-0.67684-0.0375-0.32227 0-0.62142 0.0166-0.67684 0.0375-0.20116 0.076-0.39919 0.32779-0.39919 0.50756 0 0.0772-0.01563 0.09-0.10974 0.09h-0.10974zm0.41898 0.29182c0.11553-0.30388 0.19214-0.33278 0.88171-0.33278 0.61134 0 0.69831 0.0264 0.81047 0.24627 0.03899 0.0765 0.07091 0.14756 0.07091 0.15803 0 0.0104-0.40444 0.0191-0.89876 0.0191h-0.89876zm-2.8927-1.3486c-0.33441-0.18418-0.37875-0.62007-0.08646-0.84998 0.32255-0.25372 0.80268-0.01 0.80268 0.40789 0 0.35757-0.41008 0.6107-0.71622 0.44209zm3.615 0.0379c-0.13726-0.0334-0.2972-0.18686-0.33858-0.32499-0.10114-0.33758 0.138-0.67279 0.47998-0.67279 0.16867 0 0.37008 0.13339 0.4426 0.29313 0.08568 0.18871 0.08512 0.25041-4e-3 0.43448-0.10435 0.21556-0.34444 0.3274-0.58 0.27017zm-0.88073-0.0785c-0.01324-0.0214-0.02165-0.8919-0.01869-1.9344 0.0064-2.2283 0.01126-2.019-0.04765-2.019-0.05457 0-0.09334 0.63717-0.09356 1.5373-1.41e-4 0.51026-0.0034 0.53499-0.08178 0.60858-0.10069 0.0946-0.20225 0.0976-0.31134 9e-3l-0.08329-0.0675v-2.1759l0.09582-0.16299c0.16232-0.27612 0.2235-0.29172 1.2448-0.31764 0.4851-0.0123 1.009-0.0397 1.1642-0.0609l0.28224-0.0385 0.27342-0.28539c0.41685-0.4351 0.39792-0.4576-0.38507-0.4576-0.53967 0-0.57609-4e-3 -0.61197-0.0713-0.02098-0.0392-0.02855-0.0868-0.0168-0.10584 0.01257-0.0203 0.26554-0.0346 0.61471-0.0346 0.48438 0 0.60142-0.01 0.63727-0.0529 0.05343-0.0644 0.15498-0.0688 0.20328-9e-3 0.01954 0.0243 0.04638 0.0949 0.05964 0.15694 0.01326 0.0621 0.07155 0.17252 0.12953 0.24547 0.0783 0.0985 0.0998 0.15506 0.08357 0.21973-0.0333 0.13266-0.67199 0.80508-0.80498 0.8475-0.06162 0.0196-0.28668 0.0544-0.50012 0.0772-0.21344 0.0228-0.40792 0.0572-0.43218 0.0763-0.03394 0.0268-0.0441 0.35384-0.0441 1.4194v1.3846l-0.58212-0.02-0.01-0.39368c-0.0097-0.38383-0.01195-0.39341-0.08819-0.38256-0.07533 0.0107-0.07857 0.0272-0.08816 0.44964l-0.01 0.43854-0.12674 0.12309c-0.22863 0.22205-0.30972 0.51711-0.22412 0.81556 0.01921 0.067 0.02318 0.13324 0.0088 0.1472-0.05079 0.0494-0.21237 0.0716-0.23653 0.0324zm-1.8182-2.5679c-0.02911-0.0111-0.06458-0.0376-0.07884-0.059-0.04189-0.0627-0.03273-3.6842 0.0095-3.7631 0.03563-0.0665 0.1032-0.0682 2.7606-0.0677 1.6543 3.2e-4 2.7449 0.0136 2.777 0.034 0.07848 0.0496 0.09903 3.688 0.02143 3.7942-0.04807 0.0658-0.10189 0.0703-0.96174 0.0803-0.50094 6e-3 -0.9477 9.5e-4 -0.99278-0.01-0.07015-0.0176-0.0804-0.0395-0.0711-0.15169l0.01088-0.13111 1.7287-0.0352v-3.2457l-2.4657-9e-3c-1.7921-7e-3 -2.4788 2e-3 -2.5137 0.0308-0.06927 0.0574-0.07126 3.1432-0.0021 3.2006 0.02527 0.0209 0.18799 0.0427 0.36162 0.0484l0.31568 0.0102 0.01137 0.0992c0.02044 0.1783-0.03299 0.20101-0.46551 0.19795-0.21592-2e-3 -0.41639-0.0118-0.4455-0.0229zm2.1463-2.2206c-0.08197-0.0217-0.17065-0.22486-0.17065-0.39093 0-0.17206 0.11317-0.34774 0.28169-0.43729 0.29299-0.1557 0.63289-2e-3 0.74077 0.33446 0.03661 0.11428 0.03408 0.15935-0.01637 0.29145-0.03282 0.086-0.08901 0.17197-0.12485 0.19115-0.06344 0.0339-0.59315 0.0423-0.71059 0.0112zm-1.5113-0.62895c-0.03504-0.0422-0.03504-0.0636 0-0.10585 0.06321-0.0762 1.129-0.0789 1.129-3e-3 0 0.15624-0.01885 0.16164-0.56393 0.16164-0.42016 0-0.52961-0.0102-0.56502-0.0529z" style="stroke-width:.03528"/>
 </g>
</svg>
