<svg width="30.553" height="32.27" version="1.1" viewBox="0 0 8.0837 8.538" xmlns="http://www.w3.org/2000/svg">
 <g transform="translate(-38.94 -101.2)">
  <path d="m42.597 109.73c-0.15275-0.0124-0.47456-0.0659-0.63967-0.10641-1.1167-0.27396-2.0659-1.0301-2.5853-2.0594-0.13669-0.27087-0.22943-0.51107-0.29755-0.77067-0.32519-1.2393-0.05442-2.5169 0.74621-3.521 0.51635-0.64754 1.2847-1.1422 2.0958-1.3491 0.37043-0.0945 0.58144-0.12012 0.99225-0.12043 0.36656-2.7e-4 0.5001 0.0125 0.82643 0.0793 0.89628 0.18327 1.7602 0.72801 2.3198 1.4628 0.33142 0.43515 0.56569 0.91569 0.69665 1.429 0.42372 1.6608-0.24387 3.3825-1.6753 4.3205-0.4816 0.3156-1.0157 0.51647-1.6166 0.60804-0.14769 0.0225-0.70453 0.0401-0.86268 0.0273zm0.81918-0.83919c0.58368-0.1045 1.0888-0.33689 1.5239-0.70103 1.1096-0.92874 1.444-2.5035 0.80896-3.8097-0.31758-0.65319-0.89189-1.2088-1.5505-1.4999-1.4167-0.62626-3.0685-0.14652-3.9217 1.139-0.24682 0.37189-0.4064 0.77586-0.48684 1.2324-0.04785 0.27154-0.04845 0.75828-0.0013 1.0233 0.1052 0.59103 0.33806 1.0953 0.70911 1.5357 0.52174 0.61922 1.2798 1.019 2.0991 1.1071 0.13949 0.015 0.68515-3e-3 0.81918-0.027zm-0.72494-0.90066c-0.15332-0.0191-0.37985-0.0705-0.51076-0.11586-1.0677-0.36997-1.6884-1.4798-1.447-2.5876 0.14445-0.66307 0.59662-1.2335 1.2124-1.5293 0.51914-0.24944 1.1194-0.28765 1.6656-0.10601 0.56542 0.18801 1.036 0.59982 1.2985 1.1363 0.07991 0.16332 0.16505 0.40574 0.15327 0.43643-0.0065 0.0168-0.09427 0.0202-0.51932 0.0201-0.28135-1.2e-4 -0.51831-5e-3 -0.52659-0.0109-0.0083-6e-3 -0.05218-0.0669-0.09756-0.13567-0.12909-0.1956-0.28784-0.33084-0.50833-0.43305-0.17544-0.0813-0.29194-0.10663-0.49547-0.10759-0.21655-8.3e-4 -0.33876 0.0268-0.53646 0.12219-0.58064 0.28012-0.83849 0.95969-0.59128 1.5584 0.01976 0.0478 0.07094 0.13987 0.11375 0.20449 0.35248 0.53213 1.049 0.69521 1.6157 0.37829 0.15044-0.0841 0.35033-0.28386 0.44201-0.44165l0.06957-0.11974 1.047 8e-3 -0.0051 0.0362c-0.01264 0.0902-0.08443 0.28386-0.1693 0.45672-0.21452 0.43692-0.56133 0.7842-1.0056 1.007-0.15423 0.0773-0.42024 0.1661-0.58883 0.19646-0.12684 0.0229-0.51392 0.0399-0.6162 0.0272z" style="stroke-width:.014499"/>
 </g>
</svg>
