<svg width="30.553" height="32.27" version="1.1" viewBox="0 0 8.0837 8.538" xmlns="http://www.w3.org/2000/svg">
 <g transform="translate(-38.94 -101.2)">
  <path d="m42.572 109.71c-0.79384-0.0912-1.5992-0.55879-2.0988-1.2184-0.88062-1.1627-0.87421-2.713 0.01601-3.8719 0.06348-0.0827 0.14382-0.17785 0.17852-0.21157 0.0347-0.0337 0.06294-0.0722 0.06274-0.0853-1.92e-4 -0.0132-0.08115-0.13769-0.17991-0.27665-0.27493-0.38685-0.27484-0.38728 0.14468-0.68622 0.15839-0.11287 0.31112-0.21232 0.33941-0.221 0.04011-0.0123 0.06668-0.01 0.12072 0.0106 0.0628 0.024 0.08626 0.0504 0.25049 0.28163 0.09966 0.14035 0.18692 0.25871 0.1939 0.26302 7e-3 4e-3 0.06732-0.016 0.13406-0.0452 0.20256-0.0884 0.44552-0.16282 0.67968-0.2081l0.06203-0.012 0.0042-0.12341c0.0032-0.0939-0.0024-0.13616-0.02326-0.1766-0.04697-0.0911-0.09473-0.11429-0.25702-0.12497-0.17574-0.0115-0.23613-0.041-0.28606-0.13954-0.03353-0.0661-0.03489-0.0847-0.03489-0.47163 0-0.37502 0.0022-0.40735 0.03195-0.4688 0.0232-0.0479 0.05003-0.0747 0.09795-0.0979 0.06437-0.0312 0.08874-0.032 0.98672-0.032s0.92235 8.8e-4 0.98672 0.032c0.04791 0.0232 0.07475 0.05 0.09795 0.0979 0.02975 0.0614 0.03195 0.0938 0.03195 0.4688 0 0.38697-0.0014 0.4055-0.0349 0.47163-0.04993 0.0985-0.11032 0.12797-0.28606 0.13954-0.16229 0.0106-0.21005 0.0339-0.25702 0.12497-0.02086 0.0404-0.02643 0.0827-0.02326 0.1768l0.0042 0.12361 0.06979 0.0129c0.16541 0.0307 0.39141 0.0959 0.55265 0.15971 0.09544 0.0378 0.18008 0.0686 0.18808 0.0686 8e-3 0 0.0939-0.11237 0.19089-0.24971 0.18868-0.26718 0.22215-0.30253 0.30038-0.3172 0.07457-0.014 0.13374 0.0172 0.42271 0.2226 0.28519 0.20276 0.30932 0.22433 0.32946 0.29457 0.02372 0.0827-0.0054 0.14546-0.18282 0.39466-0.09513 0.13358-0.17296 0.25223-0.17296 0.26366 0 0.0114 0.03224 0.0519 0.07163 0.0899s0.12261 0.13264 0.18491 0.21025c0.76199 0.9491 0.91697 2.2151 0.40613 3.3173-0.40323 0.87004-1.1849 1.5167-2.1185 1.7527-0.31663 0.0801-0.79995 0.1047-1.1849 0.0605zm0.81587-0.78141c0.76119-0.13013 1.4057-0.60722 1.752-1.2969 0.19076-0.37993 0.27777-0.82733 0.24321-1.2506-0.01873-0.22945-0.04904-0.37933-0.11842-0.58558-0.16981-0.50485-0.52942-0.96144-0.99165-1.2591-0.10531-0.0678-0.34139-0.18163-0.47634-0.22965-0.5187-0.18455-1.0845-0.18455-1.6032 0-0.34055 0.12116-0.64645 0.31749-0.90863 0.58317-0.63296 0.64139-0.84894 1.5845-0.559 2.4409 0.28163 0.83193 0.99605 1.4439 1.8641 1.5969 0.23008 0.0405 0.56402 0.0409 0.79788 8e-4zm-0.41441-2.3978c-0.0052-0.0135-0.0094-0.45177-0.0094-0.97394 0-0.71775 0.0046-0.95395 0.01861-0.96802 0.02496-0.025 0.10774-0.0235 0.30313 6e-3 0.61979 0.092 1.1619 0.47274 1.4671 1.0304 0.13291 0.24281 0.22718 0.58542 0.22723 0.82583l2.2e-5 0.10468h-0.99864c-0.89632 0-0.9996-2e-3 -1.0081-0.0246z" style="stroke-width:.015509"/>
 </g>
</svg>
