<svg width="30.553" height="32.27" version="1.1" viewBox="0 0 8.0837 8.538" xmlns="http://www.w3.org/2000/svg">
 <g transform="translate(-38.94 -101.2)">
  <path d="m39.599 109.69c-0.29846-0.0934-0.55742-0.36785-0.63138-0.66912-0.02417-0.0985-0.03163-1.0789-0.02537-3.3329l0.0089-3.1934 0.07068-0.14347c0.09565-0.19414 0.264-0.36075 0.45387-0.44916 0.29661-0.1381 0.26605-0.49449 0.26605 3.1033v3.1773l-0.11626 0.0598c-0.23342 0.12005-0.3488 0.30068-0.3488 0.54604 0 0.17696 0.04351 0.28647 0.16467 0.4145 0.18801 0.19865 0.06753 0.19008 2.6703 0.19008h2.3719l0.0087-0.41081 0.0087-0.4108h0.31004l0.0085 0.50805c7e-3 0.41683-9.3e-5 0.52121-0.03948 0.58133l-0.048 0.0733-2.5029-2e-3c-1.9466-2e-3 -2.5311-0.0109-2.6301-0.0418zm6.5053-8e-3c-0.13651-0.0673-1.0919-1.2237-1.0919-1.3216 0-0.0443 0.44461-0.48705 0.48897-0.48705 0.04231 0 0.53043 0.36745 0.94794 0.71359 0.35028 0.2904 0.44141 0.43779 0.41509 0.67131-0.01952 0.17311-0.142 0.35828-0.28046 0.42399-0.1367 0.0648-0.3478 0.0647-0.47967-2.2e-4zm-2.6713-1.4704c-0.21911-0.043-0.57568-0.22867-0.75014-0.39068-0.34226-0.31782-0.52692-0.7275-0.52835-1.1722-0.0015-0.47657 0.14407-0.83651 0.47042-1.1629 0.32635-0.32635 0.68629-0.47197 1.1629-0.47043 0.60551 2e-3 1.1655 0.36016 1.4275 0.91307 0.18163 0.3833 0.2105 0.68451 0.10542 1.1-0.05874 0.23229-0.05996 0.25942-0.0155 0.34541 0.02654 0.0513 0.04825 0.14546 0.04825 0.20922 0 0.10444-0.02703 0.14295-0.27317 0.38909-0.30208 0.30207-0.38258 0.33203-0.57578 0.21423-0.09448-0.0576-0.10159-0.0576-0.3137-2e-3 -0.23051 0.0607-0.53111 0.0714-0.75785 0.0269zm0.78622-0.56558c0.23766-0.10881 0.43404-0.30176 0.55295-0.54331 0.09111-0.18507 0.10076-0.23147 0.10076-0.48436 0-0.24628-0.01082-0.30171-0.09051-0.46402-0.35256-0.71806-1.2925-0.86949-1.8301-0.29484-0.587 0.62755-0.28493 1.6454 0.55274 1.8624 0.17532 0.0455 0.5319 8e-3 0.7141-0.0759zm-0.04631-1.1763c-0.22701-0.15298-0.32782-0.45821-0.15924-0.48213 0.11052-0.0157 0.32402 0.12777 0.40522 0.27225 0.13966 0.24848-0.0052 0.37212-0.24598 0.20988zm-4.0694 1.693c-0.01137-0.0114-0.02067-1.4484-0.02067-3.1934v-3.1727h4.6471l0.04827 0.0689c0.04206 0.06 0.04827 0.26067 0.04827 1.5605 0 0.82039-8e-3 1.4996-0.01772 1.5093-0.0098 0.01-0.10751-0.023-0.21726-0.0727-0.76353-0.3462-1.6141-0.19532-2.1996 0.39016-0.37419 0.37419-0.57142 0.84548-0.57237 1.3677-9.11e-4 0.4924 0.18675 0.97096 0.5167 1.3177 0.09072 0.0953 0.16494 0.18951 0.16494 0.20927 0 0.0267-0.30779 0.036-1.1885 0.036-0.65367 0-1.1978-9e-3 -1.2092-0.0207zm3.9014-4.8315v-0.7751h-3.2554l-0.0083 0.74348c-0.0046 0.40892-0.0015 0.76132 0.0069 0.78313 0.01214 0.0317 0.34274 0.038 1.636 0.0317l1.6208-8e-3zm-3.0116 0.46538c-0.0099-0.0258-0.0099-0.0679 0-0.0937 0.01572-0.041 0.18991-0.0459 1.3908-0.0388l1.3728 8e-3v0.155l-1.3728 8e-3c-1.2008 7e-3 -1.375 2e-3 -1.3908-0.0388zm-0.0017-0.40759c-0.01071-0.0279-0.0053-0.0732 0.01211-0.10076 0.02826-0.0447 0.17222-0.05 1.3735-0.05 1.2186 0 1.3449 5e-3 1.3745 0.0516 0.02364 0.0375 0.0214 0.0651-0.0082 0.10077-0.03604 0.0434-0.19646 0.0491-1.3866 0.0491-1.2174 0-1.3477-5e-3 -1.3653-0.0507zm0.0016-0.42983c-0.043-0.11208 0.0096-0.13943 0.2746-0.1428 1.1037-0.0141 2.4527 1e-3 2.4795 0.0279 0.01716 0.0172 0.02191 0.0605 0.01054 0.0964-0.02059 0.0648-0.02613 0.0651-1.3837 0.0651-1.183 0-1.3654-6e-3 -1.3809-0.0464z" style="stroke-width:.031004"/>
 </g>
</svg>
