<svg width="30.553" height="32.27" version="1.1" viewBox="0 0 8.0837 8.538" xmlns="http://www.w3.org/2000/svg">
 <g transform="translate(-38.94 -101.2)">
  <path d="m39.027 109.65c-0.04811-0.0481-0.08749-0.1127-0.08749-0.14352 0-0.10491 0.46212-1.6932 0.50541-1.7371 0.03426-0.0347 0.11442-0.0299 0.39037 0.0236 0.191 0.037 0.36154 0.0815 0.379 0.099 0.01764 0.0177 0.02755 0.43023 0.02229 0.92894l-0.0094 0.8972-0.55633 0.01c-0.55113 0.01-0.55715 9e-3 -0.64382-0.0778zm1.6294 0.0622c-0.01293-0.013-0.02352-0.40981-0.02352-0.88194v-0.85843h0.08837c0.07359 0 3.3937 0.5954 3.6423 0.65317 0.04366 0.0101 0.07938 0.0334 0.07938 0.0517s-0.27384 0.26399-0.60854 0.546l-0.60854 0.51275-1.2729 1.2e-4c-0.70012 8e-5 -1.2835-0.0104-1.2965-0.0234zm3.222-5e-3c0-0.0243 2.1839-1.8767 2.3732-2.013 0.04288-0.0308 0.07912-0.0359 0.10088-0.0142 0.03685 0.0368 0.52454 1.7352 0.52454 1.8266 0 0.0306-0.03896 0.0948-0.0866 0.14237l-0.08659 0.0866h-1.4127c-0.77699 0-1.4127-0.0128-1.4127-0.0284zm-1.3758-1.8052c-1.2321-0.22807-2.3949-0.4425-2.5841-0.4765-0.40675-0.0731-0.3932-0.0401-0.23849-0.58138 0.15393-0.53856 0.10057-0.51068 1.0023-0.52352l0.75315-0.0107 0.24201 0.3106c0.32914 0.4224 0.77813 0.88524 0.93777 0.96667 0.07259 0.037 0.20392 0.0671 0.29309 0.0671 0.08917 0 0.2205-0.03 0.29309-0.0671 0.15964-0.0814 0.60863-0.54427 0.93777-0.96667l0.24201-0.3106 0.75315 0.0107c0.70401 0.01 0.75785 0.0154 0.82525 0.0829 0.10457 0.10468 0.28763 0.75569 0.23463 0.83441-0.02219 0.033-0.32097 0.29093-0.66396 0.57326-0.43112 0.35489-0.64891 0.51214-0.70556 0.50943-0.04506-2e-3 -1.09-0.19053-2.3221-0.4186zm-0.04044-0.95141c-1.2149-1.2589-1.5916-2.5297-1.0159-3.427 0.58653-0.91403 1.8522-1.0785 2.6311-0.34188 0.94017 0.88918 0.67333 2.3042-0.70702 3.7494-0.3011 0.31523-0.32966 0.336-0.46205 0.33579-0.13133-2.8e-4 -0.16226-0.0221-0.44614-0.3163zm0.63881-2.1002c0.3523-0.18218 0.32348-0.68485-0.04736-0.82599-0.40531-0.15426-0.77228 0.36952-0.49214 0.70245 0.15006 0.17833 0.34654 0.22332 0.5395 0.12354z" style="stroke-width:.035278"/>
 </g>
</svg>
