<svg width="30.553" height="32.27" version="1.1" viewBox="0 0 8.0837 8.538" xmlns="http://www.w3.org/2000/svg">
 <g transform="translate(-38.94 -101.2)">
  <path d="m42.551 109.73c-0.51004-0.0509-0.93299-0.17117-1.3901-0.39534-0.44014-0.21584-0.75652-0.44635-1.1044-0.80463-0.31835-0.3279-0.52785-0.62623-0.72118-1.027-0.1865-0.3866-0.29373-0.73006-0.35951-1.1515-0.04532-0.29032-0.049-0.85511-0.0073-1.1261 0.13795-0.89736 0.51194-1.6467 1.1307-2.2654 0.61877-0.61877 1.3681-0.99275 2.2654-1.1307 0.27096-0.0417 0.83575-0.038 1.1261 7e-3 0.67098 0.10473 1.2834 0.36263 1.8214 0.76702 0.18759 0.141 0.52653 0.46852 0.67832 0.65548 0.45415 0.55935 0.74232 1.2204 0.8572 1.9663 0.04173 0.27098 0.03827 0.83582-0.0069 1.1261-0.10398 0.66805-0.36125 1.2784-0.76904 1.8245-0.14231 0.19057-0.56593 0.61419-0.75651 0.75651-0.31078 0.23207-0.69643 0.44316-1.0419 0.57032-0.21402 0.0788-0.53842 0.16098-0.77779 0.19712-0.23406 0.0353-0.73248 0.0512-0.94448 0.03zm-2.0425-1.4941c0.05126-0.0441 0.14911-0.11646 0.21745-0.16088 0.22654-0.14726 0.34209-0.20352 0.92228-0.44902 0.33364-0.14117 0.4681-0.24487 0.53135-0.40978 0.02784-0.0726 0.03403-0.12238 0.03511-0.28228 8.09e-4 -0.11993-0.0062-0.21596-0.0184-0.25119-0.01084-0.0314-0.06532-0.11175-0.12106-0.17862-0.1118-0.13412-0.18271-0.25239-0.24922-0.41573-0.03336-0.0819-0.06858-0.13292-0.14693-0.21272-0.13673-0.13926-0.17465-0.21867-0.18178-0.38067-7e-3 -0.15933 0.01545-0.21066 0.13904-0.31773l0.09143-0.0792v-0.0994c0-0.0547-0.02526-0.22324-0.05613-0.37461-0.07161-0.35109-0.0698-0.46923 0.0097-0.63347 0.0824-0.17031 0.2574-0.33543 0.46584-0.43955 0.42818-0.21388 0.92892-0.2236 1.3316-0.0258 0.13556 0.0666 0.2725 0.17849 0.36511 0.29841 0.01899 0.0246 0.0433 0.0349 0.082 0.0349 0.12061 0 0.22363 0.0827 0.25738 0.2065 0.02567 0.0942 0.0087 0.31764-0.04695 0.6167-0.02621 0.14095-0.04767 0.29228-0.04767 0.33628-1e-5 0.0783 0.0019 0.0817 0.09142 0.15921 0.1245 0.10786 0.14702 0.15971 0.13827 0.31837-0.0088 0.15923-0.0532 0.25085-0.18696 0.38564-0.07352 0.0741-0.10775 0.12419-0.14098 0.20636-0.06604 0.16331-0.13695 0.2818-0.24922 0.41648-0.05574 0.0669-0.11045 0.14725-0.12157 0.17862-0.03257 0.0919-0.02318 0.42606 0.01475 0.52505 0.07378 0.19254 0.18392 0.26958 0.703 0.49171 0.52031 0.22266 0.77592 0.36564 0.99958 0.55912l0.07563 0.0654 0.12403-0.13202c0.51082-0.54373 0.84685-1.2842 0.9293-2.0478 0.02618-0.2425 0.01035-0.76398-0.02979-0.981-0.06705-0.36255-0.15678-0.63691-0.31239-0.95522-0.17408-0.35608-0.3592-0.62293-0.62589-0.90227-0.57508-0.60233-1.3142-0.97634-2.1445-1.0852-0.2117-0.0277-0.6276-0.0314-0.8457-7e-3 -0.67403 0.0743-1.3603 0.36727-1.8841 0.80446-0.70836 0.59125-1.1717 1.4481-1.2711 2.3507-0.02341 0.2125-0.02064 0.62581 0.0056 0.83605 0.08549 0.68495 0.35765 1.3178 0.79133 1.84 0.08821 0.10622 0.24534 0.27188 0.25767 0.27168 0.0045-8e-5 0.05019-0.0362 0.10144-0.0803z" style="stroke-width:.015532"/>
 </g>
</svg>
